<svg xmlns="http://www.w3.org/2000/svg" xmlns:xlink="http://www.w3.org/1999/xlink" viewBox="0 0 380 73.84"><defs><style>.cls-1{fill-rule:evenodd;fill:url(#radial-gradient);}.cls-2{fill:#d6c8df;}.cls-3{fill:#b06ab1;}.cls-4{fill:#66296e;}</style><radialGradient id="radial-gradient" cx="82.64" cy="24.7" fx="63.28229191729332" r="82.97" gradientUnits="userSpaceOnUse"><stop offset="0.13" stop-color="#fff"/><stop offset="0.13" stop-color="#fffcff"/><stop offset="0.16" stop-color="#fff1ff"/><stop offset="0.18" stop-color="#ffeaff"/><stop offset="0.26" stop-color="#ffe8ff"/><stop offset="1" stop-color="#e8e3ff"/></radialGradient></defs><title>Asset 3</title><g id="Layer_2" data-name="Layer 2"><g id="Layer_1-2" data-name="Layer 1"><path class="cls-1" d="M380,0H0V72.91H380Z"/><path class="cls-2" d="M379.93,66.83H188V49.6l0,0h.41v.12h.2v.2h1v-.17h.15V49.6h.52v.12h.31V50h.12v.12a1.25,1.25,0,0,1-.13.17c-.07.07.11.21.11.21v.79h.37v.88h.17v-.12h.8V51.1h1.42s.15-.25.28-.25.13.24.13.24h.32v.11h1.93v.18h.08v.78h.59v-.23h.53v-.16h.14V52h.63v-.07h.12v-.29H200l.19-.06h.19c.19,0,0,.4,0,.4l.22.08v-.3h.82v-.14h.72v-.22h.39v-.14h.37V50.7h.1v-.31l.15-.15v.89a1,1,0,0,0,.24,0c.14,0,.18.19.18.19h.37V53h.57v.13h.08v-.28h.21v-.51h1.35v.46h.23V53h.17V48.66h.65v-.52h1.74v.48h.65V52h.23v.56h.23v2.2c0,.14.33.15.33.15V54.4h.21v-.16h-.27v-.09h.55v-.28H212V54h.19a8,8,0,0,1,1.22.11c.34.09.35.19.35.19V52h.49v-.15h-.11v-.11h.2v.12h.19v-.14h.17v.18h.08v-.47l-.16.06s0-.1,0-.1a1.06,1.06,0,0,0,.19-.11v.49H215V52h1.26v3h1.38v.19h.1l.56-4.61h.08s.29-2,.29-2.17.15,0,.15,0l.24,2.18h.1l.22,2.61h.11c.05,0,.06.12.06.12h.59v.84h.19v.18h.12v-.19h.46v.15h1.22V52.92c0-.42.15-.44.15-.44h.2v-.12h.25v.12h.13V52.4h.11v-.67c0-.12,0-.19.13-.22a1.13,1.13,0,0,0,.35-.24l.06-.16h.13v-.59l-.29.14s-.07-.13,0-.13.33-.36.33-.36l0,1h.08v.09l.28.25.14.06.06.06.12,0v.9a.09.09,0,0,1,.12,0,1.08,1.08,0,0,1,.11.34v.71h.18v-.26h.17a.84.84,0,0,1,.26-.14.69.69,0,0,1,.37,0h.3a.43.43,0,0,1,.3.12h.17V51.53h.4a.48.48,0,0,1,.11-.31c.11-.1.13-.78.13-.78v.65a.52.52,0,0,0,.19.42v-.26h1.27v1.34h1.16v.26l.47-.24.31.28v1l.76-.69v-.72h.76v-.58h.18v-.2h1.78l.06.28h.2v.16h.49v-.2h2.07V54h.18v.14h.27v-.27h.23v-.18h.35V51.85h.12a1.14,1.14,0,0,0,0-.24c0-.13.25-.15.25-.15V50h.09V49.7h.21l.13-.12H239v.12h.19v.2h1v-.17h.16V49.6h.52v.12h.3V50h.12v.12a.72.72,0,0,1-.13.17c-.07.07.11.21.11.21v.79h.37v.88h.17v-.12h.8V51.1H244s.15-.25.28-.25.13.24.13.24h.32v.11h1.93v.18h.08v.78h.6v-.23h.52v-.16H248V52h.64v-.07h.11v-.29h1.79l.19-.06h.19c.19,0,0,.4,0,.4l.22.08v-.3h.82v-.14h.72v-.22H253v-.14h.36V50.7h.1v-.31l.16-.15v.89a.92.92,0,0,0,.24,0c.14,0,.18.19.18.19h.36V53H255v.13h.07v-.28h.22v-.51h1.35v.46h.22V53h.17V48.66h.65v-.52h1.75v.48h.65V52h.23v.56h.22v2.2c0,.14.34.15.34.15V54.4h.2v-.16h-.27v-.09h.56v-.28h1.08V54h.19a8.09,8.09,0,0,1,1.22.11c.34.09.34.19.34.19V52h.49v-.15h-.11v-.11h.2v.12H265v-.14h.18v.18h.08v-.47l-.16.06s0-.1,0-.1a.79.79,0,0,0,.19-.11v.49h.16V52h1.26v3h1.38v.19h.1l.57-4.61h.07s.29-2,.29-2.17.16,0,.16,0l.24,2.18h.09l.22,2.61H270c.06,0,.07.12.07.12h.58v.84h.19v.18h.13v-.19h.46v.15h1.21V52.92c0-.42.15-.44.15-.44H273v-.12h.24v.12h.14V52.4h.1v-.67c0-.12,0-.19.14-.22a1.06,1.06,0,0,0,.34-.24l.06-.16h.13v-.59l-.29.14s-.07-.13,0-.13.33-.36.33-.36l0,1h.09v.09l.27.25.14.06.07.06.11,0v.9s.07-.06.13,0a1.08,1.08,0,0,1,.11.34v.71h.17v-.26h.17a.84.84,0,0,1,.26-.14.69.69,0,0,1,.37,0h.31a.46.46,0,0,1,.3.12h.17V51.53h.39a.48.48,0,0,1,.11-.31c.11-.1.14-.78.14-.78v.65a.52.52,0,0,0,.18.42v-.26h1.27v1.34h1.17v.26l.46-.24.32.28v1l.75-.69v-.72h.77v-.58h.17v-.2h1.78l.07.28h.19v.16h0v-.24h.12a1.14,1.14,0,0,0,0-.24c0-.13.25-.15.25-.15V50h.09V49.7h.21l.14-.12h.41v.12h.19v.2h1v-.17h.15V49.6h.52v.12h.31V50h.11v.12a.72.72,0,0,1-.13.17c-.07.07.11.21.11.21v.79h.37v.88h.17v-.12h.81V51.1h1.41s.15-.25.28-.25.13.24.13.24h.32v.11h1.93v.18h.09v.78h.59v-.23h.52v-.16h.14V52h.64v-.07h.12v-.29h1.78l.19-.06h.19c.19,0,0,.4,0,.4l.22.08v-.3h.82v-.14h.72v-.22H300v-.14h.36V50.7h.1v-.31l.16-.15v.89a.92.92,0,0,0,.24,0c.14,0,.18.19.18.19h.36V53H302v.13H302v-.28h.22v-.51h1.34v.46h.23V53H304V48.66h.65v-.52h1.75v.48h.65V52h.22v.56h.23v2.2c0,.14.34.15.34.15V54.4h.2v-.16h-.27v-.09h.56v-.28h1.08V54h.19a8.09,8.09,0,0,1,1.22.11c.34.09.34.19.34.19V52h.49v-.15h-.11v-.11h.2v.12h.19v-.14h.18v.18h.08v-.47l-.16.06s0-.1,0-.1a.79.79,0,0,0,.19-.11v.49h.16V52h1.26v3h1.38v.19h.1l.57-4.61h.07s.29-2,.29-2.17.16,0,.16,0l.24,2.18h.09l.22,2.61h.11c.06,0,.07.12.07.12h.58v.84h.19v.18h.13v-.19h.46v.15h1.21V52.92c0-.42.15-.44.15-.44h.21v-.12h.24v.12h.14V52.4h.1v-.67c0-.12,0-.19.14-.22a1.06,1.06,0,0,0,.34-.24l.06-.16h.13v-.59l-.29.14s-.06-.13,0-.13.33-.36.33-.36l.05,1h.08v.09l.28.25.13.06.07.06.11,0v.9s.07-.06.13,0a1.08,1.08,0,0,1,.11.34v.71h.17v-.26h.17a.84.84,0,0,1,.26-.14.69.69,0,0,1,.37,0h.31a.42.42,0,0,1,.29.12h.18V51.53h.4a.52.52,0,0,1,.1-.31c.11-.1.14-.78.14-.78v.65a.52.52,0,0,0,.18.42v-.26h1.27v1.34h1.17v.26l.46-.24.32.28v1l.75-.69v-.72h.77v-.58h.17v-.2h1.78l.07.28h.19v.16h.5v-.2h2.07V54h.17v.14h.28v-.27h.22v-.18h.36V51.85h.11a1.14,1.14,0,0,0,0-.24c0-.13.25-.15.25-.15V50h.1V49.7h.21l.13-.12h.41v.12h.2v.2h1v-.17h.15V49.6h.52v.12h.31V50h.12v.12a.92.92,0,0,1-.14.17c-.07.07.11.21.11.21v.79H339v.88h.17v-.12h.8V51.1h1.41s.15-.25.29-.25.13.24.13.24h.32v.11h1.93v.18h.08v.78h.59v-.23h.53v-.16h.14V52h.63v-.07h.12v-.29H348l.19-.06h.19c.19,0,0,.4,0,.4l.22.08v-.3h.82v-.14h.72v-.22h.39v-.14h.37V50.7h.1v-.31l.15-.15v.89a.92.92,0,0,0,.24,0c.14,0,.18.19.18.19h.37V53h.57v.13h.08v-.28h.21v-.51h1.35v.46h.23V53h.16V48.66h.65v-.52h1.75v.48h.65V52h.23v.56H358v2.2c0,.14.33.15.33.15V54.4h.21v-.16h-.27v-.09h.55v-.28h1.08V54h.19a8,8,0,0,1,1.22.11c.34.09.35.19.35.19V52h.49v-.15h-.11v-.11h.19v.12h.19v-.14h.18v.18h.08v-.47l-.16.06s0-.1,0-.1a1.06,1.06,0,0,0,.19-.11v.49h.16V52h1.25v3h1.39v.19h.1l.56-4.61h.07s.3-2,.3-2.17.15,0,.15,0l.24,2.18h.1l.22,2.61h.11s.06.12.06.12h.58v.84h.2v.18h.12v-.19h.46v.15H370V52.92c0-.42.16-.44.16-.44h.2v-.12h.24v.12h.14V52.4h.1v-.67c0-.12,0-.19.14-.22a1.13,1.13,0,0,0,.35-.24l.06-.16h.13v-.59l-.3.14s-.06-.13,0-.13.33-.36.33-.36l0,1h.08v.09l.28.25.14.06.06.06.11,0v.9s.07-.06.13,0a1.08,1.08,0,0,1,.11.34v.71h.18v-.26h.17a.86.86,0,0,1,.25-.14.73.73,0,0,1,.38,0h.3a.43.43,0,0,1,.3.12h.17V51.53h.4a.48.48,0,0,1,.11-.31c.11-.1.13-.78.13-.78v.65a.52.52,0,0,0,.19.42v-.26h1.27v1.34h1.16v.26l.47-.24.31.28v1l.76-.69v-.72h.76v-.58h.08Z"/><path class="cls-2" d="M192,66.83H.07V49.6l0,0H.51v.12H.7v.2h1v-.17h.15V49.6h.52v.12h.31V50h.11v.12a.72.72,0,0,1-.13.17c-.07.07.11.21.11.21v.79h.37v.88h.17v-.12h.81V51.1H5.53s.15-.25.28-.25.13.24.13.24h.33v.11H8.19v.18h.08v.78h.6v-.23h.52v-.16h.14V52h.64v-.07h.12v-.29h1.78l.19-.06h.19c.19,0,0,.4,0,.4l.22.08v-.3h.82v-.14h.72v-.22h.39v-.14H15V50.7h.1v-.31l.16-.15v.89a.92.92,0,0,0,.24,0c.14,0,.18.19.18.19H16V53h.58v.13h.07v-.28h.22v-.51h1.35v.46h.22V53h.17V48.66h.65v-.52H21v.48h.65V52h.23v.56h.22v2.2c0,.14.34.15.34.15V54.4h.2v-.16h-.27v-.09h.56v-.28H24V54h.19a8.09,8.09,0,0,1,1.22.11c.34.09.34.19.34.19V52h.49v-.15h-.11v-.11h.2v.12h.19v-.14h.18v.18h.08v-.47l-.16.06s0-.1,0-.1a.79.79,0,0,0,.19-.11v.49H27V52h1.26v3h1.38v.19h.1l.57-4.61h.07s.29-2,.29-2.17.16,0,.16,0l.24,2.18h.09l.22,2.61h.11c.06,0,.07.12.07.12h.58v.84h.19v.18h.13v-.19h.46v.15h1.21V52.92c0-.42.15-.44.15-.44h.21v-.12h.24v.12h.14V52.4H35v-.67c0-.12,0-.19.14-.22a1.06,1.06,0,0,0,.34-.24l.06-.16h.13v-.59l-.29.14s-.07-.13,0-.13.33-.36.33-.36l.05,1h.08v.09l.28.25.13.06.07.06.11,0v.9s.07-.06.13,0a1.08,1.08,0,0,1,.11.34v.71h.17v-.26H37a1,1,0,0,1,.26-.14.69.69,0,0,1,.37,0h.31a.43.43,0,0,1,.3.12h.17V51.53h.4a.52.52,0,0,1,.1-.31c.11-.1.14-.78.14-.78v.65a.52.52,0,0,0,.18.42v-.26h1.27v1.34h1.17v.26l.46-.24.32.28v1l.75-.69v-.72H44v-.58h.17v-.2h1.78l.07.28h.2v.16h.49v-.2h2.07V54h.17v.14h.28v-.27h.22v-.18h.36V51.85h.11a1.14,1.14,0,0,0,0-.24c0-.13.25-.15.25-.15V50h.1V49.7h.21l.13-.12H51v.12h.2v.2h1v-.17h.15V49.6h.52v.12h.31V50h.12v.12a.92.92,0,0,1-.14.17c-.06.07.11.21.11.21v.79h.38v.88h.17v-.12h.8V51.1H56s.14-.25.28-.25.13.24.13.24h.32v.11H58.7v.18h.08v.78h.59v-.23h.53v-.16H60V52h.63v-.07h.12v-.29h1.78l.19-.06H63c.19,0,0,.4,0,.4l.22.08v-.3H64v-.14h.72v-.22h.39v-.14h.37V50.7h.1v-.31l.15-.15v.89a.92.92,0,0,0,.24,0c.14,0,.18.19.18.19h.37V53h.57v.13h.07v-.28h.23v-.51h1.34v.46H69V53h.17V48.66h.65v-.52h1.74v.48h.65V52h.23v.56h.23v2.2c0,.14.33.15.33.15V54.4h.21v-.16h-.27v-.09h.55v-.28h1.08V54h.19a8.2,8.2,0,0,1,1.23.11c.33.09.34.19.34.19V52h.49v-.15h-.11v-.11h.2v.12H77v-.14h.18v.18h.08v-.47l-.16.06s0-.1,0-.1a1.06,1.06,0,0,0,.19-.11v.49h.16V52h1.26v3h1.38v.19h.1l.56-4.61h.07s.3-2,.3-2.17.15,0,.15,0l.24,2.18h.1l.22,2.61H82s.06.12.06.12h.59v.84h.19v.18H83v-.19h.46v.15h1.21V52.92c0-.42.16-.44.16-.44H85v-.12h.24v.12h.14V52.4h.11v-.67c0-.12,0-.19.13-.22a1.13,1.13,0,0,0,.35-.24l.06-.16h.13v-.59l-.3.14s-.06-.13,0-.13.33-.36.33-.36l0,1h.09v.09l.27.25.14.06.06.06.12,0v.9a.09.09,0,0,1,.12,0,1.08,1.08,0,0,1,.11.34v.71h.18v-.26h.17a.86.86,0,0,1,.25-.14.73.73,0,0,1,.38,0h.3a.43.43,0,0,1,.3.12h.18V51.53h.39a.48.48,0,0,1,.11-.31c.11-.1.13-.78.13-.78v.65a.52.52,0,0,0,.19.42v-.26H91v1.34h1.16v.26l.47-.24.31.28v1l.76-.69v-.72h.76v-.58h.18v-.2h1.77l.07.28h.2v.16h0v-.24h.12a1.67,1.67,0,0,0,0-.24c0-.13.25-.15.25-.15V50h.1V49.7h.21l.13-.12H98v.12h.2v.2h1v-.17h.16V49.6h.51v.12h.31V50h.12v.12a.72.72,0,0,1-.13.17c-.07.07.11.21.11.21v.79h.37v.88h.17v-.12h.8V51.1H103s.15-.25.28-.25.13.24.13.24h.32v.11h1.93v.18h.08v.78h.59v-.23h.53v-.16H107V52h.63v-.07h.12v-.29h1.78l.19-.06h.19c.19,0,0,.4,0,.4l.22.08v-.3h.82v-.14h.72v-.22h.39v-.14h.37V50.7h.1v-.31l.15-.15v.89a1,1,0,0,0,.24,0c.14,0,.18.19.18.19h.37V53H114v.13h.08v-.28h.22v-.51h1.34v.46h.23V53h.17V48.66h.65v-.52h1.74v.48h.65V52h.23v.56h.23v2.2c0,.14.33.15.33.15V54.4h.21v-.16h-.27v-.09h.55v-.28h1.08V54h.19a8,8,0,0,1,1.22.11c.34.09.35.19.35.19V52h.49v-.15h-.11v-.11h.2v.12H124v-.14h.17v.18h.08v-.47l-.16.06s0-.1,0-.1a1.06,1.06,0,0,0,.19-.11v.49h.16V52h1.26v3h1.38v.19h.1l.56-4.61h.08s.29-2,.29-2.17.15,0,.15,0l.24,2.18h.1l.22,2.61H129c.05,0,.06.12.06.12h.59v.84h.19v.18h.12v-.19h.46v.15h1.22V52.92c0-.42.15-.44.15-.44h.2v-.12h.24v.12h.14V52.4h.11v-.67c0-.12,0-.19.13-.22a1.13,1.13,0,0,0,.35-.24l.06-.16h.13v-.59l-.29.14s-.07-.13,0-.13.33-.36.33-.36l0,1h.09v.09l.27.25.14.06.06.06.12,0v.9a.09.09,0,0,1,.12,0,1.08,1.08,0,0,1,.11.34v.71h.18v-.26h.17a.84.84,0,0,1,.26-.14.69.69,0,0,1,.37,0h.3a.43.43,0,0,1,.3.12h.18V51.53h.39a.48.48,0,0,1,.11-.31c.11-.1.13-.78.13-.78v.65a.52.52,0,0,0,.19.42v-.26H138v1.34h1.16v.26l.47-.24.31.28v1l.76-.69v-.72h.76v-.58h.18v-.2h1.78l.06.28h.2v.16h.49v-.2h2.07V54h.18v.14h.27v-.27h.23v-.18h.35V51.85h.12a1.14,1.14,0,0,0,0-.24c0-.13.25-.15.25-.15V50h.09V49.7h.21l.13-.12h.42v.12h.19v.2h1v-.17h.15V49.6h.52v.12h.3V50h.12v.12a.72.72,0,0,1-.13.17c-.07.07.11.21.11.21v.79h.37v.88h.17v-.12h.81V51.1h1.41s.15-.25.28-.25.13.24.13.24h.32v.11h1.93v.18h.08v.78h.6v-.23h.52v-.16h.14V52h.64v-.07h.12v-.29H160l.19-.06h.19c.19,0,0,.4,0,.4l.22.08v-.3h.82v-.14h.72v-.22h.39v-.14h.36V50.7h.1v-.31l.16-.15v.89a.92.92,0,0,0,.24,0c.14,0,.17.19.17.19H164V53h.58v.13h.07v-.28h.22v-.51h1.34v.46h.23V53h.17V48.66h.65v-.52H169v.48h.65V52h.22v.56h.23v2.2c0,.14.34.15.34.15V54.4h.2v-.16h-.27v-.09h.56v-.28H172V54h.19a8.09,8.09,0,0,1,1.22.11c.34.09.34.19.34.19V52h.49v-.15h-.11v-.11h.2v.12h.19v-.14h.18v.18h.08v-.47l-.17.06s0-.1,0-.1a.79.79,0,0,0,.19-.11v.49H175V52h1.26v3h1.38v.19h.1l.57-4.61h.07s.29-2,.29-2.17.16,0,.16,0l.24,2.18h.09l.22,2.61h.11c.06,0,.07.12.07.12h.58v.84h.19v.18h.13v-.19h.46v.15h1.21V52.92c0-.42.15-.44.15-.44h.21v-.12h.24v.12h.14V52.4h.1v-.67c0-.12,0-.19.14-.22a1.06,1.06,0,0,0,.34-.24l.06-.16h.13v-.59l-.29.14s-.07-.13,0-.13.33-.36.33-.36l0,1h.08v.09l.27.25.14.06.07.06.11,0v.9s.07-.06.13,0a1.08,1.08,0,0,1,.11.34v.71h.17v-.26H185a.84.84,0,0,1,.26-.14.69.69,0,0,1,.37,0h.31a.39.39,0,0,1,.29.12h.18V51.53h.4a.52.52,0,0,1,.1-.31c.11-.1.14-.78.14-.78v.65a.52.52,0,0,0,.18.42v-.26h1.27v1.34h1.17v.26l.46-.24.32.28v1l.75-.69v-.72h.77v-.58H192Z"/><path class="cls-3" d="M285.75,67V54.16h-3v.4h-.35v1.15h-1.53v1.43l-1.5,1.37V56.62l-.63-.56-.92.48V56h-2.32V53.37H273v.51a1,1,0,0,1-.38-.83V51.74s0,1.37-.26,1.57a1,1,0,0,0-.22.61h-.78v3.52H271a.85.85,0,0,0-.59-.24h-.61a1.39,1.39,0,0,0-.74,0,1.73,1.73,0,0,0-.52.29h-.33V58h-.35V56.58a2,2,0,0,0-.22-.67.19.19,0,0,0-.25,0V54.14l-.22-.11-.13-.12-.28-.11-.55-.49v-.18h-.16L266,51.22s-.54.7-.65.7,0,.27,0,.27l.58-.29v1.19h-.26l-.12.3a2.42,2.42,0,0,1-.68.49c-.23.06-.28.2-.28.43v1.33h-.2v.16h-.28v-.22h-.48v.24h-.4s-.31,0-.31.87v2.62h-2.41V59h-.92v.38h-.25V59h-.37V57.35h-1.17s0-.22-.13-.22h-.22L257,51.94h-.19l-.48-4.35s-.31-.3-.31.07-.58,4.32-.58,4.32h-.15l-1.11,9.17H254v-.37h-2.75V54.84h-2.5v-.47h-.32v-1a1.84,1.84,0,0,1-.38.21c-.07,0-.07.2-.07.2l.32-.12v.92h-.16v-.35h-.35v.27h-.38v-.22H247v.21h.22v.29h-1V59.5s0-.2-.68-.39a16,16,0,0,0-2.43-.22h-.38v-.31h-2.15v.55h-1.11v.18H240v.32h-.4V60.7s-.67,0-.67-.3V56h-.45V54.91H238V48.12h-1.3v-.95h-3.48v1H232v8.66h-.34v-.33h-.44v-.91h-2.68v1h-.44v.56h-.14v-.25h-1.15V53.56h-.73s-.07-.38-.35-.38a1.6,1.6,0,0,1-.48-.07V51.35l-.31.29v.63h-.2v1H224v.29h-.77V54h-1.44v.27h-1.62v.61l-.44-.18s.38-.79,0-.79h-.38L219,54h-3.54v.57h-.24v.15h-1.26v-.37h-.28v.33h-1v.45H211.4V53.62h-.16v-.36h-3.83V53h-.65s0-.48-.26-.48-.56.51-.56.51h-2.81v1.87h-1.6v.24h-.34V53.43h-.74V51.87s-.35-.29-.22-.41a2,2,0,0,0,.27-.34v-.26h-.24v-.55h-.61v-.23h-1v.25h-.31v.35h-2v-.4h-.4V50h-.81l-.26.24h-.42v.67h-.19v2.84s-.5,0-.5.29a2,2,0,0,1-.06.47h-.23v3.72h-.7v.35h-.45v.54h-.55v-.28h-.35V54.62H187.3V67Z"/><path class="cls-3" d="M285.34,67c.11-2.54.21-5.18.21-5.18l.09-6.8h1.65v-.31h.4l.13-.56h3.53v.4h.35v1.15h1.53v1.43l1.5,1.37V56.62l.63-.56.92.48V56h2.32V53.37h2.53v.51a1,1,0,0,0,.37-.83V51.74s0,1.37.26,1.57a1,1,0,0,1,.22.61h.78v3.52h.35a.85.85,0,0,1,.59-.24h.61a1.39,1.39,0,0,1,.74,0,1.73,1.73,0,0,1,.52.29h.33V58h.35V56.58a2,2,0,0,1,.22-.67.19.19,0,0,1,.25,0V54.14L307,54l.13-.12.27-.11.55-.49v-.18h.16l.09-1.91s.54.7.66.7,0,.27,0,.27l-.58-.29v1.19h.26l.12.3a2.42,2.42,0,0,0,.68.49c.23.06.28.2.28.43v1.33h.2v.16H310v-.22h.48v.24h.41s.3,0,.3.87v2.62h2.42V59h.91v.38h.25V59h.38V57.35h1.16s0-.22.13-.22h.22l.44-5.19h.19l.47-4.35s.31-.3.31.07.58,4.32.58,4.32h.15L320,61.15h.2v-.37h2.75V54.84h2.5v-.47h.32v-1a1.84,1.84,0,0,0,.38.21c.07,0,.07.2.07.2l-.32-.12v.92H326v-.35h.35v.27h.38v-.22h.39v.21h-.21v.29h1V59.5s0-.2.68-.39a16,16,0,0,1,2.43-.22h.38v-.31h2.15v.55h1.11v.18h-.54v.32h.4V60.7s.67,0,.67-.3V56h.46V54.91h.45V48.12h1.29v-.95h3.48v1h1.29v8.66h.34v-.33h.45v-.91h2.67v1H346v.56h.15v-.25h1.14V53.56h.73s.07-.38.35-.38a1.6,1.6,0,0,0,.48-.07V51.35l.31.29v.63h.2v1h.73v.29h.77V54h1.44v.27H354v.61l.43-.18s-.38-.79,0-.79h.38l.38.13h3.55v.57h.23v.15h1.27v-.37h.27v.33h1v.45h1.18V53.62h.16v-.36h3.84V53h.64s0-.48.26-.48.56.51.56.51H371v1.87h1.6v.24h.34V53.43h.74V51.87s.36-.29.22-.41a1.7,1.7,0,0,1-.26-.34v-.26h.23v-.55h.61v-.23h1v.25h.31v.35h2v-.4h.4V50H379l.26.24h.43v.67h.11V67Z"/><path class="cls-3" d="M191.94,67V54.16h-3v.4h-.35v1.15h-1.53v1.43l-1.5,1.37V56.62l-.63-.56-.92.48V56H181.7V53.37h-2.53v.51a1,1,0,0,1-.37-.83V51.74s0,1.37-.26,1.57a1,1,0,0,0-.22.61h-.78v3.52h-.35a.85.85,0,0,0-.59-.24H176a1.39,1.39,0,0,0-.74,0,1.73,1.73,0,0,0-.52.29h-.33V58h-.35V56.58a2,2,0,0,0-.22-.67.19.19,0,0,0-.25,0V54.14l-.22-.11-.13-.12L173,53.8l-.55-.49v-.18h-.16l-.09-1.91s-.54.7-.65.7,0,.27,0,.27l.58-.29v1.19h-.26l-.12.3a2.42,2.42,0,0,1-.68.49c-.23.06-.28.2-.28.43v1.33h-.2v.16h-.28v-.22h-.48v.24h-.4s-.31,0-.31.87v2.62h-2.41V59h-.92v.38h-.25V59h-.37V57.35H164s0-.22-.13-.22h-.22l-.43-5.19H163l-.48-4.35s-.31-.3-.31.07-.58,4.32-.58,4.32h-.15l-1.12,9.17h-.2v-.37H157.4V54.84h-2.5v-.47h-.32v-1a1.84,1.84,0,0,1-.38.21c-.07,0-.07.2-.07.2l.32-.12v.92h-.16v-.35h-.35v.27h-.38v-.22h-.39v.21h.22v.29h-1V59.5s0-.2-.68-.39a16,16,0,0,0-2.43-.22h-.38v-.31h-2.15v.55h-1.11v.18h.54v.32h-.41V60.7s-.66,0-.66-.3V56h-.45V54.91h-.46V48.12h-1.29v-.95h-3.48v1h-1.29v8.66h-.34v-.33h-.44v-.91H134.7v1h-.44v.56h-.14v-.25H133V53.56h-.73s-.07-.38-.35-.38a1.6,1.6,0,0,1-.48-.07V51.35l-.31.29v.63h-.2v1h-.73v.29h-.77V54H128v.27h-1.63v.61l-.43-.18s.38-.79,0-.79h-.38l-.38.13h-3.55v.57h-.23v.15h-1.27v-.37h-.27v.33h-1v.45h-1.18V53.62h-.16v-.36h-3.84V53H113s0-.48-.26-.48-.56.51-.56.51h-2.81v1.87h-1.6v.24h-.34V53.43h-.74V51.87s-.35-.29-.22-.41a2,2,0,0,0,.27-.34v-.26h-.24v-.55h-.61v-.23h-1v.25h-.31v.35h-2v-.4h-.4V50h-.81l-.26.24h-.43v.67h-.18v2.84s-.5,0-.5.29a2,2,0,0,1-.06.47h-.23v3.72H99v.35h-.45v.54H98v-.28h-.35V54.62H93.49V67Z"/><path class="cls-3" d="M94.46,67c-.1-2.54-.2-5.18-.2-5.18L94.17,55H92.51v-.31h-.39L92,54.16H88.45v.4h-.34v1.15H86.58v1.43l-1.51,1.37V56.62l-.62-.56-.93.48V56H81.21V53.37H78.68v.51a1,1,0,0,1-.37-.83V51.74s0,1.37-.26,1.57a1,1,0,0,0-.22.61H77v3.52H76.7a.86.86,0,0,0-.6-.24h-.6a1.42,1.42,0,0,0-.75,0,1.75,1.75,0,0,0-.51.29H73.9V58h-.35V56.58a2,2,0,0,0-.21-.67.2.2,0,0,0-.26,0V54.14L72.86,54l-.13-.12-.27-.11-.55-.49v-.18h-.17l-.08-1.91s-.54.7-.66.7,0,.27,0,.27l.58-.29v1.19h-.26l-.12.3a2.42,2.42,0,0,1-.68.49c-.24.06-.28.2-.28.43v1.33h-.2v.16h-.28v-.22H69.3v.24h-.41s-.3,0-.3.87v2.62H66.17V59h-.91v.38H65V59h-.38V57.35H63.47s0-.22-.13-.22h-.22l-.44-5.19h-.19L62,47.59s-.3-.3-.3.07S61.13,52,61.13,52H61l-1.12,9.17h-.2v-.37H56.91V54.84h-2.5v-.47h-.32v-1a1.84,1.84,0,0,1-.38.21c-.07,0-.07.2-.07.2L54,53.7v.92H53.8v-.35h-.35v.27h-.38v-.22h-.39v.21h.21v.29h-1V59.5s0-.2-.68-.39a16,16,0,0,0-2.43-.22h-.38v-.31H46.28v.55H45.17v.18h.54v.32H45.3V60.7s-.67,0-.67-.3V56h-.45V54.91h-.45V48.12H42.44v-.95H39v1H37.67v8.66h-.34v-.33h-.45v-.91H34.2v1h-.43v.56h-.15v-.25H32.47V53.56h-.72s-.08-.38-.35-.38a1.6,1.6,0,0,1-.48-.07V51.35l-.32.29v.63h-.19v1h-.73v.29h-.77V54H27.47v.27H25.84v.61l-.43-.18s.37-.79,0-.79H25l-.38.13H21.1v.57h-.23v.15H19.6v-.37h-.27v.33h-1v.45H17.1V53.62h-.16v-.36H13.1V53h-.64s0-.48-.26-.48-.56.51-.56.51H8.82v1.87H7.23v.24H6.89V53.43H6.15V51.87s-.36-.29-.22-.41a1.7,1.7,0,0,0,.26-.34v-.26H6v-.55H5.35v-.23h-1v.25H4v.35H2v-.4H1.64V50H.83l-.27.24H.14v.67H0V67Z"/><path class="cls-4" d="M379.88,63.11h-.29V62.9h-.27l-.08-.37h-2.37v.26h-.23v.77h-1v1l-1,.92V64.18l-.41-.38-.62.32v-.34H372V62h-1.69v.34a.67.67,0,0,1-.25-.55v-.88s0,.92-.18,1.05a.65.65,0,0,0-.14.41h-.53v2.35H369a.57.57,0,0,0-.39-.16h-.41a1,1,0,0,0-.5,0,1.09,1.09,0,0,0-.34.19h-.23v.34h-.23v-.94a1.38,1.38,0,0,0-.15-.45.12.12,0,0,0-.17,0V62.52l-.14-.08-.09-.08-.19-.07-.36-.33v-.12h-.11l-.06-1.28s-.36.47-.44.47,0,.18,0,.18l.39-.2v.8h-.17l-.08.21a1.52,1.52,0,0,1-.46.32c-.15,0-.18.14-.18.29v.89h-.14v.11h-.19v-.15h-.32v.16h-.27s-.2,0-.2.58V66H362v-.2h-.61V66h-.17v-.25h-.25V64.66h-.78s0-.15-.08-.15h-.15L359.64,61h-.13l-.32-2.9s-.2-.21-.2,0-.39,2.89-.39,2.89h-.1l-.75,6.13h-.13V67h-1.84V63H354.1v-.31h-.21V62a1.37,1.37,0,0,1-.25.15c-.05,0-.05.13-.05.13l.21-.08v.62h-.11V62.6h-.23v.19h-.25v-.15H353v.14h.14V63h-.65V66.1s0-.14-.46-.26a10.72,10.72,0,0,0-1.62-.15h-.25v-.2h-1.44v.36h-.74V66h.36v.22H348v.71s-.44,0-.44-.2V63.78h-.31V63H347V58.49h-.86v-.64h-2.33v.69h-.86v5.8h-.23v-.23h-.3V63.5h-1.79v.68h-.29v.37h-.1v-.17h-.77V62.13H339s-.05-.26-.24-.26a1.29,1.29,0,0,1-.32,0V60.65l-.21.19v.42h-.13v.68h-.48v.19h-.52v.29h-1v.18H335V63l-.29-.12s.25-.53,0-.53h-.26l-.25.09h-2.37v.38h-.16v.1h-.84v-.25h-.19v.22h-.7v.3h-.79v-1h-.1v-.24h-2.57v-.15h-.43s0-.32-.17-.32-.38.34-.38.34h-1.88v1.25h-1.07v.16h-.22V62h-.5V61s-.24-.19-.15-.28a.87.87,0,0,0,.18-.23v-.17h-.16V60h-.41V59.8h-.69V60h-.2v.23h-1.32v-.27h-.27v-.16h-.54l-.18.16h-.28v.45h-.12v1.89s-.33,0-.33.2a1.4,1.4,0,0,1,0,.32h-.16v2.48h-.47v.23h0v8.34h63.2Z"/><path class="cls-4" d="M317.34,73.84V63.11h-.23V62.9h-.26l-.09-.37H314.4v.26h-.24v.77h-1v1l-1,.92V64.18l-.41-.38-.62.32v-.34h-1.55V62h-1.69v.34a.67.67,0,0,1-.25-.55v-.88s0,.92-.17,1.05a.62.62,0,0,0-.15.41h-.53v2.35h-.23a.57.57,0,0,0-.39-.16h-.41a1,1,0,0,0-.5,0,1.09,1.09,0,0,0-.34.19h-.23v.34h-.23v-.94a1.38,1.38,0,0,0-.15-.45.11.11,0,0,0-.16,0V62.52l-.15-.08-.09-.08-.18-.07-.37-.33v-.12h-.11l-.06-1.28s-.36.47-.44.47,0,.18,0,.18l.39-.2v.8H303l-.08.21a1.52,1.52,0,0,1-.46.32c-.15,0-.18.14-.18.29v.89h-.14v.11h-.18v-.15h-.33v.16h-.27s-.2,0-.2.58V66h-1.62v-.2h-.61V66h-.16v-.25h-.26V64.66h-.78s0-.15-.08-.15h-.15L297.16,61H297l-.32-2.9s-.2-.21-.2,0-.39,2.89-.39,2.89H296l-.75,6.13h-.14V67H293.3V63h-1.68v-.31h-.21V62a1.09,1.09,0,0,1-.25.15c-.05,0-.05.13-.05.13l.21-.08v.62h-.1V62.6H291v.19h-.25v-.15h-.26v.14h.14V63H290V66.1s0-.14-.46-.26a10.72,10.72,0,0,0-1.62-.15h-.25v-.2h-1.44v.36h-.74V66h.36v.22h-.27v.71s-.45,0-.45-.2V63.78h-.3V63h-.31V58.49h-.86v-.64h-2.33v.69h-.86v5.8h-.23v-.23h-.3V63.5h-1.79v.68h-.29v.37h-.1v-.17H277V62.13h-.49s-.05-.26-.23-.26a1.19,1.19,0,0,1-.32,0V60.65l-.21.19v.42h-.13v.68h-.49v.19h-.52v.29h-1v.18h-1.09V63l-.29-.12s.25-.53,0-.53H272l-.26.09h-2.37v.38h-.16v.1h-.84v-.25h-.19v.22h-.7v.3h-.79v-1h-.1v-.24H264v-.15h-.43s0-.32-.17-.32-.38.34-.38.34h-1.88v1.25h-1.07v.16h-.22V62h-.5V61s-.24-.19-.15-.28a.87.87,0,0,0,.18-.23v-.17h-.16V60h-.4V59.8h-.69V60h-.21v.23H256.6v-.27h-.27v-.16h-.54l-.17.16h-.29v.45h-.12v1.89s-.33,0-.33.2a1.4,1.4,0,0,1,0,.32h-.16v2.48h-.47v.23h-.3v.37h-.37v-.19h-.23V62.84h-2.75v11Z"/><path class="cls-4" d="M182.67,73.84h68.64c-.06-1.44-.26-6.18-.26-6.18L251,63.11h-1.2V62.9h-.28l-.1-.37h-2.56v.26h-.25v.77h-1.11v1l-1.09.92V64.18l-.45-.38-.67.32v-.34h-1.68V62h-1.83v.34a.66.66,0,0,1-.27-.55v-.88s0,.92-.19,1.05a.6.6,0,0,0-.16.41h-.57v2.35h-.25a.64.64,0,0,0-.43-.16h-.44a1.1,1.1,0,0,0-.54,0,1.39,1.39,0,0,0-.37.19h-.24v.34H236v-.94a1.38,1.38,0,0,0-.15-.45.15.15,0,0,0-.19,0V62.52l-.16-.08-.09-.08-.2-.07-.4-.33v-.12h-.12l-.06-1.28s-.39.47-.48.47,0,.18,0,.18l.42-.2v.8h-.19l-.09.21a1.63,1.63,0,0,1-.49.32c-.17,0-.2.14-.2.29v.89h-.15v.11h-.2v-.15H233v.16h-.29s-.22,0-.22.58V66H230.7v-.2H230V66h-.18v-.25h-.27V64.66h-.84s0-.15-.1-.15h-.16L228.17,61H228l-.35-2.9s-.22-.21-.22,0-.42,2.89-.42,2.89h-.11l-.81,6.13H226V67h-2V63h-1.81v-.31h-.23V62a1.17,1.17,0,0,1-.28.15s0,.13,0,.13l.23-.08v.62h-.11V62.6h-.26v.19h-.27v-.15h-.28v.14h.15V63h-.7V66.1s0-.14-.5-.26a12.65,12.65,0,0,0-1.76-.15h-.27v-.2h-1.56v.36h-.8V66h.39v.22h-.3v.71s-.48,0-.48-.2V63.78h-.33V63h-.33V58.49h-.93v-.64H211v.69H210v5.8h-.24v-.23h-.33V63.5h-1.94v.68h-.32v.37h-.1v-.17h-.83V62.13h-.53s-.05-.26-.25-.26a1.5,1.5,0,0,1-.35,0V60.65l-.23.19v.42h-.14v.68h-.53v.19h-.56v.29h-1v.18h-1.18V63l-.32-.12s.28-.53,0-.53h-.27l-.27.09H198v.38h-.16v.1H197v-.25h-.2v.22H196v.3h-.86v-1H195v-.24h-2.78v-.15h-.47s0-.32-.19-.32-.4.34-.4.34h-2v1.25H188v.16h-.24V62h-.54V61s-.26-.19-.16-.28a1,1,0,0,0,.19-.23v-.17h-.17V60h-.44V59.8h-.75V60h-.22v.23h-1.43v-.27h-.29v-.16h-.59l-.19.16h-.3v.45h-.14v1.89h0Z"/><path class="cls-4" d="M.12,63.11H.41V62.9H.68l.08-.37H3.13v.26h.23v.77h1v1l1,.92V64.18l.41-.38.62.32v-.34H8V62H9.66v.34a.67.67,0,0,0,.25-.55v-.88s0,.92.18,1.05a.65.65,0,0,1,.14.41h.53v2.35H11a.57.57,0,0,1,.39-.16h.41a1,1,0,0,1,.5,0,1.09,1.09,0,0,1,.34.19h.23v.34h.23v-.94a1.38,1.38,0,0,1,.15-.45.12.12,0,0,1,.17,0V62.52l.14-.08.09-.08.19-.07.36-.33v-.12h.11l.06-1.28s.36.47.44.47,0,.18,0,.18L14.4,61v.8h.17l.08.21a1.52,1.52,0,0,0,.46.32c.16,0,.18.14.18.29v.89h.14v.11h.19v-.15h.32v.16h.27s.2,0,.2.58V66H18v-.2h.61V66h.17v-.25h.25V64.66h.78s0-.15.08-.15h.15L20.36,61h.13l.32-2.9s.2-.21.2,0,.39,2.89.39,2.89h.1l.75,6.13h.14V67h1.83V63H25.9v-.31h.21V62a1.37,1.37,0,0,0,.25.15c.05,0,.05.13.05.13l-.21-.08v.62h.11V62.6h.23v.19h.25v-.15h.26v.14h-.14V63h.65V66.1s0-.14.46-.26a10.72,10.72,0,0,1,1.62-.15h.25v-.2h1.44v.36h.74V66h-.36v.22H32v.71s.44,0,.44-.2V63.78h.31V63H33V58.49h.86v-.64h2.33v.69h.86v5.8h.23v-.23h.3V63.5h1.79v.68h.29v.37h.1v-.17h.77V62.13h.48s.05-.26.24-.26a1.29,1.29,0,0,0,.32,0V60.65l.21.19v.42H42v.68h.48v.19H43v.29h1v.18H45V63l.29-.12s-.25-.53,0-.53h.26l.25.09h2.37v.38h.16v.1h.84v-.25h.19v.22h.7v.3h.79v-1H51v-.24h2.57v-.15H54s0-.32.17-.32.38.34.38.34h1.88v1.25h1.07v.16h.22V62h.5V61s.24-.19.15-.28a.87.87,0,0,1-.18-.23v-.17h.16V60h.41V59.8h.69V60h.2v.23h1.32v-.27h.27v-.16h.54l.18.16h.28v.45h.12v1.89s.34,0,.34.2a1.84,1.84,0,0,0,0,.32h.16v2.48h.47v.23h0v8.34H.12Z"/><path class="cls-4" d="M62.66,73.84V63.11h.23V62.9h.26l.09-.37H65.6v.26h.24v.77h1v1l1,.92V64.18l.41-.38.62.32v-.34h1.55V62h1.69v.34a.67.67,0,0,0,.25-.55v-.88s0,.92.17,1.05a.62.62,0,0,1,.15.41h.53v2.35h.23a.57.57,0,0,1,.39-.16h.41a1,1,0,0,1,.5,0,1.09,1.09,0,0,1,.34.19h.23v.34h.23v-.94a1.38,1.38,0,0,1,.15-.45.11.11,0,0,1,.16,0V62.52l.15-.08.09-.08.19-.07.36-.33v-.12h.11l.06-1.28s.36.47.44.47,0,.18,0,.18l-.39-.2v.8h.17l.08.21a1.52,1.52,0,0,0,.46.32c.15,0,.18.14.18.29v.89h.14v.11h.18v-.15h.33v.16h.27s.2,0,.2.58V66h1.62v-.2h.61V66h.16v-.25h.26V64.66h.78s0-.15.08-.15h.15L82.84,61H83l.32-2.9s.2-.21.2,0,.39,2.89.39,2.89H84l.75,6.13h.13V67H86.7V63h1.68v-.31h.21V62a1.09,1.09,0,0,0,.25.15s0,.13,0,.13l-.21-.08v.62h.1V62.6H89v.19h.25v-.15h.26v.14h-.14V63H90V66.1s0-.14.46-.26a10.72,10.72,0,0,1,1.62-.15h.25v-.2h1.44v.36h.74V66h-.36v.22h.28v.71s.44,0,.44-.2V63.78h.3V63h.31V58.49h.86v-.64h2.33v.69h.86v5.8h.23v-.23h.3V63.5h1.79v.68h.29v.37h.1v-.17H103V62.13h.49s0-.26.23-.26a1.33,1.33,0,0,0,.33,0V60.65l.2.19v.42h.14v.68h.48v.19h.52v.29h1v.18h1.09V63l.29-.12s-.25-.53,0-.53H108l.26.09h2.37v.38h.16v.1h.84v-.25h.19v.22h.7v.3h.79v-1h.1v-.24H116v-.15h.43s0-.32.17-.32.38.34.38.34h1.88v1.25h1.07v.16h.22V62h.5V61s.24-.19.15-.28a.87.87,0,0,1-.18-.23v-.17h.16V60h.41V59.8h.69V60h.2v.23h1.32v-.27h.26v-.16h.55l.17.16h.29v.45h.12v1.89s.33,0,.33.2a1.4,1.4,0,0,0,0,.32h.16v2.48h.47v.23h.3v.37h.37v-.19h.23V62.84h2.75v11Z"/><path class="cls-4" d="M192,73.84H128.69c.05-1.44.24-6.18.24-6.18l.06-4.55h1.11V62.9h.26l.09-.37h2.36v.26h.24v.77h1v1l1,.92V64.18l.42-.38.62.32v-.34h1.55V62h1.69v.34a.67.67,0,0,0,.25-.55v-.88s0,.92.17,1.05a.62.62,0,0,1,.15.41h.52v2.35h.24a.54.54,0,0,1,.39-.16h.41a1,1,0,0,1,.5,0,1.28,1.28,0,0,1,.34.19h.22v.34h.24v-.94a1.31,1.31,0,0,1,.14-.45.12.12,0,0,1,.17,0V62.52l.15-.08.09-.08.18-.07.37-.33v-.12H144l.06-1.28s.36.47.44.47,0,.18,0,.18l-.39-.2v.8h.17l.08.21a1.52,1.52,0,0,0,.46.32c.15,0,.18.14.18.29v.89h.14v.11h.18v-.15h.32v.16h.28s.2,0,.2.58V66h1.61v-.2h.62V66h.16v-.25h.26V64.66h.77s0-.15.09-.15h.15l.29-3.47h.13l.32-2.9s.2-.21.2,0,.39,2.89.39,2.89h.1l.75,6.13h.13V67h1.84V63h1.67v-.31h.22V62a1.09,1.09,0,0,0,.25.15s0,.13,0,.13l-.22-.08v.62H156V62.6h.24v.19h.25v-.15h.26v.14h-.14V63h.65V66.1s0-.14.45-.26a10.92,10.92,0,0,1,1.63-.15h.25v-.2H161v.36h.74V66h-.36v.22h.27v.71s.45,0,.45-.2V63.78h.3V63h.3V58.49h.87v-.64h2.32v.69h.87v5.8H167v-.23h.3V63.5h1.79v.68h.3v.37h.09v-.17h.77V62.13h.49s0-.26.23-.26a1.19,1.19,0,0,0,.32,0V60.65l.21.19v.42h.13v.68h.49v.19h.51v.29h1v.18h1.09V63l.29-.12s-.25-.53,0-.53h.25l.25.09h2.38v.38H178v.1h.85v-.25H179v.22h.71v.3h.78v-1h.11v-.24h2.57v-.15h.43s0-.32.17-.32.37.34.37.34h1.89v1.25h1.07v.16h.22V62h.5V61s.24-.19.14-.28a1,1,0,0,1-.17-.23v-.17H188V60h.41V59.8h.69V60h.21v.23h1.32v-.27h.26v-.16h.55l.17.16h.28v.45H192v1.89h0Z"/></g></g></svg>