<svg xmlns="http://www.w3.org/2000/svg" viewBox="0 0 2081.51 126.62"><defs><style>.cls-1{fill:#fcefe3;}.cls-2{fill:#ffc73f;}.cls-3{fill:#edb22f;}.cls-4{fill:#ba2029;}.cls-5{fill:#dc2727;}</style></defs><title>Asset 2</title><g id="Layer_2" data-name="Layer 2"><g id="OBJECTS"><path class="cls-1" d="M255.4,0A79.62,79.62,0,1,0,390.13,0Z"/><path class="cls-2" d="M384.6,0A75,75,0,1,1,260.92,0H250.06a84.21,84.21,0,1,0,145.4,0Z"/><path class="cls-1" d="M362.23,0H283.29a58,58,0,1,0,78.94,0Z"/><path class="cls-2" d="M355.09,0a53.37,53.37,0,1,1-64.66,0H276.85a62.55,62.55,0,1,0,91.81,0Z"/><path class="cls-1" d="M285.14,42.42A37.62,37.62,0,1,1,322.76,80,37.62,37.62,0,0,1,285.14,42.42Z"/><path class="cls-2" d="M322.76.22a42.2,42.2,0,1,1-42.21,42.2A42.26,42.26,0,0,1,322.76.22Zm0,75.23a33,33,0,1,0-33-33A33.07,33.07,0,0,0,322.76,75.45Z"/><path class="cls-1" d="M96.16,0A79.62,79.62,0,1,0,230.89,0Z"/><path class="cls-3" d="M225.37,0A75,75,0,1,1,101.68,0H90.83A84.21,84.21,0,1,0,236.22,0Z"/><path class="cls-1" d="M203,0H124.05A58,58,0,1,0,203,0Z"/><path class="cls-3" d="M195.85,0a53.36,53.36,0,1,1-64.66,0H117.62a62.54,62.54,0,1,0,91.81,0Z"/><path class="cls-1" d="M125.91,42.42A37.62,37.62,0,1,1,163.52,80,37.61,37.61,0,0,1,125.91,42.42Z"/><path class="cls-3" d="M163.52.22a42.2,42.2,0,1,1-42.2,42.2A42.26,42.26,0,0,1,163.52.22Zm0,75.23a33,33,0,1,0-33-33A33.08,33.08,0,0,0,163.52,75.45Z"/><circle class="cls-1" cx="163.52" cy="42.42" r="19.3"/><path class="cls-3" d="M163.52,18.53a23.89,23.89,0,1,1-23.88,23.89A23.92,23.92,0,0,1,163.52,18.53Zm0,38.6a14.71,14.71,0,1,0-14.71-14.71A14.73,14.73,0,0,0,163.52,57.13Z"/><path class="cls-2" d="M322.52,18.53a23.89,23.89,0,1,1-23.88,23.88A23.92,23.92,0,0,1,322.52,18.53Zm0,38.59a14.71,14.71,0,1,0-14.71-14.71A14.73,14.73,0,0,0,322.52,57.12Z"/><path class="cls-1" d="M163.84,0c0,.24,0,.48,0,.72a79.62,79.62,0,0,0,159.24,0c0-.24,0-.48,0-.72Z"/><path class="cls-4" d="M318.45,0c0,.24,0,.48,0,.72a75,75,0,0,1-150.06,0c0-.24,0-.48,0-.72h-9.18c0,.24,0,.48,0,.72a84.21,84.21,0,1,0,168.41,0c0-.24,0-.48,0-.72Z"/><path class="cls-1" d="M185.5,0c0,.24,0,.48,0,.72a58,58,0,0,0,58,58A57.94,57.94,0,0,0,301.39.72c0-.24,0-.48,0-.72Z"/><path class="cls-4" d="M296.79,0c0,.24,0,.48,0,.72a53.37,53.37,0,1,1-106.73,0c0-.24,0-.48,0-.72h-9.18c0,.24,0,.48,0,.72A62.55,62.55,0,0,0,306,.72c0-.24,0-.48,0-.72Z"/><path class="cls-1" d="M205.84,0c0,.24,0,.48,0,.72a37.62,37.62,0,0,0,75.24,0c0-.24,0-.48,0-.72Z"/><path class="cls-4" d="M276.45,0c0,.24,0,.48,0,.72a33,33,0,0,1-66.06,0c0-.24,0-.48,0-.72h-9.18c0,.24,0,.48,0,.72a42.21,42.21,0,0,0,84.42,0c0-.24,0-.48,0-.72Z"/><path class="cls-1" d="M224.18,0c0,.24,0,.48,0,.72A19.31,19.31,0,0,0,243.44,20,19.29,19.29,0,0,0,262.73.72c0-.24,0-.48,0-.72Z"/><path class="cls-4" d="M258.11,0c0,.24,0,.48,0,.72a14.71,14.71,0,1,1-29.42,0c0-.24,0-.48,0-.72h-9.2c0,.24,0,.48,0,.72A23.91,23.91,0,0,0,243.44,24.6,23.9,23.9,0,0,0,267.32.72c0-.24,0-.48,0-.72Z"/><path class="cls-1" d="M4.61,0c0,.24,0,.48,0,.72a79.62,79.62,0,1,0,159.23,0c0-.24,0-.48,0-.72Z"/><path class="cls-5" d="M159.22,0c0,.24,0,.48,0,.72a75.12,75.12,0,0,1-75,75,75.11,75.11,0,0,1-75-75c0-.24,0-.48,0-.72H0C0,.24,0,.48,0,.72a84.21,84.21,0,1,0,168.41,0c0-.24,0-.48,0-.72Z"/><path class="cls-1" d="M26.27,0c0,.24,0,.48,0,.72a58,58,0,0,0,115.91,0c0-.24,0-.48,0-.72Z"/><path class="cls-5" d="M137.55,0c0,.24,0,.48,0,.72A53.37,53.37,0,1,1,30.83.72c0-.24,0-.48,0-.72H21.68c0,.24,0,.48,0,.72a62.54,62.54,0,0,0,125.08,0c0-.24,0-.48,0-.72Z"/><path class="cls-1" d="M46.6,0c0,.24,0,.48,0,.72a37.62,37.62,0,1,0,75.23,0c0-.24,0-.48,0-.72Z"/><path class="cls-5" d="M117.22,0c0,.24,0,.48,0,.72a33,33,0,0,1-66.07,0c0-.24,0-.48,0-.72H42c0,.24,0,.48,0,.72a42.21,42.21,0,0,0,84.41,0c0-.24,0-.48,0-.72Z"/><path class="cls-1" d="M64.94,0c0,.24,0,.48,0,.72a19.3,19.3,0,1,0,38.6,0c0-.24,0-.48,0-.72Z"/><path class="cls-5" d="M98.87,0c0,.24,0,.48,0,.72a14.71,14.71,0,1,1-29.42,0c0-.24,0-.48,0-.72H60.34c0,.24,0,.48,0,.72a23.89,23.89,0,0,0,47.77,0c0-.24,0-.48,0-.72Z"/><path class="cls-1" d="M574.12,0A79.62,79.62,0,1,0,708.85,0Z"/><path class="cls-2" d="M703.33,0A75,75,0,1,1,579.64,0H568.78a84.21,84.21,0,1,0,145.4,0Z"/><path class="cls-1" d="M681,0H602A58,58,0,1,0,681,0Z"/><path class="cls-2" d="M673.81,0a53.37,53.37,0,1,1-64.66,0H595.57a62.55,62.55,0,1,0,91.81,0Z"/><path class="cls-1" d="M603.86,42.42A37.62,37.62,0,1,1,641.48,80,37.62,37.62,0,0,1,603.86,42.42Z"/><path class="cls-2" d="M641.48.22a42.2,42.2,0,1,1-42.21,42.2A42.26,42.26,0,0,1,641.48.22Zm0,75.23a33,33,0,1,0-33-33A33.07,33.07,0,0,0,641.48,75.45Z"/><path class="cls-1" d="M414.88,0A79.62,79.62,0,1,0,549.61,0Z"/><path class="cls-3" d="M544.09,0A75,75,0,1,1,420.4,0H409.55A84.21,84.21,0,1,0,554.94,0Z"/><path class="cls-1" d="M521.71,0H442.77a58,58,0,1,0,78.94,0Z"/><path class="cls-3" d="M514.57,0a53.36,53.36,0,1,1-64.66,0H436.34a62.54,62.54,0,1,0,91.81,0Z"/><path class="cls-1" d="M444.63,42.42A37.62,37.62,0,1,1,482.24,80,37.61,37.61,0,0,1,444.63,42.42Z"/><path class="cls-3" d="M482.24.22A42.2,42.2,0,1,1,440,42.42,42.26,42.26,0,0,1,482.24.22Zm0,75.23a33,33,0,1,0-33-33A33.08,33.08,0,0,0,482.24,75.45Z"/><circle class="cls-1" cx="482.24" cy="42.42" r="19.3"/><path class="cls-3" d="M482.24,18.53a23.89,23.89,0,1,1-23.88,23.89A23.92,23.92,0,0,1,482.24,18.53Zm0,38.6a14.71,14.71,0,1,0-14.71-14.71A14.73,14.73,0,0,0,482.24,57.13Z"/><path class="cls-2" d="M641.24,18.53a23.89,23.89,0,1,1-23.88,23.88A23.92,23.92,0,0,1,641.24,18.53Zm0,38.59a14.71,14.71,0,1,0-14.71-14.71A14.73,14.73,0,0,0,641.24,57.12Z"/><path class="cls-1" d="M482.56,0c0,.24,0,.48,0,.72a79.62,79.62,0,0,0,159.24,0c0-.24,0-.48,0-.72Z"/><path class="cls-4" d="M637.17,0c0,.24,0,.48,0,.72a75,75,0,0,1-150.06,0c0-.24,0-.48,0-.72H478c0,.24,0,.48,0,.72a84.21,84.21,0,1,0,168.41,0c0-.24,0-.48,0-.72Z"/><path class="cls-1" d="M504.22,0c0,.24,0,.48,0,.72a58,58,0,0,0,58,58,57.94,57.94,0,0,0,58-57.95c0-.24,0-.48,0-.72Z"/><path class="cls-4" d="M615.51,0c0,.24,0,.48,0,.72a53.37,53.37,0,1,1-106.73,0c0-.24,0-.48,0-.72h-9.18c0,.24,0,.48,0,.72A62.54,62.54,0,0,0,624.7.72c0-.24,0-.48,0-.72Z"/><path class="cls-1" d="M524.56,0c0,.24,0,.48,0,.72a37.62,37.62,0,0,0,75.24,0c0-.24,0-.48,0-.72Z"/><path class="cls-4" d="M595.17,0c0,.24,0,.48,0,.72a33,33,0,0,1-66.06,0c0-.24,0-.48,0-.72H520c0,.24,0,.48,0,.72a42.21,42.21,0,0,0,84.42,0c0-.24,0-.48,0-.72Z"/><path class="cls-1" d="M542.9,0c0,.24,0,.48,0,.72A19.31,19.31,0,0,0,562.16,20,19.29,19.29,0,0,0,581.45.72c0-.24,0-.48,0-.72Z"/><path class="cls-4" d="M576.83,0c0,.24,0,.48,0,.72a14.71,14.71,0,0,1-29.42,0c0-.24,0-.48,0-.72h-9.2c0,.24,0,.48,0,.72A23.91,23.91,0,0,0,562.16,24.6,23.9,23.9,0,0,0,586,.72c0-.24,0-.48,0-.72Z"/><path class="cls-1" d="M323.33,0c0,.24,0,.48,0,.72a79.62,79.62,0,1,0,159.23,0c0-.24,0-.48,0-.72Z"/><path class="cls-5" d="M477.94,0c0,.24,0,.48,0,.72a75.12,75.12,0,0,1-75,75,75.11,75.11,0,0,1-75-75c0-.24,0-.48,0-.72h-9.17c0,.24,0,.48,0,.72a84.21,84.21,0,1,0,168.41,0c0-.24,0-.48,0-.72Z"/><path class="cls-1" d="M345,0c0,.24,0,.48,0,.72a58,58,0,0,0,115.91,0c0-.24,0-.48,0-.72Z"/><path class="cls-5" d="M456.27,0c0,.24,0,.48,0,.72a53.37,53.37,0,1,1-106.73,0c0-.24,0-.48,0-.72H340.4c0,.24,0,.48,0,.72a62.54,62.54,0,1,0,125.08,0c0-.24,0-.48,0-.72Z"/><path class="cls-1" d="M365.32,0c0,.24,0,.48,0,.72a37.62,37.62,0,1,0,75.23,0c0-.24,0-.48,0-.72Z"/><path class="cls-5" d="M435.94,0c0,.24,0,.48,0,.72a33,33,0,0,1-66.07,0c0-.24,0-.48,0-.72h-9.17c0,.24,0,.48,0,.72a42.21,42.21,0,0,0,84.41,0c0-.24,0-.48,0-.72Z"/><path class="cls-1" d="M383.66,0c0,.24,0,.48,0,.72a19.3,19.3,0,1,0,38.59,0c0-.24,0-.48,0-.72Z"/><path class="cls-5" d="M417.59,0c0,.24,0,.48,0,.72a14.71,14.71,0,1,1-29.42,0c0-.24,0-.48,0-.72h-9.19c0,.24,0,.48,0,.72a23.89,23.89,0,0,0,47.77,0c0-.24,0-.48,0-.72Z"/><path class="cls-1" d="M893.34,0a79.62,79.62,0,1,0,134.73,0Z"/><path class="cls-2" d="M1022.55,0A75,75,0,1,1,898.86,0H888A84.21,84.21,0,1,0,1033.4,0Z"/><path class="cls-1" d="M1000.17,0H921.23a58,58,0,1,0,78.94,0Z"/><path class="cls-2" d="M993,0a53.37,53.37,0,1,1-64.66,0H914.8a62.54,62.54,0,1,0,91.8,0Z"/><path class="cls-1" d="M923.08,42.42A37.62,37.62,0,1,1,960.7,80,37.62,37.62,0,0,1,923.08,42.42Z"/><path class="cls-2" d="M960.7.22a42.2,42.2,0,1,1-42.2,42.2A42.26,42.26,0,0,1,960.7.22Zm0,75.23a33,33,0,1,0-33-33A33.07,33.07,0,0,0,960.7,75.45Z"/><path class="cls-1" d="M734.1,0A79.63,79.63,0,1,0,868.83,0Z"/><path class="cls-3" d="M863.31,0A75,75,0,1,1,739.62,0H728.77A84.21,84.21,0,1,0,874.16,0Z"/><path class="cls-1" d="M840.94,0H762a58,58,0,1,0,78.94,0Z"/><path class="cls-3" d="M833.79,0a53.36,53.36,0,1,1-64.66,0H755.56a62.55,62.55,0,1,0,91.81,0Z"/><path class="cls-1" d="M763.85,42.42A37.62,37.62,0,1,1,801.46,80,37.61,37.61,0,0,1,763.85,42.42Z"/><path class="cls-3" d="M801.46.22a42.2,42.2,0,1,1-42.2,42.2A42.25,42.25,0,0,1,801.46.22Zm0,75.23a33,33,0,1,0-33-33A33.07,33.07,0,0,0,801.46,75.45Z"/><circle class="cls-1" cx="801.46" cy="42.42" r="19.3"/><path class="cls-3" d="M801.46,18.53a23.89,23.89,0,1,1-23.88,23.89A23.92,23.92,0,0,1,801.46,18.53Zm0,38.6a14.71,14.71,0,1,0-14.7-14.71A14.73,14.73,0,0,0,801.46,57.13Z"/><path class="cls-2" d="M960.46,18.53a23.89,23.89,0,1,1-23.88,23.88A23.92,23.92,0,0,1,960.46,18.53Zm0,38.59a14.71,14.71,0,1,0-14.7-14.71A14.73,14.73,0,0,0,960.46,57.12Z"/><path class="cls-1" d="M801.78,0c0,.24,0,.48,0,.72A79.62,79.62,0,1,0,961,.72c0-.24,0-.48,0-.72Z"/><path class="cls-4" d="M956.39,0c0,.24,0,.48,0,.72a75.11,75.11,0,0,1-75,75,75.12,75.12,0,0,1-75-75c0-.24,0-.48,0-.72H797.2c0,.24,0,.48,0,.72a84.21,84.21,0,1,0,168.41,0c0-.24,0-.48,0-.72Z"/><path class="cls-1" d="M823.44,0c0,.24,0,.48,0,.72a58,58,0,0,0,58,58,57.94,57.94,0,0,0,58-57.95c0-.24,0-.48,0-.72Z"/><path class="cls-4" d="M934.73,0c0,.24,0,.48,0,.72A53.37,53.37,0,0,1,828,.72c0-.24,0-.48,0-.72h-9.17c0,.24,0,.48,0,.72a62.54,62.54,0,1,0,125.08,0c0-.24,0-.48,0-.72Z"/><path class="cls-1" d="M843.78,0c0,.24,0,.48,0,.72A37.62,37.62,0,0,0,919,.72c0-.24,0-.48,0-.72Z"/><path class="cls-4" d="M914.4,0c0,.24,0,.48,0,.72a33.06,33.06,0,0,1-33,33,33.08,33.08,0,0,1-33-33c0-.24,0-.48,0-.72h-9.18c0,.24,0,.48,0,.72a42.21,42.21,0,0,0,84.41,0c0-.24,0-.48,0-.72Z"/><path class="cls-1" d="M862.12,0c0,.24,0,.48,0,.72a19.3,19.3,0,1,0,38.6,0c0-.24,0-.48,0-.72Z"/><path class="cls-4" d="M896.05,0c0,.24,0,.48,0,.72a14.71,14.71,0,1,1-29.42,0c0-.24,0-.48,0-.72h-9.2c0,.24,0,.48,0,.72a23.88,23.88,0,1,0,47.76,0c0-.24,0-.48,0-.72Z"/><path class="cls-1" d="M642.55,0c0,.24,0,.48,0,.72a79.61,79.61,0,0,0,79.61,79.62A79.62,79.62,0,0,0,801.77.72c0-.24,0-.48,0-.72Z"/><path class="cls-5" d="M797.16,0c0,.24,0,.48,0,.72a75,75,0,1,1-150.06,0c0-.24,0-.48,0-.72H638c0,.24,0,.48,0,.72a84.21,84.21,0,1,0,168.41,0c0-.24,0-.48,0-.72Z"/><path class="cls-1" d="M664.21,0c0,.24,0,.48,0,.72A58,58,0,0,0,780.1.72c0-.24,0-.48,0-.72Z"/><path class="cls-5" d="M775.49,0c0,.24,0,.48,0,.72a53.37,53.37,0,1,1-106.73,0c0-.24,0-.48,0-.72h-9.18c0,.24,0,.48,0,.72a62.55,62.55,0,0,0,125.09,0c0-.24,0-.48,0-.72Z"/><path class="cls-1" d="M684.55,0c0,.24,0,.48,0,.72a37.62,37.62,0,0,0,37.61,37.62A37.63,37.63,0,0,0,759.77.72c0-.24,0-.48,0-.72Z"/><path class="cls-5" d="M755.16,0c0,.24,0,.48,0,.72a33,33,0,1,1-66.06,0c0-.24,0-.48,0-.72H680c0,.24,0,.48,0,.72a42.21,42.21,0,0,0,84.41,0c0-.24,0-.48,0-.72Z"/><path class="cls-1" d="M702.88,0c0,.24,0,.48,0,.72a19.3,19.3,0,1,0,38.59,0c0-.24,0-.48,0-.72Z"/><path class="cls-5" d="M736.82,0c0,.24,0,.48,0,.72a14.71,14.71,0,0,1-29.42,0c0-.24,0-.48,0-.72h-9.19c0,.24,0,.48,0,.72A23.89,23.89,0,0,0,746,.72c0-.24,0-.48,0-.72Z"/><path class="cls-1" d="M1212.14,0a79.62,79.62,0,1,0,134.73,0Z"/><path class="cls-2" d="M1341.35,0a75,75,0,1,1-123.69,0h-10.85A84.21,84.21,0,1,0,1352.2,0Z"/><path class="cls-1" d="M1319,0H1240A58,58,0,1,0,1319,0Z"/><path class="cls-2" d="M1311.83,0a53.37,53.37,0,1,1-64.66,0H1233.6a62.54,62.54,0,1,0,91.8,0Z"/><path class="cls-1" d="M1241.89,42.42A37.62,37.62,0,1,1,1279.5,80,37.61,37.61,0,0,1,1241.89,42.42Z"/><path class="cls-2" d="M1279.5.22a42.2,42.2,0,1,1-42.2,42.2A42.26,42.26,0,0,1,1279.5.22Zm0,75.23a33,33,0,1,0-33-33A33.08,33.08,0,0,0,1279.5,75.45Z"/><path class="cls-1" d="M1052.9,0a79.63,79.63,0,1,0,134.73,0Z"/><path class="cls-3" d="M1182.11,0a75,75,0,1,1-123.69,0h-10.85A84.21,84.21,0,1,0,1193,0Z"/><path class="cls-1" d="M1159.74,0H1080.8a58,58,0,1,0,78.94,0Z"/><path class="cls-3" d="M1152.6,0a53.37,53.37,0,1,1-64.67,0h-13.57a62.55,62.55,0,1,0,91.81,0Z"/><path class="cls-1" d="M1082.65,42.42A37.62,37.62,0,1,1,1120.26,80,37.61,37.61,0,0,1,1082.65,42.42Z"/><path class="cls-3" d="M1120.26.22a42.2,42.2,0,1,1-42.2,42.2A42.26,42.26,0,0,1,1120.26.22Zm0,75.23a33,33,0,1,0-33-33A33.07,33.07,0,0,0,1120.26,75.45Z"/><circle class="cls-1" cx="1120.26" cy="42.42" r="19.3"/><path class="cls-3" d="M1120.26,18.53a23.89,23.89,0,1,1-23.88,23.89A23.92,23.92,0,0,1,1120.26,18.53Zm0,38.6a14.71,14.71,0,1,0-14.7-14.71A14.73,14.73,0,0,0,1120.26,57.13Z"/><path class="cls-2" d="M1279.26,18.53a23.89,23.89,0,1,1-23.88,23.88A23.92,23.92,0,0,1,1279.26,18.53Zm0,38.59a14.71,14.71,0,1,0-14.7-14.71A14.73,14.73,0,0,0,1279.26,57.12Z"/><path class="cls-1" d="M1120.58,0c0,.24,0,.48,0,.72a79.62,79.62,0,1,0,159.23,0c0-.24,0-.48,0-.72Z"/><path class="cls-4" d="M1275.2,0c0,.24,0,.48,0,.72a75.11,75.11,0,0,1-75,75,75.12,75.12,0,0,1-75-75c0-.24,0-.48,0-.72H1116c0,.24,0,.48,0,.72a84.21,84.21,0,1,0,168.41,0c0-.24,0-.48,0-.72Z"/><path class="cls-1" d="M1142.24,0c0,.24,0,.48,0,.72a58,58,0,0,0,115.9,0c0-.24,0-.48,0-.72Z"/><path class="cls-4" d="M1253.53,0c0,.24,0,.48,0,.72a53.37,53.37,0,1,1-106.74,0c0-.24,0-.48,0-.72h-9.17c0,.24,0,.48,0,.72a62.54,62.54,0,1,0,125.08,0c0-.24,0-.48,0-.72Z"/><path class="cls-1" d="M1162.58,0c0,.24,0,.48,0,.72a37.62,37.62,0,1,0,75.24,0c0-.24,0-.48,0-.72Z"/><path class="cls-4" d="M1233.2,0c0,.24,0,.48,0,.72a33,33,0,0,1-66.07,0c0-.24,0-.48,0-.72H1158c0,.24,0,.48,0,.72a42.21,42.21,0,0,0,84.41,0c0-.24,0-.48,0-.72Z"/><path class="cls-1" d="M1180.92,0c0,.24,0,.48,0,.72a19.3,19.3,0,1,0,38.6,0c0-.24,0-.48,0-.72Z"/><path class="cls-4" d="M1214.85,0c0,.24,0,.48,0,.72a14.71,14.71,0,1,1-29.42,0c0-.24,0-.48,0-.72h-9.2c0,.24,0,.48,0,.72a23.88,23.88,0,1,0,47.76,0c0-.24,0-.48,0-.72Z"/><path class="cls-1" d="M961.35,0c0,.24,0,.48,0,.72a79.61,79.61,0,0,0,79.61,79.62A79.62,79.62,0,0,0,1120.57.72c0-.24,0-.48,0-.72Z"/><path class="cls-5" d="M1116,0c0,.24,0,.48,0,.72a75,75,0,1,1-150.06,0c0-.24,0-.48,0-.72h-9.18c0,.24,0,.48,0,.72a84.21,84.21,0,1,0,168.41,0c0-.24,0-.48,0-.72Z"/><path class="cls-1" d="M983,0c0,.24,0,.48,0,.72a58,58,0,0,0,115.91,0c0-.24,0-.48,0-.72Z"/><path class="cls-5" d="M1094.29,0c0,.24,0,.48,0,.72a53.37,53.37,0,1,1-106.73,0c0-.24,0-.48,0-.72h-9.18c0,.24,0,.48,0,.72a62.55,62.55,0,0,0,125.09,0c0-.24,0-.48,0-.72Z"/><path class="cls-1" d="M1003.35,0c0,.24,0,.48,0,.72a37.62,37.62,0,0,0,37.61,37.62A37.63,37.63,0,0,0,1078.57.72c0-.24,0-.48,0-.72Z"/><path class="cls-5" d="M1074,0c0,.24,0,.48,0,.72a33,33,0,1,1-66.06,0c0-.24,0-.48,0-.72h-9.18c0,.24,0,.48,0,.72a42.21,42.21,0,0,0,84.42,0c0-.24,0-.48,0-.72Z"/><path class="cls-1" d="M1021.68,0c0,.24,0,.48,0,.72a19.3,19.3,0,1,0,38.59,0c0-.24,0-.48,0-.72Z"/><path class="cls-5" d="M1055.62,0c0,.24,0,.48,0,.72a14.71,14.71,0,1,1-29.41,0c0-.24,0-.48,0-.72h-9.19c0,.24,0,.48,0,.72a23.89,23.89,0,0,0,47.77,0c0-.24,0-.48,0-.72Z"/><path class="cls-1" d="M1531.1,0a79.62,79.62,0,1,0,134.73,0Z"/><path class="cls-2" d="M1660.31,0a75,75,0,1,1-123.69,0h-10.85a84.21,84.21,0,1,0,145.39,0Z"/><path class="cls-1" d="M1637.93,0H1559a58,58,0,1,0,78.94,0Z"/><path class="cls-2" d="M1630.79,0a53.36,53.36,0,1,1-64.66,0h-13.57a62.54,62.54,0,1,0,91.81,0Z"/><path class="cls-1" d="M1560.85,42.42A37.62,37.62,0,1,1,1598.46,80,37.61,37.61,0,0,1,1560.85,42.42Z"/><path class="cls-2" d="M1598.46.22a42.2,42.2,0,1,1-42.2,42.2A42.26,42.26,0,0,1,1598.46.22Zm0,75.23a33,33,0,1,0-33-33A33.08,33.08,0,0,0,1598.46,75.45Z"/><path class="cls-1" d="M1371.86,0A79.62,79.62,0,1,0,1506.6,0Z"/><path class="cls-3" d="M1501.07,0a75,75,0,1,1-123.69,0h-10.85a84.22,84.22,0,1,0,145.39,0Z"/><path class="cls-1" d="M1478.7,0h-78.94a58,58,0,1,0,78.94,0Z"/><path class="cls-3" d="M1471.56,0a53.37,53.37,0,1,1-64.66,0h-13.58a62.55,62.55,0,1,0,91.81,0Z"/><path class="cls-1" d="M1401.61,42.42A37.62,37.62,0,1,1,1439.23,80,37.62,37.62,0,0,1,1401.61,42.42Z"/><path class="cls-3" d="M1439.23.22A42.2,42.2,0,1,1,1397,42.42,42.26,42.26,0,0,1,1439.23.22Zm0,75.23a33,33,0,1,0-33-33A33.07,33.07,0,0,0,1439.23,75.45Z"/><circle class="cls-1" cx="1439.23" cy="42.42" r="19.3"/><path class="cls-3" d="M1439.23,18.53a23.89,23.89,0,1,1-23.89,23.89A23.92,23.92,0,0,1,1439.23,18.53Zm0,38.6a14.71,14.71,0,1,0-14.71-14.71A14.73,14.73,0,0,0,1439.23,57.13Z"/><path class="cls-2" d="M1598.23,18.53a23.89,23.89,0,1,1-23.89,23.88A23.92,23.92,0,0,1,1598.23,18.53Zm0,38.59a14.71,14.71,0,1,0-14.71-14.71A14.73,14.73,0,0,0,1598.23,57.12Z"/><path class="cls-1" d="M1439.55,0c0,.24,0,.48,0,.72a79.62,79.62,0,1,0,159.23,0c0-.24,0-.48,0-.72Z"/><path class="cls-4" d="M1594.16,0c0,.24,0,.48,0,.72a75.12,75.12,0,0,1-75,75,75.11,75.11,0,0,1-75-75c0-.24,0-.48,0-.72H1435c0,.24,0,.48,0,.72a84.21,84.21,0,1,0,168.41,0c0-.24,0-.48,0-.72Z"/><path class="cls-1" d="M1461.2,0c0,.24,0,.48,0,.72a58,58,0,0,0,115.91,0c0-.24,0-.48,0-.72Z"/><path class="cls-4" d="M1572.49,0c0,.24,0,.48,0,.72a53.37,53.37,0,1,1-106.74,0c0-.24,0-.48,0-.72h-9.17c0,.24,0,.48,0,.72a62.54,62.54,0,1,0,125.08,0c0-.24,0-.48,0-.72Z"/><path class="cls-1" d="M1481.54,0c0,.24,0,.48,0,.72a37.62,37.62,0,1,0,75.23,0c0-.24,0-.48,0-.72Z"/><path class="cls-4" d="M1552.16,0c0,.24,0,.48,0,.72a33,33,0,0,1-66.07,0c0-.24,0-.48,0-.72H1477c0,.24,0,.48,0,.72a42.21,42.21,0,0,0,84.41,0c0-.24,0-.48,0-.72Z"/><path class="cls-1" d="M1499.88,0c0,.24,0,.48,0,.72a19.3,19.3,0,1,0,38.6,0c0-.24,0-.48,0-.72Z"/><path class="cls-4" d="M1533.81,0c0,.24,0,.48,0,.72a14.71,14.71,0,1,1-29.42,0c0-.24,0-.48,0-.72h-9.19c0,.24,0,.48,0,.72a23.89,23.89,0,0,0,47.77,0c0-.24,0-.48,0-.72Z"/><path class="cls-1" d="M1280.31,0c0,.24,0,.48,0,.72a79.62,79.62,0,1,0,159.24,0c0-.24,0-.48,0-.72Z"/><path class="cls-5" d="M1434.92,0c0,.24,0,.48,0,.72a75,75,0,0,1-150.06,0c0-.24,0-.48,0-.72h-9.18c0,.24,0,.48,0,.72a84.3,84.3,0,0,0,84.21,84.21A84.3,84.3,0,0,0,1444.12.72c0-.24,0-.48,0-.72Z"/><path class="cls-1" d="M1302,0c0,.24,0,.48,0,.72a58,58,0,0,0,58,58A58,58,0,0,0,1417.86.72c0-.24,0-.48,0-.72Z"/><path class="cls-5" d="M1413.25,0c0,.24,0,.48,0,.72a53.37,53.37,0,1,1-106.73,0c0-.24,0-.48,0-.72h-9.18c0,.24,0,.48,0,.72a62.55,62.55,0,0,0,125.09,0c0-.24,0-.48,0-.72Z"/><path class="cls-1" d="M1322.31,0c0,.24,0,.48,0,.72a37.62,37.62,0,1,0,75.24,0c0-.24,0-.48,0-.72Z"/><path class="cls-5" d="M1392.92,0c0,.24,0,.48,0,.72a33,33,0,0,1-66.06,0c0-.24,0-.48,0-.72h-9.18c0,.24,0,.48,0,.72a42.21,42.21,0,0,0,84.42,0c0-.24,0-.48,0-.72Z"/><path class="cls-1" d="M1340.65,0c0,.24,0,.48,0,.72a19.31,19.31,0,0,0,19.3,19.3A19.3,19.3,0,0,0,1379.2.72c0-.24,0-.48,0-.72Z"/><path class="cls-5" d="M1374.58,0c0,.24,0,.48,0,.72a14.71,14.71,0,1,1-29.41,0c0-.24,0-.48,0-.72H1336c0,.24,0,.48,0,.72a23.91,23.91,0,0,0,23.89,23.88A23.9,23.9,0,0,0,1383.79.72c0-.24,0-.48,0-.72Z"/><path class="cls-1" d="M1849.33,0a79.62,79.62,0,1,0,134.73,0Z"/><path class="cls-2" d="M1978.54,0a75,75,0,1,1-123.69,0H1844a84.21,84.21,0,1,0,145.39,0Z"/><path class="cls-1" d="M1956.16,0h-78.94a58,58,0,1,0,78.94,0Z"/><path class="cls-2" d="M1949,0a53.37,53.37,0,1,1-64.66,0h-13.57a62.54,62.54,0,1,0,91.81,0Z"/><path class="cls-1" d="M1879.08,42.42A37.62,37.62,0,1,1,1916.69,80,37.61,37.61,0,0,1,1879.08,42.42Z"/><path class="cls-2" d="M1916.69.22a42.2,42.2,0,1,1-42.2,42.2A42.26,42.26,0,0,1,1916.69.22Zm0,75.23a33,33,0,1,0-33-33A33.08,33.08,0,0,0,1916.69,75.45Z"/><path class="cls-1" d="M1690.09,0a79.63,79.63,0,1,0,134.73,0Z"/><path class="cls-3" d="M1819.3,0a75,75,0,1,1-123.69,0h-10.85a84.21,84.21,0,1,0,145.39,0Z"/><path class="cls-1" d="M1796.93,0H1718a58,58,0,1,0,78.94,0Z"/><path class="cls-3" d="M1789.79,0a53.37,53.37,0,1,1-64.67,0h-13.57a62.55,62.55,0,1,0,91.81,0Z"/><path class="cls-1" d="M1719.84,42.42A37.62,37.62,0,1,1,1757.46,80,37.62,37.62,0,0,1,1719.84,42.42Z"/><path class="cls-3" d="M1757.46.22a42.2,42.2,0,1,1-42.21,42.2A42.26,42.26,0,0,1,1757.46.22Zm0,75.23a33,33,0,1,0-33-33A33.07,33.07,0,0,0,1757.46,75.45Z"/><circle class="cls-1" cx="1757.46" cy="42.42" r="19.3"/><path class="cls-3" d="M1757.46,18.53a23.89,23.89,0,1,1-23.89,23.89A23.92,23.92,0,0,1,1757.46,18.53Zm0,38.6a14.71,14.71,0,1,0-14.71-14.71A14.73,14.73,0,0,0,1757.46,57.13Z"/><path class="cls-2" d="M1916.46,18.53a23.89,23.89,0,1,1-23.89,23.88A23.92,23.92,0,0,1,1916.46,18.53Zm0,38.59a14.71,14.71,0,1,0-14.71-14.71A14.73,14.73,0,0,0,1916.46,57.12Z"/><path class="cls-1" d="M1757.78,0c0,.24,0,.48,0,.72A79.62,79.62,0,1,0,1917,.72c0-.24,0-.48,0-.72Z"/><path class="cls-4" d="M1912.39,0c0,.24,0,.48,0,.72a75.11,75.11,0,0,1-75,75,75.12,75.12,0,0,1-75-75c0-.24,0-.48,0-.72h-9.17c0,.24,0,.48,0,.72a84.21,84.21,0,1,0,168.41,0c0-.24,0-.48,0-.72Z"/><path class="cls-1" d="M1779.43,0c0,.24,0,.48,0,.72a58,58,0,0,0,115.91,0c0-.24,0-.48,0-.72Z"/><path class="cls-4" d="M1890.72,0c0,.24,0,.48,0,.72A53.37,53.37,0,0,1,1784,.72c0-.24,0-.48,0-.72h-9.17c0,.24,0,.48,0,.72a62.54,62.54,0,0,0,125.08,0c0-.24,0-.48,0-.72Z"/><path class="cls-1" d="M1799.77,0c0,.24,0,.48,0,.72a37.62,37.62,0,1,0,75.23,0c0-.24,0-.48,0-.72Z"/><path class="cls-4" d="M1870.39,0c0,.24,0,.48,0,.72a33,33,0,0,1-66.07,0c0-.24,0-.48,0-.72h-9.17c0,.24,0,.48,0,.72a42.21,42.21,0,0,0,84.41,0c0-.24,0-.48,0-.72Z"/><path class="cls-1" d="M1818.11,0c0,.24,0,.48,0,.72a19.3,19.3,0,0,0,38.6,0c0-.24,0-.48,0-.72Z"/><path class="cls-4" d="M1852,0c0,.24,0,.48,0,.72a14.71,14.71,0,0,1-29.42,0c0-.24,0-.48,0-.72h-9.2c0,.24,0,.48,0,.72a23.89,23.89,0,0,0,47.77,0c0-.24,0-.48,0-.72Z"/><path class="cls-1" d="M1598.54,0c0,.24,0,.48,0,.72a79.62,79.62,0,1,0,159.24,0c0-.24,0-.48,0-.72Z"/><path class="cls-5" d="M1753.15,0c0,.24,0,.48,0,.72a75,75,0,1,1-150.06,0c0-.24,0-.48,0-.72H1594c0,.24,0,.48,0,.72a84.3,84.3,0,0,0,84.21,84.21A84.29,84.29,0,0,0,1762.34.72c0-.24,0-.48,0-.72Z"/><path class="cls-1" d="M1620.2,0c0,.24,0,.48,0,.72a58,58,0,0,0,115.91,0c0-.24,0-.48,0-.72Z"/><path class="cls-5" d="M1731.48,0c0,.24,0,.48,0,.72a53.37,53.37,0,1,1-106.73,0c0-.24,0-.48,0-.72h-9.18c0,.24,0,.48,0,.72a62.55,62.55,0,0,0,125.09,0c0-.24,0-.48,0-.72Z"/><path class="cls-1" d="M1640.54,0c0,.24,0,.48,0,.72a37.62,37.62,0,1,0,75.24,0c0-.24,0-.48,0-.72Z"/><path class="cls-5" d="M1711.15,0c0,.24,0,.48,0,.72a33,33,0,1,1-66.06,0c0-.24,0-.48,0-.72H1636c0,.24,0,.48,0,.72a42.21,42.21,0,0,0,84.42,0c0-.24,0-.48,0-.72Z"/><path class="cls-1" d="M1658.88,0c0,.24,0,.48,0,.72a19.3,19.3,0,1,0,38.59,0c0-.24,0-.48,0-.72Z"/><path class="cls-5" d="M1692.81,0c0,.24,0,.48,0,.72a14.71,14.71,0,1,1-29.41,0c0-.24,0-.48,0-.72h-9.19c0,.24,0,.48,0,.72a23.91,23.91,0,0,0,23.89,23.88A23.9,23.9,0,0,0,1702,.72c0-.24,0-.48,0-.72Z"/><path class="cls-1" d="M1917.71,0c0,.24,0,.48,0,.72a79.61,79.61,0,0,0,79.61,79.62A79.62,79.62,0,0,0,2076.93.72c0-.24,0-.48,0-.72Z"/><path class="cls-5" d="M2072.32,0c0,.24,0,.48,0,.72a75,75,0,1,1-150.06,0c0-.24,0-.48,0-.72h-9.18c0,.24,0,.48,0,.72a84.21,84.21,0,1,0,168.41,0c0-.24,0-.48,0-.72Z"/><path class="cls-1" d="M1939.37,0c0,.24,0,.48,0,.72a58,58,0,0,0,115.91,0c0-.24,0-.48,0-.72Z"/><path class="cls-5" d="M2050.65,0c0,.24,0,.48,0,.72a53.37,53.37,0,1,1-106.73,0c0-.24,0-.48,0-.72h-9.18c0,.24,0,.48,0,.72a62.55,62.55,0,0,0,125.09,0c0-.24,0-.48,0-.72Z"/><path class="cls-1" d="M1959.71,0c0,.24,0,.48,0,.72a37.62,37.62,0,0,0,37.61,37.62A37.63,37.63,0,0,0,2034.93.72c0-.24,0-.48,0-.72Z"/><path class="cls-5" d="M2030.32,0c0,.24,0,.48,0,.72a33,33,0,1,1-66.06,0c0-.24,0-.48,0-.72h-9.18c0,.24,0,.48,0,.72a42.21,42.21,0,0,0,84.42,0c0-.24,0-.48,0-.72Z"/><path class="cls-5" d="M2012,0c0,.24,0,.48,0,.72a14.71,14.71,0,1,1-29.41,0c0-.24,0-.48,0-.72h-9.19c0,.24,0,.48,0,.72a23.89,23.89,0,0,0,47.77,0c0-.24,0-.48,0-.72Z"/></g></g></svg>