<?xml version="1.0" encoding="utf-8"?>
<!-- Generator: Adobe Illustrator 23.0.0, SVG Export Plug-In . SVG Version: 6.00 Build 0)  -->
<svg version="1.1" id="Layer_1" xmlns="http://www.w3.org/2000/svg" xmlns:xlink="http://www.w3.org/1999/xlink" x="0px" y="0px"
	 viewBox="0 0 696.3 785.7" style="enable-background:new 0 0 696.3 785.7;" xml:space="preserve">
<style type="text/css">
	.st0{clip-path:url(#SVGID_2_);}
	.st1{opacity:0.42;fill:#E2DACC;enable-background:new    ;}
	.st2{fill:#055C49;}
	.st3{fill:#043025;}
	.st4{fill:#E1A101;}
	.st5{fill:#D0620B;}
	.st6{fill:#DC8655;}
	.st7{fill:#2E5C80;}
	.st8{fill:#012428;}
	.st9{fill:#DE4525;}
	.st10{fill:#EFE9DD;}
	.st11{fill:#FDFBFA;}
</style>
<title>Asset 1</title>
<g>
	<g id="OBJECTS">
		<g>
			<defs>
				<rect id="SVGID_1_" x="-31.4" y="118.2" width="750" height="500"/>
			</defs>
			<clipPath id="SVGID_2_">
				<use xlink:href="#SVGID_1_"  style="overflow:visible;"/>
			</clipPath>
			<g class="st0">
				<path class="st1" d="M593.6,538.2c-22-8-49-5-73,2c-6,2-15,3-19,0c-35-31-25-79-25-121c0-10-3-21-9-24c-8-5-22-4-33,0
					c-1,1-1,3-2,4c-21,2-27,20-41,31c-10,7-20-4-24-13c-8-23-5-58-30-67c-14-5-31,4-40,17c-13,18-14,39-17,60c-3,23-9,46-10,70
					c0,4.1-1,8.1-3,12c-2,3,0,8-1,12c-4,12-3,23-5,34c-6.3,22.8-16.9,43.2-30.5,63h487.5v-48.3C673.4,577.7,635.4,551.8,593.6,538.2
					z"/>
				<path class="st1" d="M248.1,118.2c-1.7,7.6-1.8,15.4-0.4,23c0,2,4,2,4,4c6,25,34,35,55,40c25,6,51,0,76,3
					c36,4.3,31.6,56,51.4,76.9c26.8,28.4,73.2,35.7,107.5,17c28.5-15.6,46.4-45.4,72.4-65c32.8-24.6,66.9-21.4,104.8-24.9v-74
					L248.1,118.2z"/>
				<path class="st1" d="M126.7,570.2c-6-16-11-43,7-54c35-22,84-38,89-83c0-3-3-9-6-10c-22-11-63-13-52-42c6-16,25-30,19-49
					c-3-8-11-17-19-20c-26-12-56-1-85-6c-8-1-17-2-24-3c-29.7-3.2-62-0.6-87-15.5v330.5h194C147.2,605.5,134.6,589.9,126.7,570.2z"
					/>
				<path class="st2" d="M690.7,176.9c-2.1,0.7-4.5,1.1-6.9,1.2c-8.3,0.2-16.3-2.6-24.6-2.9c-9.7-0.3-19.5,3.1-27,9.4
					c-4.9,4.1-8.9,9.6-14.7,12.3c-12.8,5.9-27.8-4-41.7-1.6c-10.1,1.8-17.9,9.6-25.6,16.4c-15.7,13.5-34.5,7-50.2,20
					c-4.7,3.9-9.1,9.2-15.2,9.2c3.9,0,11.1,5.1,15.8,5.9c5.6,0.9,10.3-0.5,15.6-0.5c13.4,0,26.3,7.9,38.2,13.2
					c13,5.8,28.1,10.3,41.4,5.1c9.6-3.7,17.3-12.2,27.4-14.1c15.6-3,30.4,10.5,46.2,9.2c9-0.8,16.8-6.2,24.9-10.1s15.7-5,24.2-2
					s14.3,6.1,23.1,1.4c12.4-6.6,15.5-20.5,22.7-31.2c3.2-4.8,10.5-7.8,15.4-10.7c6.1-3.6,12.3-6.9,18.7-9.9c1-0.4,1.6-1,1.8-1.7
					c0.1-0.4,0-0.8-0.2-1.3c-1.3-3.3-5.5-4.1-9-4.2c-6.7-0.2-13.5,0.3-20.3-0.7s-9.9-3.6-14.7-7.8c-8.4-7.4-15.5-17.8-27-20.2
					C713.1,158,704.3,172.6,690.7,176.9z"/>
				<path class="st3" d="M595.9,222.6c-22.5,1-44.8,7.9-64.4,18.7c41.7-14,84.9-18,130.3-17.2c43.8,0.3,81.8-14.6,123.4-29.3
					c4.8-1.6,9.5-1.5,14.1-1.8c-1.8-2.3-5.3-2.9-8.3-3c-0.7,0-1.5,0-2.2-0.1c-12.1,2.4-23.5,6-34.1,10.6
					C704.6,222.3,649.5,220,595.9,222.6z"/>
				<path class="st3" d="M565.5,205.5c-0.3,0.2-0.6,0.4-0.8,0.6c-1.3,1-2.2,2.2-2.6,3.5c-0.9,2.7,0.9,4.1,3.2,5
					c7.4,2.8,16.3,3.1,24.1,0.9c1.5-0.3,2.8-1,3.8-1.8c2.7-2.5,1.9-6.9-0.7-9c-2.6-2.1-6.4-2.6-9.7-2.8
					C576.8,201.6,570.4,202,565.5,205.5z"/>
				<path class="st3" d="M673,234.7c7.7-1.7,14.1,4.4,8.3,11c-5,5.7-14.8,7.4-21.8,5c-4.5-1.6-9.8-3.3-3.5-7.8
					C659.4,240.6,666.7,236.1,673,234.7z"/>
				<path class="st3" d="M718.4,168.6c-3.2,0.2-5.8,1.6-6.9,3.6c-0.9,2.2-0.4,4.6,1.4,6.6c1.6,1.5,3.7,2.8,6.1,3.6
					c4.9,1.9,25.5,8.6,24.4-3.4C742.3,168.4,726.2,167.6,718.4,168.6z"/>
				<path class="st3" d="M595.9,255c-0.3-0.7-1.4-1.1-2.4-0.9c-1,0.3-1.8,0.7-2.4,1.3c-1.3,1-1.7,2.3-1.2,3.6
					C591.1,261.2,598.1,258.3,595.9,255z"/>
				<path class="st3" d="M642.1,192.6c1,5.1-6.1,4.4-4.8,0.6C637.9,191.3,641.6,190,642.1,192.6z"/>
				<path class="st3" d="M727.2,233.8c0.9,1.9,2.7,2.9,2.9,5.1c0.2,0.8,0.1,1.6-0.4,2.3c-0.3,0.3-0.6,0.5-1.1,0.6
					c-1.3,0.5-3,0.4-4.1-0.4C722.2,239.8,724,233,727.2,233.8z"/>
				<path class="st2" d="M-146.6,88.5c2.3,1,4.3,2.2,6,3.6c6.4,5.2,10.6,12.7,16.7,18.3c7.1,6.6,16.8,10.4,26.5,10.5
					c6.4,0.1,12.9-1.4,19.1,0.3c13.5,3.9,18.4,21.2,30.5,28.5c8.8,5.3,19.8,4.4,30,4.4c20.7,0,30.7,17.3,51,17.7
					c6,0.1,12.9-1,17.5,3c-3-2.5-5.1-11.2-8.1-14.8c-3.6-4.3-8.1-6.4-12-9.8c-10.1-8.8-14.8-23.2-20.3-35c-6-12.9-14.5-26.2-27.9-31
					c-9.8-3.5-21.1-2.1-30-7.3c-13.7-8-16.1-27.8-28.9-37.2c-7.3-5.3-16.7-6.3-25.4-8.7s-15.2-6.5-19.5-14.3
					c-4.4-7.8-6.8-14-16.5-16.2c-13.8-3.1-25.3,5.4-37.7,8.8c-5.6,1.5-13.1-1-18.6-2c-7-1.3-13.9-2.9-20.7-4.8
					c-0.8-0.2-1.8-0.5-2.5,0.1c-0.4,0.3-0.6,0.7-0.7,1.1c-1.1,3.3,1.5,6.7,4.1,9.1c4.9,4.6,10.5,8.6,14.9,13.8
					c4.4,5.1,5.2,9.2,6,15.6c1.5,11,0,23.6,7.2,33C-176,88.2-159.8,82.8-146.6,88.5z"/>
				<path class="st3" d="M-45.2,116c17.7,13.9,39,23.4,60.9,28C-25,127.3-60.2,102-94,71.7c-32.8-28.9-71.4-42.5-112.5-58.6
					c-4.6-1.9-8.2-5.1-11.8-7.9c-0.1,2.9,2.1,5.6,4.4,7.7c0.5,0.5,1.1,1,1.6,1.5c9.9,5.7,20.9,10.5,32.7,14.3
					C-127.5,45-87.4,82.8-45.2,116z"/>
				<path class="st3" d="M-33.3,148.8c0.3,0,0.7,0.1,1,0.1c1.6,0.1,3.1-0.2,4.3-0.9c2.4-1.5,2-3.7,0.8-5.9c-4-7.1-10.3-13-17.7-16.5
					c-1.1-0.6-2.5-1-4-1.1c-3.7,0.1-6,3.9-5.3,7.2c0.8,3.1,2.7,6,5.5,8.5C-44.5,144.3-39.3,148.2-33.3,148.8z"/>
				<path class="st3" d="M-95.5,56.3c-6.9-3.8-7.7-12.6,0.9-13.8c7.5-1.1,16.1,4.1,19.7,10.5c2.3,4.1,5.3,8.9-2.4,8.2
					C-81.4,60.8-89.8,59.4-95.5,56.3z"/>
				<path class="st3" d="M-173,76.7c2.3,1.5,5.1,2.9,7.5,1.8c2.2-0.9,3.4-3.5,3.3-5.9c-0.2-2.3-1-4.6-2.3-6.7
					c-2.5-4.6-13.7-23.2-20.7-13.4C-191.3,61.1-179.6,72.3-173,76.7z"/>
				<path class="st3" d="M-23.9,91.5c-0.1,0.8,0.3,1.7,1.2,2.3c0.7,0.4,1.7,0.6,2.7,0.6c1.7,0.1,3.1-0.8,3.2-1.9c0,0,0-0.1,0-0.1
					C-16.2,89.9-23.3,87.6-23.9,91.5z"/>
				<path class="st3" d="M-99.7,108.4c2.6-4.5,7.5,0.6,4,2.7C-97.4,112.1-101,110.7-99.7,108.4z"/>
				<path class="st3" d="M-137,21.5c0.6-2-0.1-3.9,1.2-5.8c0.5-0.7,1-1.4,1.8-1.5c0.4,0,0.9,0.1,1.2,0.2c1.5,0.7,2.6,1.8,2.8,3
					C-129.4,20.3-135.1,24.2-137,21.5z"/>
				<path class="st4" d="M11.2,585.8c10.1,5.6,21.4,9.7,30.5,16.8c5,3.9,9.4,8.1,13.3,12.6c0,0.3-0.4,0.6-0.9,0.6h0
					c-2.5,0-4.3-2.5-6.6-3.7c-1.1-0.6-2.4-0.9-3.4-1.5c-0.7-0.4-1.2-1-1.9-1.3c-1.3-0.5-2.8-0.8-4.3-0.8c-2.7-0.2-4.8-1.5-7.3-2
					c-3.2-0.6-6.5-1.1-9.8-1.4c-11.5-1.6-23.2-3.1-33.8-8.2c-5.4-2.8-10.4-6-14.9-9.5c-7.7-5.5-15.2-11.9-23.6-16.1
					c-2.6-1.1-4.7-2.6-6.2-4.4c0.9-0.2,1.9,0.3,2.8,0.4c0.6,0,1.3-0.2,1.8-0.3c6.3-1.6,14,0.8,20.3,2c7.2,1.3,14.2,3.2,20.8,5.7
					C-3.9,577.5,3.7,581.7,11.2,585.8z"/>
				<path class="st5" d="M-41.4,572.5c11.1,4.9,21.7,11.3,32.9,16.3c12.6,5.7,25.8,10.2,39.5,12.5c9.7,1.6,16.5,8.2,24,14.3
					c0.1-0.1,0.1-0.2,0.1-0.3c-3.8-4.4-8.1-8.5-13-12.3c-6-2-11.4-4-17.7-4.9c-5.1-0.9-10-2.3-14.5-4.2c-9.1-3.5-18-7.3-26.5-11.4
					c-7.8-3.7-15.4-7.8-23.5-10.8c-1.1-0.4-2.4-0.8-3.3,0C-42.7,571.9-42.1,572.2-41.4,572.5z"/>
				<path class="st4" d="M-40.7,519.5c8.1,3.2,16.9,5.1,24.4,9.5c4.1,2.4,7.9,5.1,11.2,8.1c0,0.2-0.2,0.5-0.6,0.5
					c-1.9,0.3-3.5-1.4-5.3-2.1c-0.9-0.3-1.9-0.4-2.7-0.8c-0.5-0.2-1-0.6-1.6-0.8c-1-0.3-2.2-0.3-3.3-0.2c-2.1,0.1-3.7-0.6-5.7-0.8
					c-2.5-0.1-5-0.2-7.5-0.1c-8.7,0-17.6,0-26-2.8c-4.3-1.6-8.4-3.5-12.1-5.6c-6.3-3.3-12.5-7.3-19.2-9.7c-2-0.6-3.7-1.5-5-2.7
					c0.7-0.2,1.5,0.1,2.1,0c0.5-0.1,0.9-0.2,1.3-0.4c4.5-1.9,10.5-0.8,15.3-0.5c5.5,0.3,10.9,1,16.1,2.2
					C-52.8,514.9-46.6,517-40.7,519.5z"/>
				<path class="st5" d="M-81.3,514.7c8.8,2.5,17.3,6.3,26.1,8.9c10,3,20.3,5.1,30.7,5.4c7.4,0.2,13.1,4.5,19.3,8.3
					c0-0.1,0-0.1,0-0.2c-3.2-2.9-6.9-5.5-10.9-7.9c-4.7-0.9-8.9-1.9-13.7-1.9c-3.8-0.2-7.6-0.7-11.2-1.7c-7.1-1.7-14.1-3.7-20.9-5.9
					c-6.2-2-12.3-4.3-18.6-5.7c-0.8-0.2-1.9-0.3-2.5,0.3L-81.3,514.7z"/>
				<path class="st4" d="M74.6,550c-2.8,11-4.6,22.1-7.3,33.1c-1.4,5.7-3.4,11.1-5.1,16.7c-0.6,1.8-1.2,3.5-1.8,5.3
					c-0.4,1.3-0.8,2.6-1.2,3.9c-0.3,1-0.3,2.4-0.7,3.3c-0.2,0.4-0.6,0.9-1,0.8s-0.6-0.6-0.7-1c-0.1-0.8,0.2-1.5,0-2.3
					s-0.5-1.6-0.7-2.4c-0.4-1.7-0.6-3.4-0.7-5.1c-0.2-3.5-0.1-7-0.4-10.4c-0.8-8.5-0.9-17.1-2.3-25.5c-0.8-4.4-1.9-8.7-2.2-13.2
					c-0.8-10.6,3.5-20,2.3-30.6c-0.7-5.9-0.8-12.2-0.7-18.2c0-1.5,2.3-17.9,2.8-17.6c12.3,6.9,16.6,22.3,19.8,36.1
					c1.3,4.8,2,9.7,2.1,14.6C76.5,541.7,75.8,545.9,74.6,550z"/>
				<path class="st5" d="M63.7,509.9c-0.4-2.5-1.2-5-3.1-6.5c-0.7,5.8,2,11.4,3,17.2c0.7,5.1,0.6,10.2-0.3,15.3
					c-0.8,5.3-0.6,10.7-0.8,16c-0.5,11.3-0.9,22.7-2.4,34c-1,7.3-2.4,14.5-3.9,21.6c0.2,0.8,0.6,1.6,0.7,2.4s-0.1,1.5,0,2.3
					c0,0.2,0.1,0.5,0.2,0.7c2.1-15.3,6.5-30.1,7.2-46.3c0.4-9.4,1.5-18.7,1.8-28.1c0.1-4.7,0.2-9.4-0.1-14.1
					c-0.2-4.3-1.5-8.7-2.1-13C63.8,510.9,63.7,510.4,63.7,509.9z"/>
				<path class="st4" d="M-85.1,506c6.9-0.5,13.7-0.3,20.6-0.7c3.5-0.2,7-0.8,10.5-1.2c1.1-0.1,2.3-0.4,3.4-0.5
					c0.8-0.1,1.6-0.2,2.5-0.3c0.7,0,1.4,0,2.1-0.1c0.4-0.1,0.6-0.4,0.4-0.7c-0.1-0.1-0.2-0.2-0.4-0.3c-0.5-0.1-0.9-0.1-1.4-0.2
					s-0.9-0.5-1.4-0.7c-0.9-0.4-1.9-0.7-3-1c-2.1-0.5-4.1-0.8-6.2-1.4c-5-1.4-10.1-2.4-15-4.2c-2.4-1-4.9-1.9-7.5-2.7
					c-6.3-1.6-12.3-0.1-18.5-2c-3.5-1-7.1-1.8-10.8-2.4c-0.9-0.1-11-0.6-10.8-0.2c2.8,8.1,11.5,12.4,19.4,15.8
					c2.6,1.3,5.4,2.2,8.5,2.9C-90.2,506.3-87.6,506.3-85.1,506z"/>
				<path class="st5" d="M-107.8,495.1c-1.7-0.5-2.9-1.4-3.6-2.6c3.6,0.2,6.6,2.4,9.9,3.7c2.8,1,6,1.5,9.2,1.5
					c3.3,0.3,6.5,0.7,9.6,1.3c6.8,1.1,13.6,1.9,20.5,2.3c4.5,0.2,8.9,0.1,13.4,0.1c0.5,0.2,0.9,0.5,1.4,0.7s0.9,0.1,1.4,0.2
					c0.2,0,0.3,0.1,0.4,0.2c-9.4-0.4-18.7,0.6-28.5-0.8c-5.6-0.8-11.3-1.1-17-2c-2.8-0.4-5.7-1-8.4-1.6c-2.6-0.8-5.1-1.7-7.5-2.7
					L-107.8,495.1z"/>
				<path class="st4" d="M81.1,654.7c0,0-26.1-91.3,50.8-160.3c0,0,5.1,21.6-8.7,54.9C111,578.6,81.1,654.7,81.1,654.7z"/>
				<path class="st5" d="M97.3,583.6c1.5-5.4,3.2-10.7,4.9-16c6-18.4,16.8-34.9,20.5-54.2c-2.7,7.1-6.5,13.3-10,20
					c-3,5.8-5.3,12.6-7.7,18.8c-2.6,7-4.9,14.1-6.5,21.3c-0.6,2.5-1.8,4.7-2.4,7.2c-0.8,3.4-1.7,6.8-2.4,10.2
					c-1.6,6.8-3.1,13.6-4.5,20.5c-2.9,13.5-5.6,27.1-8.6,40.5c0.4,1.6,0.6,2.5,0.6,2.5s1.7-4.4,4.5-11.4c0.7-4.3,1.3-8.7,1.9-13.7
					C89.6,614.2,92.8,598.8,97.3,583.6z"/>
				<path class="st4" d="M47.9,629.3c-7.5-2.6-15.2-4.8-23.2-6.6c-8.3-1.5-16.7-2.6-25.2-3.2c-8.5-0.9-17-1.4-25.6-1.5
					c-18.5,0.2-35.1,9.7-52.5,14.5c6.3,4.1,13.5,6.9,20.4,9.7c12.3,4.8,24.9,9.8,38.1,10.6c12.2,0.8,24.4-2,36.5-3.5
					c10.3-1.1,20.8-1.5,31.3-1.1c9.5,0.2,19.8-0.4,28.6,3.4c0.9,0.5,2.1,0.8,3.3,0.8c5.4-0.6-3-6.9-4.5-8.2
					c-4.8-4.2-10-8.2-15.8-10.8c-2.4-1.1-5-2-7.6-2.8L47.9,629.3z"/>
				<path class="st5" d="M-26,635.1c-4.8,0.9-9.7,1.6-14.7,2c5.6,2.7,16.1,0.3,22.2-0.2c8-0.6,16-1.3,24.1-0.9
					c13.3,0.6,26.7,1.2,39.8,3.5c6.6,1.1,13.1,2.8,19.1,4.9c4.9,1.7,11.5,3.4,15.5,6.7c-3.6-2.9-7.4-5.7-11.8-7.2
					c-18.4-6-38.3-9.8-58.7-11.1c-6.1-0.5-12.2-0.6-18.3-0.3C-14.6,633.2-20.4,634-26,635.1z"/>
				<path class="st4" d="M-53.5,493.5c-1.7-3.5-3.4-6.9-4.7-10.5c-1.4-3.8-2.3-7.8-3.3-11.7s-1.9-8-2.4-12
					c-1.2-8.7,2.2-17.3,3.2-25.8c2.4,2.9,4.4,5.9,6,9c3.1,5.5,6.3,11.1,7.6,17.3c1.2,5.7,0.7,11.7,0.9,17.5c0.1,5,0.8,10,1.6,14.9
					c0.8,4.5,1.2,9.4,3.6,13.3c0.3,0.5,0.5,1,0.6,1.5c0.1,2.6-3.5-1-4.2-1.6c-2.5-2.1-4.6-4.3-6.2-6.8c-0.7-1.1-1.3-2.3-1.9-3.4
					C-52.9,494.6-53.2,494-53.5,493.5z"/>
				<path class="st5" d="M-55.8,458.1c0-2.4,0.1-4.7,0-7.1c1.7,2.5,1.2,7.6,1.5,10.5c0.3,3.8,0.5,7.7,1.3,11.5
					c1.2,6.3,2.4,12.5,4.4,18.6c1,3,2.2,5.9,3.6,8.7c1.2,2.2,2.4,5.2,4.2,6.9c-1.8-1.5-3.2-3.2-4.2-5.1c-4.3-8.8-7.4-17.8-9.3-27
					c-0.6-2.9-1.2-5.7-1.4-8.7S-55.9,460.9-55.8,458.1z"/>
				<path class="st4" d="M30.2,503c-2.7-9.5-5.8-19.2-4.4-29c-3,1.3-4.6,4.3-5.8,7.3c-4.9,12.3-5.8,25.1-2.6,37.7
					c1.5,6.2,4.1,12.1,4.8,18.5c0.4,4.1,0.1,8.2,0.2,12.3c0.2,5.3,1.1,10.7,2.9,15.9c1,3,1.8,12,6,11.8c0.3-1.9-0.9-3.7-1.2-5.6
					c0-1.9,0.3-3.9,1.2-5.8C38.5,545.1,36.2,523.9,30.2,503z"/>
				<path class="st5" d="M24.1,488.9c-2.8,3.3-0.3,20-0.1,23c5.2,31.5,6.3,35.7,3.2,61.4c0.7,2,1.7,3.8,3.3,4.1
					c-0.6-1.4-0.9-2.9-0.8-4.4c0.1-0.6,0.2-1.2,0.3-1.8c0-0.8,0.1-1.6,0.3-2.4C33.9,540.8,23.2,516.2,24.1,488.9z"/>
				<path class="st4" d="M-85,470.3c-5.3-2.4-10.8-4.8-14.6-9.2c-0.4,1.8,0,3.7,1,5.4c3.4,6.7,9,12.3,15.8,15.7
					c3.4,1.7,7,2.9,10.1,5c2,1.4,3.7,3.1,5.6,4.7c2.3,1.9,5.1,3.5,8.2,4.8c1.7,0.7,6,3.8,7.5,1.9c-0.7-0.9-2-1-3-1.6
					c-0.9-0.8-1.7-1.7-2.1-2.7C-62,484.5-72,476.1-85,470.3z"/>
				<path class="st5" d="M-93.6,467.6c0.4,2.5,8.8,7.9,10.2,8.9c16.1,9.8,18.4,10.9,28.6,22.2c1.2,0.5,2.3,0.7,3.1,0.1
					c-0.9-0.3-1.7-0.8-2.3-1.4c-0.2-0.3-0.5-0.6-0.7-0.9c-0.4-0.3-0.7-0.7-0.9-1.1C-66.6,483.2-81.8,478.6-93.6,467.6z"/>
				<path class="st4" d="M-1.4,553.1c4.5,2.6,8.6,5.4,12.5,8.4c2.2,2,4.9,3.7,7.8,5.2c3,1.3,7.2,1.7,9.6,4.3
					c0.6,0.7,0.7,1.6,0.3,2.3c-0.5,0.6-1.5,0.9-2.4,0.7c-6.8-0.6-12.5-5.2-19-7.3c-4.6-1.5-9.5-1.6-14.3-2.1
					c-11.5-1.2-21.6-5.4-32.4-8.9c-5.7-2-10.9-4.6-15.4-7.7c-2.4-1.6-4.8-3.3-7.1-5.1c-0.9-0.7-4.8-5-5.8-4.9l18-1.8
					c1.9-0.2,3.9-0.3,5.8-0.2c2.5,0.3,4.8,0.8,7,1.6C-24,541.7-12.1,546.9-1.4,553.1z"/>
				<path class="st5" d="M-8,557l-0.8-0.2c-1.9-0.3-3.8-0.7-5.7-1.2c-1.4-0.5-2.8-1.1-4-1.8c-8.5-4.2-17.6-7.2-27-8.1
					c-1.1,0-2.2-0.3-3.1-0.7c12.5,4.9,25.5,8.1,38.1,12.5c13.3,4.6,25.8,10.1,37.3,16.5c0.8,0.1,1.6-0.2,2-0.7
					c0.2-0.3,0.3-0.7,0.3-1c0-0.9-8.4-4-9.5-4.5c-3.3-1.5-6.6-3-9.9-4.3c-3.1-1.2-6.1-2.1-9.1-3.6C-2,558.7-4.9,557.7-8,557z"/>
				<path class="st4" d="M-4.3,511c0-11.6-0.7-23.1-4.7-33.9c-1.5-4.4-3.9-8.6-7.2-12.5c-2.7-3.1-6.2-5.6-8.2-9.2
					c1.5,2.6,1,8.4,1.2,11.3c0.3,4,0.4,8.1,0.3,12.2c-0.2,8.2-1.5,14.4,0.7,22.5c1.7,7.1,4.1,14.1,7.1,20.9
					c1.7,3.5,7.8,16.1,12.5,15.2c-1.1-3.4-1.7-6.8-1.8-10.3C-4.4,521.9-4.3,516.5-4.3,511z"/>
				<path class="st5" d="M-11.5,486.9c-1.4-5.7-3.7-11.3-6.7-16.8c3.2,5.5,2.7,12.5,4.1,18.5c1.7,7.2,3.5,14.4,4.4,21.8
					c0.8,6.4-2.7,18.9,2.1,24.3c1.5,1.6,2.9,2.8,4.3,2.9C-9.4,521.2-6.3,503.9-11.5,486.9z"/>
				<path class="st6" d="M39.8,585.9c-8.3-11.2-16.8-23.1-26.1-33.8c-9.7-11.2-21-19.1-31.9-28.7c-12-10.5-24.9-22.6-39.9-28.8
					c0.9,4.5,10,8.2,13.4,10.8c5.4,4,10.8,8.1,16,12.3c9.6,7.6,18.6,15.7,26.8,24c20.7,21.2,37,46.2,53.2,71.1
					c5,7.6,9.9,15.2,14.8,22.8c4.5,6.9,7.7,15.1,14.4,20.2c3-4.9-6.4-19.2-9-23.7c-4.5-7.9-9.9-15.4-15.2-22.8l-11.7-16.4
					C43.1,590.5,41.4,588.2,39.8,585.9z"/>
				<path class="st5" d="M80.7,652.2l0.2-0.1c-1.2-0.7-2.4-1.4-3.5-2C78.5,650.7,79.6,651.4,80.7,652.2z"/>
				<path class="st4" d="M739.8,367.4c1.4-11.5,1-23.5,4.2-34.6c1.6-5.8,3.9-11.4,6.7-17c0.3-0.1,0.7,0.2,0.8,0.6
					c1,2.4-0.7,4.9-1,7.5c-0.1,1.3,0,2.5-0.1,3.8c-0.1,0.8-0.4,1.5-0.5,2.3c0,1.5,0.3,2.9,0.8,4.3c0.8,2.6,0.4,5,0.8,7.5
					c0.5,3.2,1.5,6.5,2.4,9.6c2.8,11.2,5.9,22.7,5,34.4c-0.6,5.8-1.6,11.6-3.2,17.4c-2.2,9.2-5.3,18.5-6.1,27.9c0,2.5-0.6,5-1.8,7.4
					c-0.3-0.9-0.6-1.8-0.7-2.8c-0.2-0.5-0.6-1.1-1-1.6c-3.9-5.3-4.5-13.3-5.7-19.5c-1.5-7.1-2.3-14.2-2.6-21.4
					C737.7,384.6,738.7,376,739.8,367.4z"/>
				<path class="st5" d="M747,421.2c0.4-12.1,2.4-24.3,2.8-36.6c0.7-13.8-0.4-27.6-3.2-41.3c-2.2-9.6,1.5-18.4,4.3-27.6
					c-0.1,0-0.2,0-0.3,0c-2.8,5.4-5,11-6.6,16.6c0.1,6.1,0.8,12.2,2.1,18.2c1.1,5,1.6,10,1.5,15c0.2,9.6,0,19.2-0.6,28.8
					c-0.5,8.6-1.4,17.2-1.2,25.8c0,1.1,0.2,2.5,1.2,3.1C747,422.6,747,421.9,747,421.2z"/>
				<path class="st4" d="M697.6,440.4c0-8.7-1.5-17.6-0.3-26.2c0.7-4.5,1.8-9,3.3-13.4c0.3-0.1,0.5,0.1,0.7,0.3c1,1.7,0,3.8,0,5.7
					c0,1,0.3,1.9,0.3,2.8c0,0.6-0.1,1.2-0.1,1.8c0.1,1.1,0.5,2.1,1.1,3.1c0.6,1.8,1.1,3.7,1.4,5.5c0.7,2.4,1.8,4.7,2.7,7
					c3.2,8.1,6.6,16.3,7.1,25.1c0.1,4.4-0.1,8.9-0.7,13.3c-0.8,7.1-2.1,14.4-1.8,21.5c0.2,1.9,0,3.8-0.6,5.7c-0.4-0.7-0.6-1.3-0.8-2
					c-0.2-0.4-0.5-0.7-0.9-1.1c-3.4-3.5-4.7-9.5-6.2-14c-1.8-5.2-3.1-10.4-4-15.7C697.8,453.5,697.7,446.9,697.6,440.4z"/>
				<path class="st5" d="M708.4,479.9c-0.9-9.1-0.6-18.4-1.5-27.6c-0.8-10.3-3-20.5-6.5-30.5c-2.6-6.9-0.7-13.9,0.4-21
					c-0.1,0-0.1,0-0.2,0c-1.5,4.3-2.6,8.7-3.3,13.1c0.7,4.5,1.8,9,3.3,13.4c1.3,3.6,2.2,7.3,2.6,11c1.1,7.2,1.9,14.4,2.4,21.6
					c0.5,6.5,0.7,13,1.7,19.4c0.1,0.9,0.4,1.8,1.2,2.2L708.4,479.9z"/>
				<path class="st4" d="M682.8,322c11.2-1.5,22.3-4,33.4-5.7c5.8-0.8,11.6-1,17.4-1.5c1.9-0.2,3.8-0.2,5.6-0.3
					c1.4-0.1,2.7-0.2,4.1-0.3c1.1-0.3,2.2-0.5,3.4-0.6c0.6,0,1,0.3,1.1,0.6c0,0.4-0.2,0.8-0.7,1c-0.7,0.4-1.5,0.4-2.2,0.8
					c-0.7,0.4-1.3,1.1-2,1.5c-1.4,0.9-2.9,1.8-4.5,2.5c-3.1,1.5-6.4,2.7-9.5,4.3c-7.6,3.9-15.5,7.2-22.8,11.7
					c-3.8,2.3-7.4,5-11.4,6.9c-9.6,4.7-19.9,4.3-29.2,9.4c-5.2,2.8-10.8,5.3-16.6,7.4c-1.4,0.5-17.5,4.6-17.4,4
					c1.8-14,14.5-23.8,26.1-31.9c4.1-2.8,8.1-5.7,12.8-7.4C674.3,323.3,678.5,322.4,682.8,322z"/>
				<path class="st5" d="M649.7,347.2c-2.5,1.4-4.2,3.3-4.9,5.4c5.7-1.5,9.9-6.1,14.8-9.2c4.1-2.4,9-4.3,14.3-5.5
					c5.2-1.3,10.1-3.4,15.1-5.3c10.7-3.8,21.4-7.7,32.4-10.5c7.1-1.8,14.3-3.2,21.5-4.5c0.7-0.5,1.3-1.1,2-1.5
					c0.7-0.4,1.5-0.4,2.2-0.8c0.3-0.1,0.5-0.3,0.6-0.5c-15,3.8-30.3,5.2-45.7,10.6c-8.9,3.1-18,5.6-26.7,8.9
					c-4.5,1.6-8.8,3.4-13.1,5.4c-3.9,1.8-7.5,4.6-11.3,6.8C650.5,346.7,650.2,346.9,649.7,347.2z"/>
				<path class="st4" d="M701.8,486.6c-3-6.2-5.4-12.6-8.3-18.8c-1.5-3.2-3.4-6.2-5.1-9.3c-0.5-1-1.2-2-1.7-2.9
					c-0.4-0.7-0.8-1.4-1.2-2.2c-0.2-0.6-0.5-1.3-0.8-1.9c-0.2-0.2-0.4-0.5-0.7-0.4s-0.3,0.4-0.3,0.7c0,0.5,0.3,0.9,0.3,1.4
					s-0.1,1-0.1,1.5c0,1,0.1,2.1,0.2,3.1c0.3,2.1,0.8,4.1,1,6.3c0.6,5.1,1.5,10.3,1.7,15.5c0.1,2.7,0,5.4,0.3,8.1
					c0.9,6.4,4.5,11.5,5.1,17.9c0.3,3.6,1,7.4,1.8,10.9c0.2,0.9,3.5,10.4,3.8,10.1c6.5-5.6,7.2-15.3,7.4-23.9c0.2-3,0-6-0.6-8.9
					C704,491.3,703,488.9,701.8,486.6z"/>
				<path class="st5" d="M700.1,511.8c0.2,1.5-0.2,2.9-1.1,4.3c-1.1-3.4-0.2-7-0.3-10.6c-0.2-3.1-0.9-6.1-2-9
					c-1.1-3-1.6-6.3-2.4-9.4c-1.6-6.7-3.3-13.4-5.5-19.9c-1.5-4.2-3.2-8.3-4.9-12.4c0-0.5,0.1-1,0.1-1.5s-0.3-0.9-0.3-1.4
					c0-0.2,0-0.3,0-0.5c3.1,8.9,7.5,17.1,9.9,26.7c1.4,5.5,3.2,10.9,4.5,16.5c0.6,2.8,1.2,5.6,1.7,8.4c0.4,2.6,0.2,5.4,0.4,8
					L700.1,511.8z"/>
				<path class="st4" d="M777.4,276.8c0,0-74.9,58.3-167.7,12.9c0,0,18.1-12.9,54.1-12.5C695.7,277.6,777.4,276.8,777.4,276.8z"/>
				<path class="st5" d="M705.5,288.4c-5.6,0.6-11.2,1.1-16.7,1.4c-19.3,1.3-38.6-2.5-57.9,1.3c7.6-0.2,14.8,1.1,22.3,1.8
					c6.6,0.6,13.6,0.2,20.3,0.1c7.5-0.1,14.9-0.8,22.2-2c2.6-0.4,5,0,7.6-0.4c3.5-0.5,6.9-1,10.4-1.6c6.9-1.1,13.8-2.3,20.7-3.5
					c13.6-2.4,27.2-5,40.8-7.2c1.4-1,2.1-1.5,2.1-1.5l-12.2,0.1c-4.3,1-8.5,2.1-13.4,3.4C736.9,284.1,721.4,286.9,705.5,288.4z"/>
				<path class="st4" d="M766.3,317.1c0.5,8,1.1,16.1,2.6,24c1.5,8.3,4,16.5,6.5,24.6s5,16.4,8.2,24.3c7.1,17,22.1,29,33,43.2
					c1.2-7.5,1.6-15,1.3-22.6c-0.1-13.2-0.2-26.7-4.4-39.2c-3.9-11.6-11-21.8-16.9-32.6c-5-9.4-9.2-18.9-12.8-28.6
					c-3.3-8.9-7.7-18.2-7.5-27.8c0.1-1.1-0.1-2.3-0.5-3.4c-2.5-4.8-5.3,5.4-6,7.3c-2.3,6.1-3.7,12.4-4.1,18.7
					c-0.1,2.7,0,5.4,0.2,8.1C766.1,314.5,766.2,315.8,766.3,317.1z"/>
				<path class="st5" d="M799.4,383.5c2.6,4.2,5.2,8.4,7.3,12.8c0.4-6.2-5.8-15-8.5-20.5c-3.6-7.2-7.2-14.4-9.8-22
					c-4.5-12.6-8.9-25.2-11.6-38.3c-1.4-6.5-2.3-13-2.6-19.6c-0.2-5.2-1.2-11.9,0.4-16.9c-1.6,4.5-2.3,9-2.2,13.6
					c1.4,19.7,5.3,39.3,11.6,58.6c1.9,5.8,3.9,11.6,6.6,17.1C793.2,373.6,796.3,378.5,799.4,383.5z"/>
				<path class="st4" d="M678.3,462c-2.4,2.9-5.1,5.6-8,8.3c-3,2.6-6.2,5.1-9.6,7.4c-3.2,2.4-6.6,4.6-10.2,6.8
					c-7.7,4.4-16.9,4.5-25.2,6.7c1.7-3.1,3.7-6.1,6.1-8.9c3.9-5,7.9-10,13.1-13.6c4.9-3.3,10.5-5,15.9-7.4c4.7-2.1,9.1-4.5,13.2-7.1
					c3.9-2.4,8.3-4.6,11-8.3c0.2-0.4,0.6-0.8,1.2-1.1c2.3-1.1,0.4,3.6,0.1,4.5c-0.9,2.9-2.2,5.6-3.9,8.3c-0.8,1-1.6,2-2.5,3
					C679.2,461,678.8,461.5,678.3,462z"/>
				<path class="st5" d="M646.4,477.4c-2.3,0.8-4.5,1.7-6.5,2.7c1.7-2.5,6.6-4,9.2-5.3c3.6-1.7,7-3.5,10.2-5.5
					c5.6-3.4,10.8-7.1,15.6-11.1c2.5-2.1,4.8-4.3,6.7-6.6c1.6-1.9,3.9-4.2,4.8-6.5c-0.6,2-1.7,4-3.1,5.8c-6,6.8-13.3,13.1-21.6,18.8
					c-2.3,1.6-4.8,3.1-7.5,4.5C651.6,475.4,649,476.4,646.4,477.4z"/>
				<path class="st4" d="M655.8,380.8c-7.8,6.1-15.6,12.6-25.2,14.9c2.3,2.3,5.8,2.6,9,2.7c12.8,0,25.6-4.1,35.9-11.7
					c5.1-3.8,9.7-8.3,15.3-11.3c3.6-1.9,7.5-3.1,11.4-4.8c5.2-2.4,9.8-5.3,13.6-8.6c2.4-2,10.5-6.2,8.7-9.9c-1.8,0.4-3,2.3-4.8,3.2
					c-1.7,0.8-3.7,1.1-5.8,1.1C691.8,357.4,673,367.4,655.8,380.8z"/>
				<path class="st5" d="M645,391.8c4.1,1.4,18.7-7.2,21.4-8.5c27.3-16.6,30.7-19.3,55.8-26c1.7-1.3,2.6-2.9,2.6-4.6
					c-0.9,1-2.3,1.8-3.8,2.4c-0.6,0.1-1.2,0.3-1.8,0.4c-0.7,0.3-1.5,0.5-2.3,0.6C689.5,363.2,670.7,382.4,645,391.8z"/>
				<path class="st4" d="M668.6,499.8c-0.3,5.8-0.4,11.8-3,17c1.9-0.1,3.4-1.5,4.6-3c5.2-6.3,8.2-13.3,8.6-20.5
					c0.3-3.7,0-7.5,0.9-11.2c0.5-2.4,1.5-4.6,2.2-6.9c1-3.1,1.5-6.2,1.5-9.4c0-1.8,1.3-7.1-1.1-7.7c-0.5,1-0.2,2.2-0.4,3.4
					c-0.3,1.1-0.9,2.1-1.7,3C672,474.7,669.3,487,668.6,499.8z"/>
				<path class="st5" d="M669.4,508.9c2.2-1.3,4-11.1,4.5-12.9c3.1-18.6,3.2-21.1,9.9-34.9c0.2-1-0.2-2-1.1-2.9
					c0.1,0.9-0.1,1.8-0.4,2.6c-0.2,0.3-0.3,0.6-0.5,1c-0.1,0.4-0.4,0.9-0.6,1.3C673.7,478,675.1,493.8,669.4,508.9z"/>
				<path class="st4" d="M714.1,391.3c0.8-5,1.8-10,3.1-14.8c1-3,1.7-6.1,1.9-9.2c0.1-3.3-1.2-7.3,0.4-10.5c0.4-0.8,1.2-1.4,2.1-1.1
					c0.8,0.2,1.3,1.1,1.5,2c2,6.5-0.2,13.5,0.3,20.3c0.4,4.8,2.1,9.4,3.4,14.1c3.2,11.1,3.1,22,3.9,33.4c0.3,5.7-0.1,11.5-1.4,17.1
					c-0.6,2.9-1.3,5.7-2.1,8.5c-0.3,1.1-2.8,6.4-2.3,7.2l-8.4-16.1c-1-1.7-1.8-3.5-2.4-5.3c-0.7-2.3-1-4.7-1.1-7.1
					C711.9,417.1,712.3,404.1,714.1,391.3z"/>
				<path class="st5" d="M720.2,396l0.1,0.8c0.4,1.9,0.9,3.8,1,5.7c0,1.5-0.1,3-0.2,4.4c-0.8,9.4,0.1,18.8,2.6,28.1
					c0.4,1,0.6,2.1,0.5,3.1c-0.1-13.4-2-26.6-2.6-40c-0.7-13.6-0.3-27.2,1.3-40.8c-0.3-0.7-0.7-1.4-1.4-1.6c-0.4-0.1-0.8,0-1.1,0.1
					c-0.8,0.4-0.6,9.3-0.6,10.5c-0.2,3.6-0.3,7.2-0.3,10.8c0,3.3,0.3,6.5,0.1,9.8C719.6,390,719.7,393,720.2,396z"/>
				<path class="st4" d="M676.2,409.8c-10.8,4.4-21.2,9.3-29.7,17.1c-3.8,3.5-6.8,7.3-8.9,11.4c-1.8,3.7-3,7.8-5.5,11.1
					c1.8-2.3,7.4-4.1,10-5.4c3.6-1.7,7.3-3.3,11.2-4.8c7.7-2.9,13.9-4,20.7-9.1c6.2-4.5,11.8-9.3,16.7-14.4
					c2.7-2.9,12-13.3,9.4-17.3c-2.5,2.1-5.5,4-8.9,5.5C686.3,405.8,681.2,407.7,676.2,409.8z"/>
				<path class="st5" d="M656.5,425.4c-5.1,3.8-9.5,8-13,12.6c3.9-5,10.6-7.2,15.6-10.8c5.8-4.3,12-8.4,18.6-12.3
					c5.7-3.2,18.5-4.5,21.7-11c1-1.6,1.3-3.3,1.1-5C687.5,410.7,670.3,414.3,656.5,425.4z"/>
				<path class="st6" d="M729.2,340.9c-7.2,11.9-15.1,24.3-21.6,36.9c-6.8,13.2-9.8,26.6-14.6,40.4c-5.3,15.1-11.7,31.5-11.8,47.7
					c3.8-2.5,3.9-12.3,5-16.5c1.7-6.5,3.4-13,5.4-19.4c3.5-11.5,7.4-22.9,12.2-33.9c11.9-27.2,29-51.6,46-75.9
					c5.2-7.4,10.4-14.8,15.6-22.3c4.8-6.8,11.2-12.8,13.3-20.9c-5.6-1-15.4,13.1-18.6,17.2c-5.6,7.2-10.5,14.9-15.5,22.6
					c-3.6,5.7-7.3,11.3-10.9,17C732.1,336.1,730.6,338.5,729.2,340.9z"/>
				<path class="st5" d="M775.3,278.1l-0.1-0.1c-0.2,1.4-0.4,2.7-0.5,4C774.8,280.7,775,279.4,775.3,278.1z"/>
				<path class="st4" d="M265.9,72.8c-10.4-5-21.9-8.5-31.5-15.1c-5.2-3.6-9.8-7.5-13.9-11.7c0-0.3,0.3-0.6,0.8-0.6
					c2.6-0.2,4.5,2.2,6.8,3.3c1.1,0.5,2.4,0.8,3.5,1.4c0.7,0.4,1.3,0.9,2,1.2c1.3,0.5,2.8,0.7,4.3,0.6c2.7,0.1,4.8,1.2,7.4,1.6
					c3.3,0.4,6.6,0.7,9.9,0.9c11.6,0.9,23.4,1.7,34.2,6.3c5.6,2.5,10.7,5.4,15.4,8.6c8,5.1,15.8,11,24.5,14.8c2.6,1,4.8,2.3,6.4,4
					c-0.9,0.2-1.9-0.3-2.8-0.2c-0.6,0.1-1.2,0.2-1.8,0.4c-6.2,2-14,0-20.3-0.9c-7.3-0.9-14.4-2.4-21.1-4.4
					C281.5,80.3,273.7,76.6,265.9,72.8z"/>
				<path class="st5" d="M319.2,83.2c-11.4-4.3-22.3-10.1-33.7-14.4c-12.9-4.9-26.4-8.8-40.1-10.2c-9.8-1-16.9-7.3-24.8-12.9
					c-0.1,0.1-0.1,0.2-0.1,0.3c4,4.1,8.6,8,13.7,11.6c6,1.7,11.6,3.4,17.9,3.9c5.1,0.6,10.1,1.8,14.7,3.4c9.3,3,18.3,6.3,27.1,9.9
					c8,3.3,15.9,6.9,24.1,9.4c1.1,0.3,2.4,0.6,3.3-0.2L319.2,83.2z"/>
				<path class="st4" d="M321.5,136.2c-8.3-2.7-17.2-4.2-24.9-8.1c-4.2-2.2-8.1-4.7-11.6-7.4c0-0.2,0.2-0.5,0.5-0.5
					c1.9-0.4,3.6,1.2,5.4,1.8c0.9,0.3,1.9,0.3,2.8,0.7c0.5,0.3,1.1,0.5,1.6,0.7c1.1,0.2,2.2,0.2,3.3,0c2-0.2,3.7,0.4,5.7,0.5
					c2.5,0,5-0.1,7.5-0.3c8.7-0.4,17.6-1,26.1,1.3c4.4,1.3,8.5,3,12.4,4.9c6.4,3,12.9,6.6,19.7,8.6c2,0.5,3.8,1.3,5.2,2.4
					c-0.7,0.3-1.4,0-2.1,0.1c-0.5,0.1-0.9,0.3-1.3,0.5c-4.5,2.1-10.5,1.4-15.3,1.4c-5.4,0-10.9-0.4-16.2-1.2
					C333.8,140,327.5,138.3,321.5,136.2z"/>
				<path class="st5" d="M362.3,138.6c-8.9-2-17.6-5.3-26.6-7.4c-9.9-2.5-20.4-3.8-30.9-3.6c-7.4,0.2-13.3-3.8-19.7-7.2
					c0,0.1,0,0.1,0,0.2c3.4,2.7,7.2,5.1,11.3,7.3c4.7,0.7,9,1.4,13.7,1.2c3.8-0.1,7.6,0.3,11.3,1.1c7.2,1.3,14.3,2.8,21.2,4.7
					c6.3,1.7,12.5,3.6,18.9,4.6c0.8,0.1,1.9,0.2,2.4-0.4L362.3,138.6z"/>
				<path class="st4" d="M204.6,112.2c2.2-11.1,3.3-22.4,5.4-33.5c1.1-5.7,2.8-11.3,4.2-16.9c0.4-1.8,1.1-3.6,1.5-5.4
					c0.4-1.3,0.7-2.6,1-4c0.2-1.1,0.2-2.4,0.6-3.4c0.2-0.4,0.5-0.9,0.9-0.9s0.7,0.5,0.7,1c0.1,0.8,0,1.5,0.1,2.3s0.6,1.6,0.8,2.4
					c0.5,1.7,0.8,3.4,1,5c0.4,3.5,0.5,6.9,1,10.4c1.2,8.5,1.8,17,3.8,25.4c1,4.3,2.4,8.6,2.9,13c1.3,10.6-2.4,20.2-0.5,30.7
					c1,5.9,1.5,12.1,1.7,18.1c0,1.5-1.3,18-1.8,17.8c-12.7-6.2-17.9-21.3-21.8-34.9c-1.6-4.8-2.5-9.6-2.9-14.5
					C203.1,120.5,203.6,116.3,204.6,112.2z"/>
				<path class="st5" d="M217.8,151.6c0.6,2.5,1.5,5,3.5,6.4c0.4-5.8-2.6-11.3-3.9-17c-1-5.1-1.2-10.2-0.6-15.3
					c0.4-5.3,0-10.7-0.1-16c-0.2-11.3-0.4-22.7,0.5-34c0.6-7.3,1.6-14.6,2.6-21.8c-0.2-0.8-0.6-1.6-0.8-2.4s0-1.5-0.1-2.3
					c0-0.2-0.1-0.5-0.3-0.7c-1.2,15.4-4.8,30.4-4.6,46.7c0.1,9.4-0.5,18.8-0.2,28.2c0.2,4.7,0.4,9.4,0.9,14.1
					c0.5,4.3,2,8.6,2.8,12.9C217.6,150.7,217.7,151.1,217.8,151.6z"/>
				<path class="st4" d="M366.5,147.1c-6.8,0.9-13.7,1.1-20.5,1.9c-3.5,0.4-7,1.2-10.5,1.8c-1.1,0.2-2.2,0.5-3.3,0.7
					c-0.8,0.2-1.6,0.3-2.4,0.4c-0.7,0-1.4,0.1-2.1,0.2c-0.3,0.1-0.6,0.3-0.6,0.5c0,0.2,0.2,0.4,0.6,0.5c0.5,0.1,0.9,0,1.4,0.1
					s0.9,0.4,1.4,0.6c1,0.3,2,0.6,3,0.8c2.1,0.4,4.2,0.6,6.3,1c5.1,1.1,10.2,1.8,15.2,3.3c2.5,0.9,5.1,1.7,7.8,2.3
					c6.3,1.3,12.3-0.6,18.6,1c3.5,0.8,7.2,1.4,10.9,1.8c0.9,0.1,11,0,10.8-0.4c-3.2-8-12.2-11.7-20.3-14.6c-2.7-1.1-5.6-1.9-8.6-2.3
					C371.6,146.5,369,146.6,366.5,147.1z"/>
				<path class="st5" d="M389.8,156.7c1.7,0.4,3,1.3,3.7,2.4c-3.6,0-6.7-2.1-10.1-3.1c-2.9-0.8-6.1-1.1-9.2-1
					c-3.3-0.1-6.5-0.3-9.7-0.7c-6.8-0.7-13.7-1.1-20.6-1.1c-4.5,0-8.9,0.4-13.3,0.7c-0.5-0.2-0.9-0.5-1.4-0.6s-0.9,0-1.4-0.1
					c-0.2,0-0.3-0.1-0.4-0.2c9.4-0.1,18.6-1.6,28.5-0.8c5.7,0.5,11.4,0.5,17.1,1.1c2.9,0.3,5.7,0.6,8.5,1.1c2.6,0.6,5.2,1.4,7.7,2.2
					L389.8,156.7z"/>
				<path class="st4" d="M192.1,8.1c0,0,31.2,89.6-41.7,162.9c0,0-6.4-21.3,5.6-55.3C166.7,85.7,192.1,8.1,192.1,8.1z"/>
				<path class="st5" d="M180.1,79.9c-1.2,5.5-2.6,10.9-4,16.3c-5,18.7-14.8,35.8-17.4,55.2c2.3-7.3,5.7-13.7,8.8-20.6
					c2.7-6,4.6-12.9,6.6-19.2c2.2-7.1,4.1-14.3,5.3-21.7c0.4-2.6,1.5-4.8,2-7.3c0.6-3.4,1.3-6.9,1.9-10.4c1.2-6.9,2.3-13.8,3.3-20.7
					c2.1-13.7,4-27.3,6.3-41c-0.5-1.6-0.8-2.5-0.8-2.5s-1.5,4.4-3.8,11.6c-0.5,4.3-0.8,8.7-1.1,13.7C186,49,183.7,64.5,180.1,79.9z"
					/>
				<path class="st4" d="M226.8,31.6c7.6,2.2,15.5,4,23.6,5.3c8.4,1.1,16.8,1.6,25.3,1.8c8.5,0.4,17.1,0.4,25.6,0
					c18.4-1.2,34.5-11.7,51.6-17.4c-6.6-3.7-13.8-6.1-21-8.5c-12.5-4.2-25.3-8.4-38.6-8.4C281,4.2,269.2,7.6,257,9.7
					c-10.2,1.7-20.6,2.7-31.1,2.9c-9.5,0.3-19.7,1.5-28.7-1.8c-1-0.5-2.2-0.7-3.3-0.6c-5.3,0.9,3.4,6.8,5,8c5,3.9,10.5,7.6,16.4,9.9
					c2.5,0.9,5.1,1.7,7.8,2.4L226.8,31.6z"/>
				<path class="st5" d="M300.3,21.5c4.7-1.2,9.6-2.1,14.5-2.8c-5.8-2.4-16.1,0.6-22.1,1.4c-8,1.1-15.9,2.2-24,2.2
					c-13.3,0.2-26.7,0.3-40-1.3c-6.7-0.8-13.2-2-19.4-3.8c-5-1.4-11.6-2.7-15.9-5.8c3.7,2.7,7.7,5.3,12.2,6.5
					c18.9,5,38.9,7.6,59.2,7.8c6.1,0.2,12.3-0.1,18.3-0.8C289,24.1,294.7,22.9,300.3,21.5z"/>
				<path class="st4" d="M335.7,161.4c1.9,3.3,3.8,6.7,5.3,10.3c1.6,3.7,2.7,7.6,3.9,11.5c1.2,3.9,2.3,7.9,3.1,11.9
					c1.7,8.7-1.2,17.4-1.8,26c-2.5-2.8-4.7-5.7-6.5-8.7c-3.4-5.3-7-10.7-8.6-16.8c-1.5-5.7-1.4-11.6-1.9-17.5
					c-0.4-5-1.3-9.9-2.5-14.8c-1-4.4-1.7-9.3-4.3-13.1c-0.4-0.5-0.6-1-0.7-1.5c-0.3-2.6,3.5,0.8,4.3,1.3c2.6,1.9,4.8,4.1,6.6,6.4
					c0.8,1.1,1.4,2.2,2.1,3.3L335.7,161.4z"/>
				<path class="st5" d="M340,196.6c0,2.4,0.1,4.7,0.5,7.1c-1.8-2.4-1.7-7.5-2-10.4c-0.5-3.8-0.9-7.6-1.9-11.4
					c-1.5-6.2-3.1-12.4-5.5-18.3c-1.1-2.9-2.5-5.7-4.1-8.5c-1.3-2.1-2.7-5.1-4.6-6.6c1.9,1.4,3.4,3.1,4.5,4.8
					c4.8,8.6,8.4,17.4,10.8,26.4c0.8,2.8,1.5,5.7,1.9,8.6S339.9,193.8,340,196.6z"/>
				<path class="st4" d="M251.6,156.7c3.3,9.3,6.9,18.9,6,28.6c2.9-1.4,4.3-4.6,5.4-7.6c4.2-12.4,4.3-25.3,0.5-37.8
					c-1.9-6.1-4.8-11.9-5.8-18.2c-0.7-4-0.5-8.2-0.9-12.3c-0.5-5.3-1.7-10.6-3.8-15.7c-1.2-2.9-2.5-11.9-6.6-11.4
					c-0.2,1.9,1.2,3.6,1.5,5.5c0.1,2-0.1,3.9-0.8,5.8C241,115.1,244.4,136.1,251.6,156.7z"/>
				<path class="st5" d="M258.5,170.4c2.6-3.4-0.8-20-1.2-23c-7-31.1-8.4-35.3-6.7-61.1c-0.9-2-1.9-3.7-3.5-3.9
					c0.7,1.4,1,2.9,1.1,4.4c-0.1,0.6-0.2,1.2-0.2,1.8c0,0.8,0,1.6-0.2,2.4C245.7,119.1,257.9,143,258.5,170.4z"/>
				<path class="st4" d="M368.4,182.7c5.4,2.1,11.1,4.2,15.1,8.4c0.3-1.8-0.2-3.7-1.3-5.3c-3.8-6.5-9.7-11.8-16.7-14.8
					c-3.4-1.5-7.1-2.4-10.3-4.4c-2.1-1.3-3.9-2.9-5.8-4.3c-2.4-1.8-5.3-3.2-8.5-4.4c-1.7-0.6-6.3-3.5-7.7-1.4c0.8,0.8,2.1,0.9,3,1.5
					c1,0.8,1.8,1.7,2.3,2.6C344.5,169.9,355.1,177.7,368.4,182.7z"/>
				<path class="st5" d="M377.2,184.9c-0.5-2.5-9.2-7.3-10.7-8.3c-16.6-8.9-18.9-9.8-29.8-20.6c-1.2-0.4-2.4-0.5-3.1,0
					c0.9,0.3,1.7,0.7,2.4,1.2l0.8,0.8c0.4,0.3,0.7,0.6,1,1C349.4,170.9,364.8,174.6,377.2,184.9z"/>
				<path class="st4" d="M280.3,104.8c-4.6-2.4-8.9-4.9-13-7.7c-2.6-1.8-5.1-3.7-8.1-4.8c-2.9-1.1-7.3-1.2-9.8-3.8
					c-0.7-0.7-0.8-1.6-0.4-2.3c0.4-0.6,1.4-0.9,2.4-0.8c6.8,0.2,12.8,4.5,19.3,6.2c4.7,1.2,9.6,1.1,14.4,1.3
					c11.6,0.6,21.9,4.2,32.9,7.1c5.8,1.7,11.1,4,15.8,6.8c2.5,1.5,5,3.1,7.3,4.7c1,0.7,5.1,4.7,6.1,4.6l-17.9,2.8
					c-1.9,0.3-3.8,0.5-5.8,0.6c-2.4-0.1-4.8-0.5-7.1-1.2C303.5,114.9,291.3,110.4,280.3,104.8z"/>
				<path class="st5" d="M286.7,100.5l0.8,0.1c1.9,0.2,3.9,0.5,5.7,0.9c1.4,0.5,2.8,1,4.1,1.6c8.7,3.7,18,6.2,27.5,6.5
					c1.1,0,2.2,0.1,3.1,0.5c-12.7-4.2-25.9-6.6-38.7-10.4c-13.5-3.8-26.3-8.7-38.2-14.4c-0.8,0-1.6,0.3-2,0.8
					c-0.2,0.3-0.3,0.7-0.2,1.1c0.1,0.9,8.6,3.5,9.7,3.9c3.4,1.3,6.7,2.6,10.2,3.8c3.2,1,6.2,1.8,9.3,3
					C280.6,99.1,283.6,100,286.7,100.5z"/>
				<path class="st4" d="M285.6,146.6c0.7,11.6,2,23.1,6.6,33.6c1.7,4.3,4.4,8.3,7.9,12.1c2.9,2.9,6.5,5.3,8.7,8.7
					c-1.6-2.5-1.5-8.3-1.9-11.2c-0.5-4-0.8-8-1-12.1c-0.3-8.2,0.7-14.4-2-22.5c-2.1-6.9-4.9-13.8-8.3-20.5
					c-1.9-3.4-8.7-15.6-13.4-14.5c1.3,3.3,2.1,6.8,2.4,10.2C285.1,135.8,285.3,141.2,285.6,146.6z"/>
				<path class="st5" d="M294.1,170.3c1.7,5.6,4.3,11.1,7.7,16.4c-3.5-5.3-3.4-12.4-5.2-18.2c-2.1-7.1-4.3-14.2-5.6-21.5
					c-1.2-6.4,1.6-19-3.5-24.1c-1.5-1.5-3-2.6-4.5-2.6C290.1,136.2,288,153.6,294.1,170.3z"/>
				<path class="st6" d="M237.3,74.3c9,10.7,18.1,22.1,28,32.3c10.3,10.7,22,17.8,33.5,26.8c12.6,9.9,26.1,21.2,41.4,26.5
					c-1.1-4.4-10.4-7.7-14-10c-5.6-3.7-11.2-7.4-16.7-11.3c-10.1-7.1-19.5-14.6-28.2-22.4c-21.9-20-39.6-44.1-57.1-68
					c-5.4-7.3-10.7-14.6-16.1-21.9c-4.9-6.6-8.5-14.6-15.6-19.2c-2.8,5,7.5,18.8,10.3,23.1c5,7.6,10.7,14.8,16.4,21.9L232,67.8
					C233.8,70,235.5,72.2,237.3,74.3z"/>
				<path class="st5" d="M192.7,10.6l-0.2,0.1c1.2,0.6,2.4,1.2,3.6,1.8C195,11.9,193.9,11.2,192.7,10.6z"/>
				<path class="st7" d="M12.7,397c0.1-0.3,0.3-0.5,0.6-0.8c3.3-3.2,17.5,3.1,21.9,3.7c3.5,0.4,6.8,1,10.1,1.9
					c14.3,4.6,24.2,22.5,32.8,33.8c3.6,4.8,10.1,23.5,15.3,25.1c-19.7-5.5-39.8-11.4-56.4-23.4c-5.9-4.1-10.3-8.9-13.2-14.2
					c-1.4-2.7-2.3-5.6-3.4-8.5C18.8,411,10.3,401.4,12.7,397z"/>
				<path class="st8" d="M72.7,444.2c-18.8-19.9-37.9-31.6-60.1-47c-0.3,0.7-0.4,1.5-0.3,2.3C34.9,414,48.1,430.6,72.7,444.2z"/>
				<path class="st7" d="M45.9,407.8c5.7,0.6,11.6,0.7,17.1-0.9c11.6-3.5,19.7-14.3,31.1-18.4c-10.9-7.3-19.6-12.8-32.9-11.7
					c-9.6,0.8-19.5,1.7-27.6,6.8c-6.4,4.1-13.3,7.4-19.7,11.6c-1,0.5-1.6,1.3-1.7,2.1C11.7,403.1,41.2,407.3,45.9,407.8z"/>
				<path class="st8" d="M75.9,388.9c-6.9,1.3-13.6,3-20.1,4.9C62.7,392.7,69.5,391.1,75.9,388.9z"/>
				<path class="st8" d="M55.7,393.9c-13.9,2.3-27.9,2.4-42,1.6c-0.8,0.5-1.4,1.2-1.5,1.9c0,0.1,0,0.2,0,0.3
					C26.5,401.7,41.3,397.9,55.7,393.9z"/>
				<path class="st7" d="M33.2,425.9c2.7,5.3,4.4,10.8,4.9,16.5c0.6,12.1-6.9,23.4-6.9,35.5c-10.5-7.8-18.6-14.2-22-27.1
					c-2.5-9.3-5-19-2.8-28.3c1.7-7.4,2.5-15,4.4-22.4c0.1-0.9,0.6-1.7,1.5-2.3C17.3,395.2,31.2,421.5,33.2,425.9z"/>
				<path class="st8" d="M17.5,434c-0.6,10.2,4.9,19.4,8.9,28.8c-5.9-16.1-4.9-32.6-9.2-49c-0.8-4.5-3.7-7.9-3.6-11.8
					c-0.3-1.5-0.6-3.1-1-4.5c-0.1,0-0.2,0-0.3,0.1C14.9,409,17.3,420.7,17.5,434z"/>
				<path class="st2" d="M10.6,408.1c-3.2-2.9-9.4-13.8-5.6-17.5c2.6-2.6,6.8-2.9,10.5-2.6c3.7,0.3,7.2,0.9,10.6,1.9
					c-3.9,1.9-9,3.5-11.7,6.9C13.5,397.9,9.7,407.3,10.6,408.1z"/>
				<path class="st2" d="M-84.6,333.5c-1.9-0.2-3.7-0.4-5.6-0.6l-1.9,2.8c6.1,1.9,12.5,3,18.7,4.8c17.1,5,32.3,14.8,46.4,25.5
					c13.3,10.2,25.8,19.8,37.6,31.7c0.6,0.6,1.4-2.8,1.3-3.3c-0.2-1.7-3.3-4-4.5-5.2c-3.6-3.4-7.6-6.7-11.8-9.9l-27-21
					c-3.9-3-7.6-6.2-12-8.5s-9.2-4.2-13.2-7C-64.8,337.2-74.7,334.8-84.6,333.5z"/>
				<path class="st7" d="M548.1,664.3c-0.3,0-0.6,0-0.9-0.1c-4.4-1.3-6-16.7-7.6-20.9c-1.4-3.2-2.5-6.4-3.3-9.7
					c-3.1-14.7,7.5-32.2,13.2-45.2c2.4-5.5,15.5-20.4,14.3-25.7c4.9,19.8,9.8,40.2,7.5,60.5c-0.7,6.5-2.3,13-5.9,18.5
					c-1.7,2.5-3.8,4.8-5.7,7.1C557.2,652,553,664.2,548.1,664.3z"/>
				<path class="st8" d="M559.4,588.8c-8,26.2-8.8,48.5-11.2,75.5c0.8-0.1,1.6-0.4,2.1-0.9C551.8,636.6,559.8,616.9,559.4,588.8z"/>
				<path class="st7" d="M541,630.1c-2.3-5.3-5.1-10.5-9.3-14.4c-8.7-8.4-22.2-10-31.3-18c-0.9,13-1.4,23.4,6.1,34.4
					c5.4,7.9,11.1,16.2,19.5,20.7c6.7,3.6,13,7.9,19.8,11.3c0.8,0.4,1.8,0.8,2.7,0.4C553.8,662.1,542.9,634.4,541,630.1z"/>
				<path class="st8" d="M509.8,613.4c4.2,5.2,9.2,10.1,14.2,15.1C519.8,623.2,515.1,618.2,509.8,613.4z"/>
				<path class="st8" d="M524,628.5c8.8,11,15.9,23.1,22.2,35.8c0.8,0.4,1.7,0.6,2.4,0.3c0.1-0.1,0.2-0.1,0.3-0.2
					C545.3,650,534.7,639.1,524,628.5z"/>
				<path class="st7" d="M563,632.2c3.3-4.7,7-9.3,11.9-12.4c10.2-6.5,23.7-5.5,34.2-11.5c-1.6,13-3.2,23.2-12.7,32.6
					c-6.8,6.7-14,13.7-23.2,16.5c-7.3,2.2-14.3,5.2-21.7,7.3c-0.9,0.3-2,0.5-2.7-0.1C544.2,661.2,560.2,636.1,563,632.2z"/>
				<path class="st8" d="M577.8,641.9c9.2-4.5,14.4-13.8,20.7-21.9c-11.1,13.1-26,20.3-38,32.2c-3.6,2.9-5.1,7.1-8.5,9
					c-1.2,1-2.4,2-3.5,3.1l0.2,0.2C557.4,656.5,566.3,648.6,577.8,641.9z"/>
				<path class="st2" d="M558.7,660.7c-1,4.2-7.3,14.9-12.4,13.5c-3.6-1-5.8-4.5-7.4-7.8c-1.6-3.3-2.8-6.7-3.6-10.2
					c3.6,2.4,7.5,6,11.7,6.7C548.4,663.2,558.4,661.8,558.7,660.7z"/>
				<path class="st2" d="M540.9,780.3c0.7,1.7,1.5,3.5,2.2,5.2l3.4,0.3c-1.3-6.3-3.5-12.4-5-18.6c-4.2-17.4-3.1-35.4-0.7-52.9
					c2.3-16.6,4.5-32.2,9-48.4c0.2-0.8-3.1,0.1-3.5,0.4c-1.4,1.1-1.9,4.8-2.3,6.5c-1.3,5-2.1,10-2.8,15.1l-4.9,33.8
					c-0.9,4.8-1.4,9.7-1.4,14.6c0.2,4.8,0.9,10.1,0.4,15C534.3,761.3,537.1,771,540.9,780.3z"/>
				<path class="st7" d="M472,104.1c0.3,0.2,0.5,0.4,0.7,0.6c3,3.5-4.3,17.3-5.2,21.6c-0.6,3.4-1.4,6.7-2.6,10
					c-5.5,14-24,22.6-36,30.4c-5,3.2-24.2,8.4-26.1,13.5c6.9-19.3,14-38.9,27.1-54.6c4.2-5,9-9.6,15.1-12.2c2.8-1,5.7-2,8.7-2.8
					C457.6,109.3,467.8,101.5,472,104.1z"/>
				<path class="st8" d="M420.9,160.8c21.1-17.4,34.1-35.6,51-56.8c-0.6-0.4-1.4-0.5-2.3-0.4C453.7,125.2,436.1,137.2,420.9,160.8z"
					/>
				<path class="st7" d="M459,136.6c-1.2,5.7-1.3,11.4-0.3,17.1c2.7,11.8,12.9,20.6,16.2,32.3c8-10.4,14.1-18.7,13.9-32
					c-0.1-9.6-0.3-19.6-4.9-28c-3.6-6.7-6.5-13.8-10.3-20.4c-0.5-0.8-1.1-1.7-2-1.8C466,102.8,459.8,131.9,459,136.6z"/>
				<path class="st8" d="M475.8,167.8c-0.7-6.6-2.1-13.5-3.5-20.4C472.9,154.2,474.1,161,475.8,167.8z"/>
				<path class="st8" d="M472.3,147.3c-1.1-14-0.7-28.1,1.3-42.1c-0.4-0.7-1-1.4-1.8-1.6c-0.1,0-0.2,0-0.3,0
					C466.4,117.6,469.3,132.6,472.3,147.3z"/>
				<path class="st7" d="M441.9,122.7c-5.4,2.1-11,3.8-16.8,3.7c-12.1-0.2-22.8-8.5-34.9-9.3c8.5-9.9,15.4-17.6,28.5-20.2
					c9.4-1.8,19.3-3.7,28.5-0.9c7.3,2.2,14.8,3.5,22.1,5.9c1.1,0.3,1.9,0.9,2.2,1.6C473.5,108.9,446.3,121,441.9,122.7z"/>
				<path class="st8" d="M434.8,106.5c-10.2-1.3-19.7,3.6-29.4,6.9c16.5-4.8,32.9-2.6,49.5-5.9c4.6-0.5,8.1-3.2,12-2.8
					c1.6-0.2,3.2-0.4,4.7-0.7c0-0.1,0-0.2,0-0.3C459.9,105.5,448.1,107.2,434.8,106.5z"/>
				<path class="st2" d="M461.2,101.3c3.1-3,14.4-8.4,17.8-4.4c2.4,2.8,2.4,6.9,1.9,10.6c-0.5,3.5-1.4,7-2.7,10.5
					c-1.6-4-2.8-9.2-6-12.1C471.1,104.9,462,100.5,461.2,101.3z"/>
				<path class="st2" d="M542,11.5c0.4-1.9,0.7-3.7,1-5.5c-0.9-0.7-1.8-1.4-2.7-2.1c-2.3,6-3.9,12.2-6.1,18.3
					c-6.1,16.8-16.9,31.2-28.6,44.5C494.5,79.2,484.1,91,471.4,102c-0.6,0.5,2.7,1.6,3.2,1.6c1.8-0.1,4.2-3,5.5-4.1
					c3.8-3.6,7.4-7.2,10.7-11.1l22.8-25.5c3.5-3.6,6.6-7.4,9.2-11.4c2.5-4.2,4.8-8.9,7.9-12.7C537,30.9,540.1,21.2,542,11.5z"/>
				<path class="st6" d="M100.2,312.4c-0.7,0.2-1.4,0.5-2,0.8c-0.7,0.3-1.2,0.7-1.7,1.2c-0.8,1-1,2.2-0.5,3.2
					c0.2,0.9,1.3,1.7,2.7,1.9c4.5,0.4,15.5,3.5,12.3-5.4C109.6,310.3,103.8,311.1,100.2,312.4z"/>
				<path class="st6" d="M114.2,331.8c3.6,0,7.1-0.4,10.5-1.2c0.2-0.2,0.3-0.5,0.4-0.7c0,0,0-0.1,0-0.2c0.5-1.4,0-3.3-1.4-4
					c-3.1-1.5-5.6-1.5-9-1.7c-0.4-0.1-0.8,0-1.1,0.1c-0.3,0.2-0.5,0.5-0.6,0.7c-0.9,1.3-1.3,2.6-1.1,4
					C112.1,330,113,331,114.2,331.8z"/>
				<path class="st6" d="M134.3,318.8c-0.2,4.9-7.3,2.5-10.2,1.5c-1.3-0.4-2.4-1.1-3.1-1.9c-0.9-1.1-1.1-2.3-0.7-3.5
					c1.5-3.6,11.9-2.5,13.5,0.6C134.3,316.5,134.4,317.6,134.3,318.8z"/>
				<path class="st6" d="M126.5,308.6c-3.1,0.5-5.9-0.1-8-2.6c-0.2-0.2-0.3-0.4-0.3-0.6c0-0.2,0-0.4,0-0.6c0.1-1.3,1-2.5,2.5-3.3
					c1.3-0.5,5.8,0.8,7,1.4c1.9,1.2,2.4,3.1,1.3,4.6C128.4,308.1,127.5,308.5,126.5,308.6z"/>
				<path class="st6" d="M112.2,305.9c-2.6,0.6-11.7,1.1-11.4-3.8c0.2-3,6.9-3,9.2-3.2c2.8-0.2,6.9,4,3.6,6.4
					C113.3,305.6,112.8,305.8,112.2,305.9z"/>
				<path class="st6" d="M91.4,288c0.5,0.7,1.4,1.3,2.5,1.6c1.4,0.5,3.1,0.7,4.7,0.6c2.3-0.1,4.1-1.4,4.1-2.9c0-1.5-1.3-2.1-2.2-3
					c-0.3-0.3-0.9-0.5-1.5-0.5C97,283.8,88.5,283.9,91.4,288z"/>
				<path class="st6" d="M108.2,293.9c0.5,0.7,1.4,1.3,2.5,1.7c1.4,0.5,3.1,0.7,4.7,0.6c2.2-0.1,4-1.3,4-2.8c0.1-1.5-1.3-2.1-2.1-3
					c-0.4-0.3-0.9-0.5-1.5-0.5C113.8,289.7,105.3,289.8,108.2,293.9z"/>
				<path class="st6" d="M125.9,297.8c0.5,0.7,1.4,1.3,2.5,1.7c1.4,0.5,3.1,0.7,4.7,0.6c2.2-0.1,4-1.3,4-2.8c0.1-1.5-1.3-2.1-2.2-3
					c-0.3-0.3-0.9-0.5-1.5-0.5C131.5,293.6,123,293.7,125.9,297.8z"/>
				<path class="st6" d="M98.5,307.2c0.2,3.4-5.5,3.8-7.6,2.9c-1.6-0.8-2.2-2.2-1.5-3.5c0.6-0.8,1.8-1.3,3.1-1.2
					C94.4,305.3,98.3,304,98.5,307.2z"/>
				<path class="st6" d="M89.3,293.6c2.5-0.2,6.4,2.1,2.5,4c-0.8,0.3-1.7,0.5-2.6,0.4c-2.1,0.1-4.5,0-5.9-1.6
					c-0.4-0.8-0.1-1.6,0.8-2.1C85.2,293.7,88,293.7,89.3,293.6z"/>
				<path class="st6" d="M141.8,306.8c2.5-0.2,6.4,2.1,2.5,4c-0.8,0.3-1.7,0.5-2.6,0.5c-2.1,0.1-4.5,0-5.9-1.6
					c-0.4-0.8-0.1-1.6,0.8-2.1C137.7,306.9,140.5,306.9,141.8,306.8z"/>
				<path class="st6" d="M126.9,282.1c2.5-0.3,6.4,2.1,2.5,4c-0.8,0.3-1.7,0.5-2.6,0.5c-2.1,0.1-4.5,0-5.8-1.5
					c-0.4-0.8-0.1-1.6,0.7-2.1C122.8,282.2,125.6,282.2,126.9,282.1z"/>
				<path class="st6" d="M470.6,544.2c-0.6,0.2-1.1,0.4-1.6,0.7c-0.5,0.3-1,0.6-1.3,1c-0.6,0.8-0.7,1.7-0.4,2.6
					c0.2,0.7,1,1.3,2.1,1.5c3.5,0.3,12.3,2.8,9.8-4.2C478.1,542.5,473.5,543.2,470.6,544.2z"/>
				<path class="st6" d="M490.5,557.9v0.1c-1.5,3.5-9.6,3.2-10.4-0.7c-0.1-1.1,0.2-2.2,0.9-3.2c0.1-0.2,0.3-0.4,0.5-0.6
					c0.2-0.1,0.6-0.2,0.9-0.1c2.7,0.2,4.7,0.2,7.1,1.3C490.6,555.6,491,556.8,490.5,557.9z"/>
				<path class="st6" d="M497.6,549.2c-0.2,3.8-5.8,2-8,1.2c-2.4-0.8-3.6-2.6-3-4.3c1.1-2.8,9.4-2,10.7,0.5
					C497.7,547.4,497.8,548.3,497.6,549.2z"/>
				<path class="st6" d="M462.9,554.5c-0.6-0.1-1.1,0-1.6,0.3c-1.2,1.1-1.2,2.5-0.1,3.6c0.5,0.3,1.1,0.5,1.7,0.6
					c1.8,0.3,3.6,0.3,5.4,0.2c0.4,0,0.8-0.1,1.1-0.4c0.3-0.3,0.4-0.7,0.3-1.1c0-0.9-0.7-1.8-1.8-2.3
					C466.4,554.8,464.7,554.5,462.9,554.5z"/>
				<path class="st6" d="M476.8,567.4c-2.6,0.5-5.3-0.4-6.3-2c-0.1-0.1-0.2-0.3-0.3-0.5c0-0.2,0-0.3,0-0.5c0.1-1,0.8-2,2-2.6
					c1-0.4,4.5,0.6,5.6,1.1c1.5,1,1.9,2.4,1,3.7C478.3,567.1,477.6,567.3,476.8,567.4z"/>
				<path class="st6" d="M491.5,541.2c-2.6,0.5-5.3-0.4-6.4-2c-0.1-0.1-0.2-0.3-0.3-0.5c0-0.2,0-0.3,0-0.5c0.1-1,0.8-2,2-2.6
					c1-0.4,4.5,0.6,5.6,1.1c1.5,1,1.9,2.4,1,3.7C492.9,540.8,492.3,541.1,491.5,541.2z"/>
				<path class="st6" d="M495.9,567c-2.1,0.5-9.3,0.9-9-3c0.2-2.4,5.5-2.4,7.3-2.5c2.2-0.2,5.4,3.2,2.9,5.1
					C496.8,566.8,496.4,566.9,495.9,567z"/>
				<path class="st6" d="M480.2,539c-2.1,0.5-9.3,0.9-9-3c0.2-2.4,5.5-2.4,7.3-2.5c2.2-0.2,5.4,3.2,2.9,5.1
					C481,538.8,480.6,538.9,480.2,539z"/>
				<path class="st6" d="M498.7,553.6c1.7-0.5,10.1,1,7.4,4.2c-0.3,0.3-0.6,0.5-1,0.7c-1.4,0.7-3.1,1.1-4.8,1
					c-1-0.1-1.9-0.3-2.6-0.8c-0.9-0.6-1.3-1.5-1.3-2.3C496.2,555.2,497.1,554.1,498.7,553.6z"/>
				<path class="st6" d="M480.8,573.5c0.4,0.6,1.1,1,2,1.3c1.1,0.4,2.4,0.6,3.7,0.5c1.8-0.1,3.1-1.1,3.2-2.3c0-1.2-1-1.7-1.7-2.4
					c-0.3-0.2-0.7-0.4-1.2-0.4C485.2,570.2,478.5,570.3,480.8,573.5z"/>
				<path class="st6" d="M463.7,524.8c0.4,0.6,1.1,1,2,1.3c1.1,0.4,2.4,0.6,3.7,0.5c1.8-0.1,3.1-1.1,3.2-2.3c0.1-1.2-1-1.7-1.7-2.4
					c-0.3-0.2-0.7-0.4-1.2-0.4C468.1,521.5,461.4,521.6,463.7,524.8z"/>
				<path class="st6" d="M477,529.5c0.4,0.6,1.1,1,2,1.3c1.1,0.4,2.4,0.6,3.7,0.5c1.8-0.1,3.1-1.1,3.2-2.3c0-1.2-1-1.7-1.7-2.4
					c-0.3-0.2-0.7-0.4-1.2-0.4C481.4,526.2,474.7,526.3,477,529.5z"/>
				<path class="st6" d="M491,532.6c0.4,0.6,1.1,1,2,1.3c1.1,0.4,2.4,0.6,3.7,0.5c1.8-0.1,3.1-1.1,3.2-2.3c0-1.2-1-1.7-1.7-2.4
					c-0.3-0.2-0.7-0.4-1.2-0.4C495.4,529.3,488.7,529.4,491,532.6z"/>
				<path class="st6" d="M465.2,571.2c-0.2,0-0.5,0-0.7,0.1c-0.2,0.1-0.3,0.3-0.4,0.5c-0.3,0.9-0.2,1.8,0.4,2.5
					c0.5,0.6,1.3,1.1,2.2,1.5c2.5,0.9,9.4-2.4,4.7-4.2C469.6,571,467.2,571.2,465.2,571.2z"/>
				<path class="st6" d="M502.3,575.9c-1.4,0.7-4.4,0.7-5.9,0.8c-0.3,0-0.7,0-1-0.1c-0.5-0.3-0.8-0.7-1-1.1
					c-0.4-0.5-0.6-1.1-0.5-1.7c0-0.2,0.1-0.3,0.2-0.5c1.7-2.7,5.5-2.3,7.5-0.5C503.5,574.5,503.3,575.4,502.3,575.9z"/>
				<path class="st6" d="M480.2,581.4c0.2,2.7-4.4,3-6,2.3c-1.3-0.7-1.7-1.8-1.2-2.8c0.5-0.6,1.4-1,2.5-1
					C476.9,579.9,480,578.9,480.2,581.4z"/>
				<path class="st6" d="M469.3,540.1c0.2,2.7-4.4,3-6,2.3c-1.3-0.7-1.7-1.8-1.2-2.8c0.4-0.6,1.4-1,2.5-1
					C466,538.6,469.1,537.6,469.3,540.1z"/>
				<path class="st6" d="M492,578.8c2-0.2,5.1,1.7,2,3.2c-0.6,0.3-1.3,0.4-2.1,0.4c-1.7,0.1-3.6,0-4.6-1.2c-0.3-0.6-0.1-1.3,0.6-1.7
					C488.8,578.9,491,578.9,492,578.8z"/>
				<path class="st6" d="M462,529.3c2-0.2,5.1,1.7,2,3.2c-0.6,0.3-1.3,0.4-2.1,0.4c-1.7,0.1-3.6,0-4.6-1.2c-0.3-0.6-0.1-1.3,0.6-1.7
					C458.8,529.4,461,529.4,462,529.3z"/>
				<path class="st6" d="M503.6,539.7c2-0.2,5.1,1.7,2,3.2c-0.6,0.2-1.3,0.4-2.1,0.4c-1.6,0.1-3.6,0-4.6-1.2
					c-0.3-0.6-0.1-1.3,0.6-1.7C500.4,539.8,502.6,539.8,503.6,539.7z"/>
				<path class="st6" d="M491.8,520.2c2-0.2,5.1,1.7,2,3.2c-0.6,0.3-1.3,0.4-2.1,0.4c-1.7,0.1-3.6,0-4.6-1.2
					c-0.3-0.6-0.1-1.3,0.6-1.7C488.6,520.3,490.8,520.3,491.8,520.2z"/>
				<path class="st6" d="M555.4,125.2c-0.6,0.2-1.2,0.5-1.7,0.7c-0.6,0.3-1.1,0.6-1.5,1c-0.7,0.9-0.8,1.9-0.5,2.8
					c0.2,0.8,1.1,1.5,2.3,1.7c3.9,0.3,13.6,3.1,10.8-4.7C563.7,123.3,558.7,124,555.4,125.2z"/>
				<path class="st6" d="M577.4,140.4v0.1c-1.7,3.9-10.6,3.6-11.6-0.8c-0.1-1.2,0.2-2.4,1-3.5c0.1-0.2,0.3-0.5,0.5-0.6
					c0.3-0.1,0.6-0.2,0.9-0.1c3,0.2,5.2,0.2,7.9,1.5C577.4,137.5,577.9,139.1,577.4,140.4z"/>
				<path class="st6" d="M585.4,130.7c-0.2,4.3-6.4,2.2-8.9,1.3c-2.7-0.8-4.1-2.8-3.4-4.8c1.3-3.2,10.4-2.2,11.9,0.5
					C585.4,128.8,585.5,129.8,585.4,130.7z"/>
				<path class="st6" d="M546.8,136.6c-0.6-0.1-1.2,0-1.8,0.3c-1.3,0.8-1.4,3.1-0.2,4c0.5,0.3,1.2,0.6,1.9,0.7c2,0.3,4,0.4,6,0.2
					c0.5,0,0.9-0.2,1.2-0.4c0.3-0.4,0.4-0.8,0.4-1.2c-0.1-1-0.8-2-1.9-2.6C550.7,136.9,548.8,136.6,546.8,136.6z"/>
				<path class="st6" d="M562.3,150.9c-2.7,0.4-5.2-0.1-7-2.3c-0.1-0.2-0.3-0.3-0.3-0.5c0-0.2,0-0.4,0-0.6c0.1-1.1,0.9-2.2,2.2-2.9
					c1.1-0.4,5.1,0.7,6.2,1.2c1.7,1.1,2.1,2.7,1.1,4.1C563.9,150.5,563.1,150.8,562.3,150.9z"/>
				<path class="st6" d="M578.5,121.8c-2.7,0.4-5.2-0.1-7-2.3c-0.1-0.2-0.3-0.3-0.3-0.5c0-0.2,0-0.4,0-0.6c0.1-1.1,0.9-2.2,2.2-2.9
					c1.1-0.4,5.1,0.7,6.2,1.2c1.7,1.1,2.1,2.7,1.1,4.1C580.2,121.4,579.4,121.7,578.5,121.8z"/>
				<path class="st6" d="M583.5,150.5c-2.3,0.5-10.3,1-10-3.3c0.2-2.6,6-2.6,8.1-2.8c2.4-0.2,6,3.5,3.2,5.6
					C584.4,150.2,584,150.4,583.5,150.5z"/>
				<path class="st6" d="M566,119.4c-2.3,0.5-10.3,1-10-3.3c0.2-2.6,6-2.6,8.1-2.8c2.4-0.2,6,3.5,3.2,5.6
					C566.9,119.2,566.5,119.3,566,119.4z"/>
				<path class="st6" d="M586.4,135.6c1.9-0.6,11.2,1.1,8.2,4.7c-0.3,0.3-0.7,0.6-1.1,0.8c-1.5,0.8-3.4,1.2-5.3,1.1
					c-1.1-0.1-2.1-0.4-2.9-0.9c-1-0.7-1.5-1.6-1.5-2.6C583.7,137.3,584.8,136.2,586.4,135.6z"/>
				<path class="st6" d="M566.7,157.7c0.5,0.6,1.3,1.1,2.2,1.4c1.3,0.4,2.7,0.6,4.1,0.6c2-0.1,3.5-1.2,3.5-2.5
					c0-1.3-1.1-1.9-1.9-2.6c-0.3-0.3-0.8-0.4-1.3-0.4C571.6,154,564.1,154.1,566.7,157.7z"/>
				<path class="st6" d="M547.7,103.7c0.5,0.6,1.3,1.1,2.2,1.4c1.3,0.4,2.7,0.6,4.1,0.6c2-0.1,3.5-1.2,3.5-2.5
					c0-1.3-1.1-1.8-1.9-2.6c-0.3-0.3-0.8-0.4-1.3-0.4C552.7,100,545.2,100.1,547.7,103.7z"/>
				<path class="st6" d="M562.5,108.9c0.5,0.6,1.3,1.2,2.2,1.5c1.3,0.4,2.7,0.6,4.1,0.6c2-0.1,3.5-1.2,3.5-2.5
					c0-1.3-1.1-1.8-1.9-2.6c-0.3-0.3-0.8-0.4-1.3-0.4C567.4,105.2,559.9,105.3,562.5,108.9z"/>
				<path class="st6" d="M578,112.3c0.5,0.6,1.3,1.1,2.2,1.4c1.3,0.4,2.7,0.6,4.1,0.6c2-0.1,3.5-1.2,3.5-2.5c0-1.3-1.1-1.8-1.9-2.6
					c-0.3-0.3-0.8-0.4-1.3-0.4C582.9,108.6,575.5,108.7,578,112.3z"/>
				<path class="st6" d="M549.4,155.1c-0.3,0-0.5,0-0.8,0.1c-0.2,0.2-0.3,0.3-0.4,0.5c-0.4,0.9-0.2,1.9,0.5,2.8
					c0.5,0.7,1.4,1.3,2.5,1.6c2.7,1,10.5-2.6,5.2-4.6C554.3,154.9,551.6,155.1,549.4,155.1z"/>
				<path class="st6" d="M590.5,160.4c-1.5,0.8-4.9,0.8-6.5,0.9c-0.4,0-0.8,0-1.1-0.1c-0.5-0.3-0.9-0.7-1.1-1.2
					c-0.4-0.6-0.6-1.3-0.5-1.9c0.1-0.2,0.1-0.4,0.3-0.6c1.9-2.9,6.1-2.6,8.3-0.5C591.9,158.7,591.7,159.8,590.5,160.4z"/>
				<path class="st6" d="M566,166.4c0.2,3-4.8,3.3-6.7,2.6c-1.4-0.7-1.9-2-1.3-3.1c0.5-0.7,1.6-1.1,2.7-1
					C562.4,164.8,565.8,163.7,566,166.4z"/>
				<path class="st6" d="M553.9,120.6c0.2,3-4.9,3.3-6.7,2.6c-1.4-0.7-1.9-2-1.3-3.1c0.5-0.7,1.6-1.1,2.7-1.1
					C550.3,118.9,553.8,117.8,553.9,120.6z"/>
				<path class="st6" d="M579.2,163.6c2.2-0.2,5.6,1.9,2.2,3.5c-0.7,0.3-1.5,0.4-2.3,0.4c-1.8,0.1-4,0-5.1-1.4
					c-0.3-0.7-0.1-1.4,0.6-1.9C575.6,163.7,578,163.7,579.2,163.6z"/>
				<path class="st6" d="M545.9,108.6c2.2-0.2,5.6,1.9,2.2,3.5c-0.7,0.3-1.5,0.4-2.3,0.4c-1.8,0.1-4,0-5.1-1.4
					c-0.3-0.7-0.1-1.4,0.6-1.9C542.3,108.7,544.7,108.7,545.9,108.6z"/>
				<path class="st6" d="M592,120.2c2.2-0.2,5.7,1.9,2.2,3.5c-0.7,0.3-1.5,0.4-2.3,0.4c-1.8,0.1-4,0-5.2-1.4
					c-0.3-0.7-0.1-1.4,0.7-1.9C588.4,120.3,590.8,120.3,592,120.2z"/>
				<path class="st6" d="M578.9,98.5c2.2-0.2,5.7,1.9,2.2,3.5c-0.7,0.3-1.5,0.4-2.3,0.4c-1.8,0.1-3.9,0-5.1-1.4
					c-0.3-0.7-0.1-1.4,0.7-1.9C575.3,98.6,577.8,98.6,578.9,98.5z"/>
				<path class="st6" d="M578.4,325.8c-0.5-0.2-1.1-0.3-1.7-0.4c-0.5-0.1-1.1-0.1-1.6,0c-1,0.4-1.7,1-1.8,1.8
					c-0.2,0.9,0,1.7,0.8,2.5c2.7,2.3,8.2,9.5,10.4,2.4C585.4,328.9,581.3,326.7,578.4,325.8z"/>
				<path class="st6" d="M586.3,348.6l-0.1,0.1c-3.3,1.9-9.6-3.1-8-6.8c0.5-0.9,1.4-1.6,2.6-2c0.2-0.1,0.5-0.2,0.7-0.2
					c0.3,0,0.5,0.2,0.8,0.4c2.1,1.5,3.8,3.3,4.9,5.3C587.7,346.6,587.4,347.7,586.3,348.6z"/>
				<path class="st6" d="M597.2,345.9c-2.4,3-5.8-1.8-7.2-3.8c-0.6-0.8-1-1.8-1.1-2.7c-0.1-0.9,0.3-1.8,1.2-2.5
					c2.6-1.6,8.7,4,8.4,6.7C598.3,344.4,597.8,345.2,597.2,345.9z"/>
				<path class="st6" d="M566,329.6c-0.3-0.3-0.8-0.6-1.4-0.7c-1.4-0.1-2.7,1.5-2.3,2.8c0.2,0.5,0.5,1,1,1.5
					c1.2,1.2,2.6,2.4,4.3,3.4c0.3,0.2,0.7,0.3,1.1,0.4c0.4,0,0.7-0.3,0.9-0.7c0.5-0.9,0.5-2,0-2.9
					C568.8,331.9,567.6,330.6,566,329.6z"/>
				<path class="st6" d="M569.6,348.2c-2.5-1.3-3.9-3.3-3.9-5.4c0-0.2,0-0.3,0-0.5c0.1-0.1,0.2-0.3,0.3-0.4c0.6-0.8,1.9-1.1,3.1-0.9
					c1.1,0.3,3.3,3.2,3.8,4.2c0.7,1.3,0.1,3.3-1.4,3.6C570.9,348.7,570.1,348.5,569.6,348.2z"/>
				<path class="st6" d="M597,335.7c-2.5-1.3-3.9-3.3-3.9-5.4c0-0.2,0-0.3,0-0.5c0.1-0.1,0.2-0.3,0.3-0.4c0.6-0.8,1.9-1.1,3.1-0.9
					c1.1,0.3,3.3,3.2,3.8,4.2c0.7,1.3,0.1,3.3-1.4,3.6C598.2,336.3,597.5,336.1,597,335.7z"/>
				<path class="st6" d="M585.3,359.2c-1.9-0.9-8-4.8-5.5-7.7c1.5-1.8,5.8,1.3,7.3,2.3c1.9,1.2,2.5,5.8-0.7,5.8
					C586,359.5,585.6,359.4,585.3,359.2z"/>
				<path class="st6" d="M589.1,327.3c-1.9-0.9-8-4.8-5.5-7.7c1.5-1.8,5.8,1.3,7.3,2.3c1.9,1.2,2.5,5.8-0.7,5.8
					C589.9,327.6,589.5,327.5,589.1,327.3z"/>
				<path class="st6" d="M595.4,349.9c1.7,0.6,7.5,6.8,3.5,7.8c-0.4,0.1-0.8,0.1-1.3,0c-3-0.7-5.3-2.3-6.1-4.3
					c-0.3-0.9-0.2-1.8,0.3-2.7c0.5-0.9,2-1.3,3.3-0.9C595.2,349.9,595.3,349.9,595.4,349.9z"/>
				<path class="st6" d="M569.2,355.5c0,0.8,0.3,1.5,0.8,2.2c0.6,1,1.5,1.8,2.7,2.6c1.2,0.8,3,1.2,3.9,0.1c0.7-0.9,0.2-1.9,0-2.9
					c-0.1-0.4-0.3-0.7-0.7-1C574.8,355.4,569.3,351.5,569.2,355.5z"/>
				<path class="st6" d="M584.2,306.1c0,0.8,0.3,1.5,0.8,2.2c0.7,1,1.6,1.8,2.7,2.6c1.2,0.8,3,1.2,3.9,0.1c0.7-0.9,0.2-1.9,0-2.9
					c-0.1-0.4-0.3-0.7-0.7-1C589.7,306.1,584.3,302.1,584.2,306.1z"/>
				<path class="st6" d="M592.2,317.8c0,0.8,0.3,1.5,0.8,2.2c0.6,1,1.5,1.8,2.7,2.6c1.2,0.8,3,1.2,3.9,0.1c0.8-0.9,0.2-1.9,0-2.9
					c-0.1-0.4-0.3-0.7-0.7-1C597.7,317.7,592.3,313.8,592.2,317.8z"/>
				<path class="st6" d="M601.7,328.6c0,0.8,0.3,1.5,0.8,2.2c0.7,1,1.6,1.8,2.7,2.6c1.2,0.8,3,1.2,3.9,0.1c0.7-0.9,0.2-1.9,0-2.9
					c-0.1-0.4-0.3-0.7-0.7-1C607.2,328.5,601.7,324.6,601.7,328.6z"/>
				<path class="st6" d="M558,344.4c-0.2-0.1-0.4-0.2-0.6-0.3c-0.2,0-0.4,0.1-0.6,0.2c-0.8,0.6-1.2,1.5-1.2,2.3
					c0.1,0.9,0.4,1.7,0.9,2.5c1.5,2.2,9,3.7,6.2-0.6C561.6,347,559.9,345.6,558,344.4z"/>
				<path class="st6" d="M585.1,370.1c-1.6-0.2-4-2-5.2-2.9c-0.3-0.2-0.6-0.4-0.7-0.7c-0.2-0.5-0.2-1-0.1-1.4c0-0.6,0.2-1.2,0.6-1.7
					c0.1-0.1,0.3-0.2,0.5-0.3c2.9-1.1,5.8,1.4,6.3,4C587,369.6,586.3,370.3,585.1,370.1z"/>
				<path class="st6" d="M564.1,361.5c-1.5,2.3-5.3-0.2-6.2-1.7c-0.6-1-0.4-2.5,0.7-3c1.1-0.5,1.8,0.2,2.5,0.7
					C562.3,358.3,565.4,359.4,564.1,361.5z"/>
				<path class="st6" d="M579.7,321.7c-1.5,2.3-5.3-0.2-6.2-1.7c-0.6-1-0.4-2.5,0.7-3c0.9-0.3,1.8,0.2,2.5,0.7
					C578,318.6,581.1,319.6,579.7,321.7z"/>
				<path class="st6" d="M575.2,366.4c1.7,1,3.1,4.4-0.3,3.7c-0.7-0.2-1.4-0.5-1.9-0.9c-1.7-0.9-2.8-2.3-3-3.7c0-0.6,0.7-1,1.5-1
					C572.5,364.6,574.2,365.9,575.2,366.4z"/>
				<path class="st6" d="M580.3,308.7c1.7,1,3.1,4.4-0.3,3.7c-0.7-0.2-1.4-0.5-1.9-0.9c-1.7-0.9-2.8-2.3-3-3.7c0-0.6,0.7-1,1.5-1
					C577.6,306.9,579.4,308.2,580.3,308.7z"/>
				<path class="st6" d="M607.6,341.7c1.7,1,3.1,4.4-0.3,3.7c-0.7-0.2-1.4-0.5-1.9-0.9c-1.7-0.9-2.8-2.3-3-3.7c0-0.6,0.7-1,1.5-1
					C604.9,339.9,606.7,341.2,607.6,341.7z"/>
				<path class="st6" d="M609.7,319c1.7,1,3.1,4.4-0.3,3.7c-0.7-0.2-1.4-0.5-1.9-0.9c-1.7-0.9-2.8-2.3-3-3.7c0-0.7,0.8-1.1,1.5-1
					C607,317.1,608.8,318.5,609.7,319z"/>
				<path class="st6" d="M168.3,598.2c-0.5,0.2-1,0.4-1.5,0.6c-0.5,0.2-0.9,0.5-1.2,0.9c-0.6,0.7-0.7,1.6-0.4,2.4
					c0.2,0.7,0.9,1.2,1.9,1.4c3.3,0.3,11.3,2.6,9-3.9C175.1,596.6,170.9,597.3,168.3,598.2z"/>
				<path class="st6" d="M186.6,610.8v0.1c-0.9,1.7-3.7,2.7-6.3,2.1c-1.8-0.4-3.1-1.5-3.4-2.8c-0.1-1,0.2-2,0.8-2.9
					c0.1-0.2,0.2-0.4,0.4-0.5c0.2-0.1,0.5-0.1,0.8-0.1c2.3,0,4.6,0.4,6.6,1.2C186.7,608.7,187.1,609.8,186.6,610.8z"/>
				<path class="st6" d="M193.2,602.8c-0.2,3.5-5.3,1.8-7.4,1.1c-2.3-0.7-3.4-2.4-2.8-4c1.1-2.6,8.7-1.8,9.9,0.4
					C193.2,601.2,193.3,602,193.2,602.8z"/>
				<path class="st6" d="M161.2,607.7c-0.5-0.1-1.1,0-1.5,0.2c-1.1,1-1.2,2.3-0.2,3.3c0.4,0.3,1,0.5,1.6,0.5c1.6,0.3,3.4,0.3,5,0.2
					c0.4,0,0.7-0.1,1-0.3c0.3-0.3,0.4-0.7,0.3-1c0-0.8-0.6-1.6-1.6-2.2C164.4,607.9,162.8,607.7,161.2,607.7z"/>
				<path class="st6" d="M174,619.6c-2.4,0.4-4.9-0.4-5.9-1.9c-0.1-0.1-0.2-0.3-0.3-0.4c0-0.2,0-0.3,0-0.5c0-0.9,0.7-1.8,1.8-2.4
					c1-0.4,4.2,0.5,5.1,1c1.4,0.9,1.8,2.3,0.9,3.4C175.3,619.2,174.7,619.5,174,619.6z"/>
				<path class="st6" d="M187.5,595.4c-2.4,0.4-4.9-0.4-5.9-1.9c-0.1-0.1-0.2-0.3-0.3-0.4c0-0.2,0-0.3,0-0.5
					c0.1-0.9,0.7-1.8,1.8-2.4c0.9-0.4,4.2,0.5,5.1,1c1.4,0.9,1.8,2.2,0.9,3.4C188.9,595.1,188.2,595.3,187.5,595.4z"/>
				<path class="st6" d="M191.6,619.2c-1.9,0.4-8.5,0.8-8.3-2.8c0.2-2.2,5-2.2,6.7-2.3c2-0.2,5,2.9,2.7,4.7
					C192.4,619,192,619.2,191.6,619.2z"/>
				<path class="st6" d="M177.1,593.4c-1.9,0.4-8.6,0.8-8.3-2.8c0.1-2.2,5-2.2,6.7-2.3c2-0.2,5,2.9,2.7,4.7
					C177.8,593.2,177.5,593.3,177.1,593.4z"/>
				<path class="st6" d="M194.1,606.8c1.6-0.5,9.3,0.9,6.8,3.9c-0.2,0.3-0.6,0.5-0.9,0.7c-1.3,0.7-2.9,1-4.5,0.9
					c-0.9,0-1.8-0.3-2.4-0.7c-0.8-0.6-1.2-1.3-1.2-2.1C191.8,608.3,192.6,607.3,194.1,606.8z"/>
				<path class="st6" d="M177.7,625.2c0.4,0.5,1,1,1.8,1.2c1,0.4,2.2,0.5,3.4,0.5c1.7-0.1,3-1,3-2.1c0.1-1.1-0.9-1.5-1.6-2.2
					c-0.3-0.2-0.6-0.4-1.1-0.4C181.7,622.2,175.5,622.2,177.7,625.2z"/>
				<path class="st6" d="M161.9,580.3c0.4,0.5,1,1,1.8,1.2c1.1,0.4,2.3,0.5,3.5,0.5c1.7-0.1,3-1,3-2.1c0-1.1-0.9-1.5-1.6-2.2
					c-0.3-0.2-0.7-0.4-1.1-0.4C165.9,577.3,159.7,577.3,161.9,580.3z"/>
				<path class="st6" d="M174.2,584.6c0.4,0.5,1,1,1.8,1.2c1,0.4,2.2,0.5,3.4,0.5c1.7-0.1,3-1,3-2.1c0-1.1-0.9-1.5-1.6-2.2
					c-0.3-0.2-0.7-0.4-1.1-0.4C178.3,581.6,172,581.6,174.2,584.6z"/>
				<path class="st6" d="M187.1,587.5c0.4,0.5,1,1,1.8,1.2c1,0.4,2.2,0.5,3.4,0.5c1.7-0.1,3-1,3-2.1c0-1.1-0.9-1.5-1.6-2.2
					c-0.3-0.2-0.7-0.4-1.1-0.4C191.2,584.4,185,584.5,187.1,587.5z"/>
				<path class="st6" d="M163.3,623.1c-0.2,0-0.4,0-0.6,0.1c-0.2,0.1-0.3,0.3-0.3,0.5c-0.3,0.8-0.1,1.6,0.4,2.3
					c0.5,0.6,1.2,1.1,2.1,1.3c2.3,0.8,8.7-2.2,4.3-3.8C167.3,622.9,165.1,623.1,163.3,623.1z"/>
				<path class="st6" d="M197.5,627.5c-1.3,0.7-4,0.7-5.4,0.7c-0.3,0-0.6,0-0.9-0.1c-0.4-0.3-0.7-0.6-0.9-1
					c-0.4-0.5-0.5-1.1-0.4-1.6c0-0.2,0.1-0.3,0.2-0.5c1.5-2.4,5.1-2.2,6.9-0.5C198.6,626.1,198.4,627,197.5,627.5z"/>
				<path class="st6" d="M177.1,632.5c0.2,2.5-4,2.7-5.6,2.1c-1.2-0.6-1.6-1.6-1.1-2.6c0.4-0.6,1.3-0.9,2.3-0.9
					C174.1,631.1,176.9,630.2,177.1,632.5z"/>
				<path class="st6" d="M167.1,594.4c0.2,2.5-4,2.7-5.6,2.1c-1.2-0.6-1.6-1.6-1.1-2.6c0.4-0.6,1.3-0.9,2.3-0.9
					C164,593,166.9,592.1,167.1,594.4z"/>
				<path class="st6" d="M188,630.1c1.9-0.2,4.7,1.6,1.8,2.9c-0.6,0.2-1.2,0.4-1.9,0.3c-1.5,0.1-3.3,0-4.3-1.1
					c-0.3-0.5-0.1-1.2,0.5-1.6C185,630.2,187.1,630.2,188,630.1z"/>
				<path class="st6" d="M160.4,584.4c1.9-0.2,4.7,1.6,1.8,2.9c-0.6,0.2-1.2,0.4-1.9,0.3c-1.6,0.3-3.4-0.2-4.3-1.1
					c-0.3-0.6-0.1-1.2,0.6-1.6C157.4,584.5,159.4,584.5,160.4,584.4z"/>
				<path class="st6" d="M198.7,594.1c1.8-0.2,4.7,1.5,1.8,2.9c-0.6,0.2-1.2,0.3-1.9,0.3c-1.5,0.1-3.3,0-4.3-1.1
					c-0.3-0.5-0.1-1.2,0.5-1.6C195.7,594.1,197.7,594.2,198.7,594.1z"/>
				<path class="st6" d="M187.8,576c1.9-0.2,4.7,1.5,1.8,2.9c-0.6,0.2-1.2,0.4-1.9,0.3c-1.5,0.1-3.3,0-4.3-1.1
					c-0.3-0.5-0.1-1.2,0.5-1.6C184.8,576.1,186.9,576.1,187.8,576z"/>
				<path class="st9" d="M113,210.3c-17.2-3.6-35.3,1.3-52.6-4.4c-19.3-6.3-38.4-7.9-58.6-6.7c-17.6,1-35.8,3.6-50.3,13.7
					c-16.8,11.6-37.8,38.9-28.2,60.9c3.3,7.5,10.5,13.2,18.6,14.6c4.6,0.8,11,1.8,11,6.5c-0.1,1.5-0.7,3-1.7,4.3
					c-3.7,6.4-6.5,13-8.1,19.8c-0.7,3-1.3,6.1-0.2,9c1.5,3.9,5.4,6.1,9.2,7.7c38.7,16.2,79.2-7,101.6-38c9.4-13,18.3-26.6,24.3-41.6
					c4-9.9,6.7-20.5,12.4-29.4C96.5,217.2,104.9,215.5,113,210.3z"/>
				<path class="st10" d="M-16.1,273.6c26-13.4,46-32.6,71.1-45.2c4.5-2.3,8.8-5,13.3-7.2c-30.8,11-55.7,34.3-84.5,49.9
					c-11.6,6.1-21.9,14.5-33.5,19.8c1.4,0.9,2.2,2,2.4,3.3c5.8-3,10.9-6.6,15.2-10.5C-27.4,279.9-22,276.5-16.1,273.6z"/>
				<path class="st10" d="M68.3,221.2c4-1.5,8.3-2.7,12.6-3.7C76.3,218,72,219.3,68.3,221.2z"/>
				<path class="st10" d="M15.4,281c5.7,0,5.8-6,0-6S9.7,281,15.4,281z"/>
				<path class="st10" d="M-12.5,302.2c5.7,0,5.8-6,0-6S-18.2,302.2-12.5,302.2z"/>
				<path class="st10" d="M15.4,298.3c5.7,0,5.8-6,0-6S9.7,298.3,15.4,298.3z"/>
				<path class="st10" d="M37.2,291.1c5.7,0,5.7-6,0-6S31.4,291.1,37.2,291.1z"/>
				<path class="st10" d="M22.1,261.5c5.7,0,5.7-5.9,0-5.9S16.3,261.5,22.1,261.5z"/>
				<path class="st10" d="M43.3,269.9c5.7,0,5.8-6,0-6S37.5,269.9,43.3,269.9z"/>
				<path class="st10" d="M50,293.9c5.7,0,5.8-6,0-6S44.2,293.9,50,293.9z"/>
				<path class="st10" d="M30.5,311.2c5.7,0,5.7-6,0-6S24.7,311.2,30.5,311.2z"/>
				<path class="st10" d="M-0.2,331.3c5.7,0,5.8-6,0-6S-6,331.3-0.2,331.3z"/>
				<path class="st10" d="M-3.6,315.6c5.7,0,5.8-6,0-6S-9.3,315.6-3.6,315.6z"/>
				<path class="st10" d="M-29.8,331.3c5.7,0,5.8-6,0-6S-35.5,331.3-29.8,331.3z"/>
				<path class="st10" d="M-35.9,305.6c5.7,0,5.8-6,0-6S-41.7,305.6-35.9,305.6z"/>
				<path class="st10" d="M50.5,244.8c5.7,0,5.8-5.9,0-5.9S44.8,244.8,50.5,244.8z"/>
				<path class="st10" d="M63.4,268.8c5.7,0,5.7-6,0-6S57.6,268.8,63.4,268.8z"/>
				<path class="st10" d="M69,243.1c5.7,0,5.7-6,0-6S63.2,243.1,69,243.1z"/>
				<path class="st10" d="M85.7,225.8c5.7,0,5.8-6,0-6S79.9,225.8,85.7,225.8z"/>
				<path class="st10" d="M99.7,215.8c5.7,0,5.8-6,0-6S93.9,215.8,99.7,215.8z"/>
				<path class="st10" d="M67.3,215.2c5.7,0,5.8-5.9,0-5.9S61.5,215.2,67.3,215.2z"/>
				<path class="st10" d="M43.3,209.1c5.7,0,5.8-6,0-6S37.5,209.1,43.3,209.1z"/>
				<path class="st10" d="M55,219.1c5.7,0,5.8-6,0-6S49.3,219.1,55,219.1z"/>
				<path class="st10" d="M39.9,229.2c5.7,0,5.7-5.9,0-5.9S34.2,229.2,39.9,229.2z"/>
				<path class="st10" d="M33.2,219.1c5.8,0,5.8-6,0-6S27.5,219.1,33.2,219.1z"/>
				<path class="st10" d="M17.1,207.4c5.7,0,5.8-5.9,0-5.9S11.3,207.4,17.1,207.4z"/>
				<path class="st10" d="M4.3,220.8c5.7,0,5.7-6,0-6S-1.5,220.8,4.3,220.8z"/>
				<path class="st10" d="M18.2,240.3c5.7,0,5.8-5.9,0-5.9S12.4,240.3,18.2,240.3z"/>
				<path class="st10" d="M18.8,226.4c5.7,0,5.7-6,0-6S13,226.4,18.8,226.4z"/>
				<path class="st10" d="M2.6,240.9c5.7,0,5.8-5.9,0-5.9S-3.2,240.9,2.6,240.9z"/>
				<path class="st10" d="M-10.3,210.8c5.7,0,5.7-6,0-6S-16,210.8-10.3,210.8z"/>
				<path class="st10" d="M-30.8,224.7c5.7,0,5.7-5.9,0-5.9S-36.6,224.7-30.8,224.7z"/>
				<path class="st10" d="M-11.3,229.7c5.7,0,5.8-5.9,0-5.9S-17.1,229.7-11.3,229.7z"/>
				<path class="st10" d="M-9.1,258.7c5.7,0,5.8-6,0-6S-14.9,258.7-9.1,258.7z"/>
				<path class="st10" d="M-24.8,247c5.7,0,5.7-6,0-6S-30.6,247-24.8,247z"/>
				<path class="st10" d="M-71.6,250.9c5.7,0,5.8-5.9,0-5.9S-77.4,250.9-71.6,250.9z"/>
				<path class="st10" d="M-31.4,271.6c5.7,0,5.7-6,0-6S-37.2,271.6-31.4,271.6z"/>
				<path class="st10" d="M-56.6,248.7c5.7,0,5.8-5.9,0-5.9S-62.3,248.7-56.6,248.7z"/>
				<path class="st10" d="M-42.6,238.1c5.7,0,5.7-6,0-6S-48.4,238.1-42.6,238.1z"/>
				<path class="st10" d="M-44.8,221.9c5.7,0,5.8-5.9,0-5.9S-50.6,221.9-44.8,221.9z"/>
				<path class="st10" d="M-43.2,258.2c5.7,0,5.7-6,0-6S-48.9,258.2-43.2,258.2z"/>
				<path class="st10" d="M-67.2,271c5.7,0,5.8-6,0-6S-72.9,271-67.2,271z"/>
				<path class="st10" d="M-52.1,269.9c5.7,0,5.7-6,0-6S-57.8,269.9-52.1,269.9z"/>
				<path class="st10" d="M-51.5,285c5.7,0,5.7-6,0-6S-57.3,285-51.5,285z"/>
				<path class="st10" d="M-25.3,292.8c5.7,0,5.7-6,0-6S-31.1,292.8-25.3,292.8z"/>
				<path class="st10" d="M-18.6,317.3c5.7,0,5.8-6,0-6S-24.4,317.3-18.6,317.3z"/>
				<path class="st10" d="M-47.6,324.6c5.7,0,5.8-6,0-6S-53.4,324.6-47.6,324.6z"/>
				<path class="st10" d="M15.4,318.4c5.7,0,5.8-6,0-6S9.7,318.4,15.4,318.4z"/>
				<path class="st10" d="M43.3,255.9c5.7,0,5.8-5.9,0-5.9S37.5,255.9,43.3,255.9z"/>
				<path class="st10" d="M-6.9,281c5.7,0,5.8-6,0-6S-12.7,281-6.9,281z"/>
				<path class="st10" d="M61.7,254.8c5.7,0,5.8-6,0-6S55.9,254.8,61.7,254.8z"/>
				<path class="st10" d="M70.6,230.8c5.7,0,5.8-6,0-6S64.9,230.8,70.6,230.8z"/>
				<path class="st9" d="M626,594.1c15.3,8.7,34,9.5,48.8,20.1c14.8,10.8,33.3,19,53.9,24.1c17.1,4.3,35.3,7.4,52.1,2.2
					c19.5-6,47.8-25.7,45.3-49.5c-0.9-8.2-6-15.7-13.3-19.5c-4.1-2.2-9.9-5.1-8.5-9.5c0.5-1.3,1.5-2.6,2.9-3.6
					c5.6-5,10.2-10.5,13.7-16.4c1.9-2.7,2.9-5.6,3-8.5c-0.2-4.1-3.3-7.5-6.4-10.2c-32-27.2-77.7-17.3-108.4,5.5
					c-12.9,9.6-25.5,19.9-35.7,32.3c-6.8,8.3-12.5,17.5-20.7,24.3C643.9,592.6,635.3,591.7,626,594.1z"/>
				<path class="st10" d="M768.2,572.9c-28.8,4.9-53.7,17.2-81.5,21.6c-5,0.8-9.9,2.1-14.9,2.8c32.7-1.2,63.4-15.9,95.6-22
					c12.9-2.3,25.3-7.2,37.9-8.8c-1-1.2-1.5-2.5-1.3-3.8c-6.4,1.1-12.4,2.9-17.7,5.5C780.8,570.3,774.6,571.9,768.2,572.9z"/>
				<path class="st10" d="M671.9,597.3c-4.4,0.2-8.8,0.1-13.1-0.3C663,597.9,667.6,598,671.9,597.3z"/>
				<path class="st10" d="M739.5,562.1c5.7,0,5.8-6,0-6C733.8,556.1,733.8,562.1,739.5,562.1z"/>
				<path class="st10" d="M772.5,550.3c5.7,0,5.8-6,0-6C766.8,544.3,766.8,550.3,772.5,550.3z"/>
				<path class="st10" d="M744.8,545.6c5.7,0,5.7-6,0-6C739,539.6,739,545.6,744.8,545.6z"/>
				<path class="st10" d="M721.8,545.9c5.7,0,5.8-6,0-6C716.1,540,716.1,545.9,721.8,545.9z"/>
				<path class="st10" d="M727.3,578.7c5.7,0,5.8-6,0-6C721.5,572.7,721.5,578.7,727.3,578.7z"/>
				<path class="st10" d="M709.6,564.3c5.7,0,5.7-6,0-6C703.8,558.3,703.8,564.3,709.6,564.3z"/>
				<path class="st10" d="M710.4,539.4c5.7,0,5.8-6,0-6C704.7,533.4,704.7,539.4,710.4,539.4z"/>
				<path class="st10" d="M734.3,528.8c5.7,0,5.8-6,0-6C728.5,522.8,728.5,528.8,734.3,528.8z"/>
				<path class="st10" d="M769.6,518.9c5.7,0,5.7-6,0-6C763.9,512.9,763.8,518.9,769.6,518.9z"/>
				<path class="st10" d="M768.1,534.8c5.7,0,5.7-6,0-6C762.3,528.8,762.3,534.8,768.1,534.8z"/>
				<path class="st10" d="M797.8,527.9c5.8,0,5.8-6,0-6C792,521.9,792,527.9,797.8,527.9z"/>
				<path class="st10" d="M795.9,554.2c5.7,0,5.8-6,0-6C790.1,548.2,790.1,554.2,795.9,554.2z"/>
				<path class="st10" d="M695.1,586c5.7,0,5.8-6,0-6C689.3,580,689.3,586,695.1,586z"/>
				<path class="st10" d="M690.1,559.3c5.7,0,5.8-6,0-6C684.3,553.3,684.3,559.3,690.1,559.3z"/>
				<path class="st10" d="M677,582c5.7,0,5.8-6,0-6C671.3,576,671.3,582,677,582z"/>
				<path class="st10" d="M655.8,593.5c5.7,0,5.8-6,0-6C650.1,587.5,650.1,593.5,655.8,593.5z"/>
				<path class="st10" d="M639.5,598.8c5.7,0,5.7-6,0-6C633.8,592.9,633.8,598.8,639.5,598.8z"/>
				<path class="st10" d="M670.2,609.1c5.8,0,5.8-6,0-6C664.4,603.1,664.4,609.1,670.2,609.1z"/>
				<path class="st10" d="M691.2,622.2c5.7,0,5.8-6,0-6C685.4,616.2,685.4,622.2,691.2,622.2z"/>
				<path class="st10" d="M683.1,609.1c5.7,0,5.8-6,0-6C677.3,603.1,677.3,609.1,683.1,609.1z"/>
				<path class="st10" d="M700.5,604.1c5.7,0,5.7-6,0-6C694.7,598.1,694.7,604.1,700.5,604.1z"/>
				<path class="st10" d="M703.8,615.7c5.7,0,5.7-6,0-6C698.1,609.7,698,615.7,703.8,615.7z"/>
				<path class="st10" d="M715.7,631.8c5.7,0,5.8-6,0-6C709.9,625.8,709.9,631.8,715.7,631.8z"/>
				<path class="st10" d="M732,622.9c5.7,0,5.7-6,0-6C726.2,616.9,726.2,622.9,732,622.9z"/>
				<path class="st10" d="M724.6,600c5.7,0,5.8-6,0-6C718.8,594,718.8,600,724.6,600z"/>
				<path class="st10" d="M719.8,613.2c5.7,0,5.8-6,0-6C714,607.2,714.1,613.2,719.8,613.2z"/>
				<path class="st10" d="M739.6,604.2c5.7,0,5.7-6,0-6C733.9,598.2,733.9,604.2,739.6,604.2z"/>
				<path class="st10" d="M742.7,636.8c5.7,0,5.8-6,0-6C737,630.8,737,636.8,742.7,636.8z"/>
				<path class="st10" d="M766.6,629.8c5.7,0,5.7-6,0-6C760.9,623.8,760.9,629.8,766.6,629.8z"/>
				<path class="st10" d="M749.5,619.1c5.7,0,5.8-6,0-6C743.8,613.1,743.8,619.1,749.5,619.1z"/>
				<path class="st10" d="M756.2,590.8c5.7,0,5.8-6,0-6C750.4,584.8,750.4,590.8,756.2,590.8z"/>
				<path class="st10" d="M767.5,606.7c5.7,0,5.8-6,0-6C761.8,600.7,761.8,606.7,767.5,606.7z"/>
				<path class="st10" d="M813.4,617.1c5.7,0,5.8-6,0-6C807.6,611.1,807.6,617.1,813.4,617.1z"/>
				<path class="st10" d="M781.3,585.3c5.7,0,5.7-6,0-6C775.6,579.3,775.6,585.3,781.3,585.3z"/>
				<path class="st10" d="M798.4,614.7c5.7,0,5.7-6,0-6C792.6,608.7,792.6,614.7,798.4,614.7z"/>
				<path class="st10" d="M781.9,620.6c5.7,0,5.8-6,0-6C776.1,614.6,776.1,620.6,781.9,620.6z"/>
				<path class="st10" d="M779.1,636.7c5.7,0,5.7-6,0-6C773.3,630.7,773.3,636.7,779.1,636.7z"/>
				<path class="st10" d="M788.4,601.6c5.7,0,5.8-6,0-6C782.7,595.6,782.7,601.6,788.4,601.6z"/>
				<path class="st10" d="M815.2,596.6c5.7,0,5.8-6,0-6C809.4,590.6,809.4,596.6,815.2,596.6z"/>
				<path class="st10" d="M800.5,593.1c5.8,0,5.8-6,0-6C794.7,587.1,794.8,593.1,800.5,593.1z"/>
				<path class="st10" d="M804.5,578.6c5.7,0,5.7-6,0-6C798.8,572.6,798.8,578.6,804.5,578.6z"/>
				<path class="st10" d="M781.9,563.2c5.7,0,5.8-6,0-6C776.1,557.2,776.1,563.2,781.9,563.2z"/>
				<path class="st10" d="M782.9,537.8c5.7,0,5.8-6,0-6C777.2,531.8,777.2,537.8,782.9,537.8z"/>
				<path class="st10" d="M812.8,539.7c5.7,0,5.8-6,0-6C807,533.7,807,539.7,812.8,539.7z"/>
				<path class="st10" d="M750.8,526.5c5.7,0,5.7-6,0-6C745.1,520.5,745.1,526.5,750.8,526.5z"/>
				<path class="st10" d="M705.4,577.6c5.7,0,5.7-6,0-6C699.6,571.6,699.6,577.6,705.4,577.6z"/>
				<path class="st10" d="M760.8,568.8c5.7,0,5.8-6,0-6C755,562.8,755,568.8,760.8,568.8z"/>
				<path class="st10" d="M687.5,573.1c5.7,0,5.8-6,0-6C681.7,567.1,681.7,573.1,687.5,573.1z"/>
				<path class="st10" d="M671.7,593.2c5.7,0,5.7-6,0-6C666,587.2,666,593.2,671.7,593.2z"/>
				<path class="st9" d="M262.7,526.5c-6.8,16.2-5.3,34.9-14,50.9c-9.7,17.8-14.8,36.2-17.4,56.4c-2.2,17.5-3,35.9,4.1,52
					c8.3,18.6,31.3,44.3,54.7,39c8-1.8,14.9-7.9,17.8-15.5c1.6-4.4,3.8-10.4,8.4-9.6c1.5,0.3,2.7,1.4,3.9,2.4
					c5,4.5,11.1,8.4,17.9,11.6c2.8,1.3,5.8,2.4,8.8,1.9c4.1-0.7,7-4.2,9.3-7.6c23.1-35,7.7-79.2-18.6-106.9
					c-11.1-11.7-22.8-22.9-36.4-31.5c-9-5.7-18.9-10.3-26.6-17.7C266.4,544.1,266.2,535.4,262.7,526.5z"/>
				<path class="st10" d="M301,665.1c-8.4-28-23.6-51.3-31.3-78.2c-1.4-4.8-3.3-9.6-4.6-14.4c5.1,32.3,23.5,61,33.4,92.2
					c3.9,12.6,10.2,24.2,13.3,36.6c1-1.1,2.2-1.8,3.7-1.7c-1.6-5.8-4.1-11.5-7.5-16.9C305,676.9,302.6,671,301,665.1z"/>
				<path class="st10" d="M265.1,572.4c-0.7-4.3-1.1-8.6-1.3-13.1C263.4,563.7,263.9,568.1,265.1,572.4z"/>
				<path class="st10" d="M311.2,637.9c5.7,0,5.7-6,0-6C305.4,631.9,305.4,637.9,311.2,637.9z"/>
				<path class="st10" d="M326.9,669.2c5.7,0,5.8-6,0-6C321.1,663.2,321.1,669.2,326.9,669.2z"/>
				<path class="st10" d="M328.2,641.1c5.7,0,5.7-6,0-6C322.5,635.1,322.4,641.1,328.2,641.1z"/>
				<path class="st10" d="M325.1,618.4c5.7,0,5.8-6,0-6C319.3,612.4,319.3,618.4,325.1,618.4z"/>
				<path class="st10" d="M293.3,627.7c5.7,0,5.7-6,0-6C287.5,621.7,287.5,627.7,293.3,627.7z"/>
				<path class="st10" d="M305.4,608.4c5.7,0,5.7-6,0-6C299.6,602.4,299.6,608.4,305.4,608.4z"/>
				<path class="st10" d="M330.2,606.3c5.7,0,5.7-6,0-6C324.5,600.3,324.4,606.3,330.2,606.3z"/>
				<path class="st10" d="M343.6,628.7c5.7,0,5.7-6,0-6C337.9,622.7,337.8,628.7,343.6,628.7z"/>
				<path class="st10" d="M357.7,662.5c5.7,0,5.8-6,0-6C351.9,656.6,351.9,662.5,357.7,662.5z"/>
				<path class="st10" d="M341.7,662.9c5.7,0,5.8-6,0-6C335.9,656.9,335.9,662.9,341.7,662.9z"/>
				<path class="st10" d="M352.2,691.6c5.7,0,5.8-6,0-6C346.4,685.6,346.4,691.6,352.2,691.6z"/>
				<path class="st10" d="M325.9,692.9c5.7,0,5.8-6,0-6C320.1,686.9,320.1,692.9,325.9,692.9z"/>
				<path class="st10" d="M282,596.7c5.7,0,5.8-6,0-6C276.3,590.7,276.3,596.7,282,596.7z"/>
				<path class="st10" d="M308,588.5c5.7,0,5.7-6,0-6C302.3,582.5,302.2,588.5,308,588.5z"/>
				<path class="st10" d="M283.8,578.3c5.7,0,5.8-6,0-6C278,572.3,278,578.3,283.8,578.3z"/>
				<path class="st10" d="M269.9,558.6c5.7,0,5.8-6,0-6C264.1,552.7,264.1,558.6,269.9,558.6z"/>
				<path class="st10" d="M262.6,543.1c5.7,0,5.7-6,0-6C256.9,537.1,256.9,543.1,262.6,543.1z"/>
				<path class="st10" d="M256.1,574.8c5.7,0,5.8-6,0-6C250.3,568.8,250.3,574.8,256.1,574.8z"/>
				<path class="st10" d="M245.6,597.2c5.7,0,5.7-6,0-6S239.9,597.2,245.6,597.2z"/>
				<path class="st10" d="M257.7,587.6c5.7,0,5.7-6,0-6C251.9,581.6,251.9,587.6,257.7,587.6z"/>
				<path class="st10" d="M264.7,604.2c5.7,0,5.8-6,0-6C258.9,598.2,258.9,604.2,264.7,604.2z"/>
				<path class="st10" d="M253.6,608.9c5.7,0,5.8-6,0-6C247.9,602.9,247.9,608.9,253.6,608.9z"/>
				<path class="st10" d="M239.2,622.7c5.8,0,5.8-6,0-6S233.4,622.7,239.2,622.7z"/>
				<path class="st10" d="M249.9,637.8c5.7,0,5.7-6,0-6S244.2,637.8,249.9,637.8z"/>
				<path class="st10" d="M271.7,627.7c5.7,0,5.7-6,0-6C266,621.7,265.9,627.7,271.7,627.7z"/>
				<path class="st10" d="M258.1,624.5c5.7,0,5.7-6,0-6C252.3,618.5,252.3,624.5,258.1,624.5z"/>
				<path class="st10" d="M269.4,643.1c5.7,0,5.8-6,0-6C263.6,637.1,263.6,643.1,269.4,643.1z"/>
				<path class="st10" d="M237.4,650.2c5.7,0,5.8-6,0-6S231.6,650.2,237.4,650.2z"/>
				<path class="st10" d="M247.3,673c5.7,0,5.8-6,0-6S241.5,673,247.3,673z"/>
				<path class="st10" d="M255.8,654.8c5.7,0,5.8-6,0-6S250.1,654.8,255.8,654.8z"/>
				<path class="st10" d="M284.7,657.9c5.8,0,5.8-6,0-6C279,652,279,657.9,284.7,657.9z"/>
				<path class="st10" d="M270.4,671.1c5.7,0,5.7-6,0-6C264.6,665.1,264.6,671.1,270.4,671.1z"/>
				<path class="st10" d="M265.5,717.9c5.7,0,5.8-6,0-6C259.8,711.9,259.8,717.9,265.5,717.9z"/>
				<path class="st10" d="M293.2,682.2c5.7,0,5.7-6,0-6C287.4,676.2,287.4,682.2,293.2,682.2z"/>
				<path class="st10" d="M266.2,702.7c5.7,0,5.8-6,0-6C260.4,696.7,260.4,702.7,266.2,702.7z"/>
				<path class="st10" d="M258.3,687c5.7,0,5.8-6,0-6C252.5,681,252.5,687,258.3,687z"/>
				<path class="st10" d="M242,686.2c5.7,0,5.8-6,0-6S236.2,686.2,242,686.2z"/>
				<path class="st10" d="M277.9,691.3c5.7,0,5.8-6,0-6C272.2,685.3,272.2,691.3,277.9,691.3z"/>
				<path class="st10" d="M286.1,717.2c5.7,0,5.7-6,0-6C280.4,711.2,280.3,717.2,286.1,717.2z"/>
				<path class="st10" d="M287.8,702.2c5.7,0,5.8-6,0-6C282,696.2,282,702.2,287.8,702.2z"/>
				<path class="st10" d="M302.7,704.4c5.7,0,5.7-6,0-6C296.9,698.4,296.9,704.4,302.7,704.4z"/>
				<path class="st10" d="M315.2,680.1c5.7,0,5.8-6,0-6C309.4,674.1,309.4,680.1,315.2,680.1z"/>
				<path class="st10" d="M340.6,678c5.7,0,5.7-6,0-6C334.8,672.1,334.8,678,340.6,678z"/>
				<path class="st10" d="M342.3,707.9c5.7,0,5.7-6,0-6C336.6,702,336.6,707.9,342.3,707.9z"/>
				<path class="st10" d="M347.9,644.8c5.7,0,5.8-6,0-6C342.2,638.9,342.2,644.8,347.9,644.8z"/>
				<path class="st10" d="M291.7,605.9c5.7,0,5.8-6,0-6C285.9,599.9,285.9,605.9,291.7,605.9z"/>
				<path class="st10" d="M307.1,659.8c5.7,0,5.8-6,0-6C301.3,653.8,301.3,659.8,307.1,659.8z"/>
				<path class="st10" d="M294,587.6c5.7,0,5.8-6,0-6C288.2,581.6,288.2,587.6,294,587.6z"/>
				<path class="st10" d="M272.1,574.4c5.7,0,5.7-6,0-6C266.3,568.4,266.3,574.4,272.1,574.4z"/>
				<path class="st11" d="M163,411.7c0.2,4.7,1.9,12.8-1.5,16.6c-2.3,2.7-6.3,3.7-9.6,2.5c-3.7-1.3-6.2-4.7-8.4-7.9
					c-5.3-7.6-11.7-16-7.6-26c4.7-11.4,19.1-7.5,23.9,1.3C161.9,402.5,163,407.1,163,411.7z"/>
				<path class="st11" d="M140.9,447.9c2.7-3.9,6.2-11.3,11.1-12.4c3.4-0.8,7.2,0.9,9.2,3.8c2.2,3.3,2.1,7.5,2,11.4
					c-0.4,9.3-0.2,19.8-9.5,25.4c-10.6,6.4-19.8-5.4-18.3-15.4C136.1,456.2,138,451.9,140.9,447.9z"/>
				<path class="st11" d="M168.4,455.5c-3.3-3.4-9.8-8.4-9.8-13.4c0-3.5,2.3-6.9,5.6-8.2c3.6-1.5,7.7-0.5,11.5,0.5
					c9,2.3,19.4,4.3,22.9,14.5c4,11.7-9.4,18.2-18.9,14.7C175.3,462,171.7,458.9,168.4,455.5z"/>
				<path class="st11" d="M137.6,423.7c4.7,0.9,12.9,1,15.8,5.1c2.1,3.2,2.2,6.7,0.3,10c-2.1,3.3-6,5-9.6,6.4
					c-8.6,3.4-18.2,7.9-27,1.6c-10.1-7.1-3-20.3,6.6-23C128.2,422.7,133.1,422.7,137.6,423.7z"/>
				<path class="st11" d="M181.4,435.4c-4.6,1.2-12,4.5-16.5,2.1c-3.1-1.7-4.9-5.4-4.5-8.9c0.5-3.9,3.3-7,6-9.9
					c6.3-6.8,13.1-14.9,23.8-13c12.2,2.1,11.4,17.1,3.8,23.6C190.7,432.1,186.4,434.2,181.4,435.4z"/>
				<path class="st6" d="M166.9,435.9c-0.2,1.4-0.8,2.7-2,3.8c-1.1,0.9-2.5,1.7-4.2,2.1c-6.7,1.9-15.3-4.2-9.5-11.2
					c2.3-2.6,7.3-3.5,11.2-2c1.6,0.6,2.9,1.6,3.6,2.8C166.9,432.9,167.2,434.4,166.9,435.9z"/>
				<path class="st11" d="M399.4,564.6c0.2,4.7,1.9,12.8-1.5,16.6c-2.3,2.7-6.3,3.7-9.6,2.5c-3.7-1.3-6.2-4.7-8.4-7.9
					c-5.3-7.6-11.7-16-7.6-26c4.7-11.4,19.1-7.5,23.9,1.3C398.2,555.4,399.3,560,399.4,564.6z"/>
				<path class="st11" d="M377.3,600.8c2.7-3.9,6.1-11.3,11.1-12.4c3.4-0.8,7.2,0.9,9.2,3.8c2.2,3.3,2.1,7.5,1.9,11.4
					c-0.4,9.3-0.2,19.8-9.5,25.4c-10.6,6.3-19.8-5.4-18.3-15.4C372.5,609.1,374.4,604.8,377.3,600.8z"/>
				<path class="st11" d="M404.8,608.4c-3.3-3.4-9.8-8.4-9.8-13.4c0-3.5,2.3-6.9,5.6-8.2c3.6-1.5,7.7-0.5,11.5,0.4
					c9,2.3,19.4,4.3,22.9,14.5c4,11.7-9.4,18.2-18.8,14.7C411.7,614.9,408,611.8,404.8,608.4z"/>
				<path class="st11" d="M373.9,576.6c4.6,0.9,12.8,1,15.8,5.1c2.1,3.2,2.2,6.7,0.3,10c-2.1,3.3-6,5-9.6,6.4
					c-8.6,3.4-18.2,7.8-27.1,1.6c-10.1-7.1-3-20.3,6.6-23C364.5,575.6,369.4,575.6,373.9,576.6z"/>
				<path class="st11" d="M417.8,588.3c-4.6,1.2-12,4.5-16.5,2.1c-3.1-1.7-4.9-5.4-4.5-8.9c0.5-3.9,3.3-7,6-9.9
					c6.4-6.8,13.2-14.9,23.8-13c12.2,2.1,11.4,17.1,3.8,23.6C427.1,585,422.7,587.1,417.8,588.3z"/>
				<path class="st6" d="M403.3,588.8c-0.1,1.4-0.8,2.7-2,3.8c-1.1,0.9-2.5,1.7-4.2,2.1c-6.7,1.9-15.3-4.2-9.5-11.2
					c2.3-2.6,7.3-3.5,11.2-2c1.6,0.6,2.9,1.6,3.6,2.8C403.2,585.8,403.5,587.3,403.3,588.8z"/>
				<path class="st11" d="M98,82.6c0.2,4.7,1.9,12.8-1.5,16.6c-2.3,2.7-6.3,3.7-9.6,2.5c-3.7-1.3-6.2-4.7-8.4-7.9
					c-5.3-7.7-11.7-16-7.6-26c4.7-11.4,19.1-7.5,23.9,1.3C96.8,73.4,97.9,78,98,82.6z"/>
				<path class="st11" d="M75.9,118.8c2.7-3.9,6.1-11.3,11.1-12.4c3.5-0.8,7.2,0.8,9.2,3.8c2.2,3.2,2.1,7.5,2,11.4
					c-0.4,9.3-0.2,19.8-9.5,25.4c-10.6,6.4-19.8-5.4-18.3-15.4C71.1,127.1,73,122.8,75.9,118.8z"/>
				<path class="st11" d="M103.3,126.4c-3.3-3.4-9.8-8.4-9.8-13.4c0-3.5,2.3-6.9,5.6-8.2c3.6-1.5,7.7-0.5,11.5,0.4
					c9,2.3,19.4,4.3,22.9,14.6c4,11.7-9.4,18.2-18.8,14.7C110.3,132.8,106.6,129.8,103.3,126.4z"/>
				<path class="st11" d="M72.5,94.6c4.7,0.9,12.8,1,15.8,5.1c2.1,3.2,2.2,6.8,0.3,10c-2.1,3.3-6,5-9.6,6.4
					c-8.6,3.4-18.2,7.8-27,1.6c-10.1-7.1-3-20.3,6.6-23C63.1,93.6,68,93.6,72.5,94.6z"/>
				<path class="st11" d="M116.4,106.2c-4.6,1.2-12,4.5-16.5,2.1c-3.1-1.7-4.9-5.4-4.5-8.9c0.5-3.9,3.3-7,6-9.9
					c6.4-6.8,13.2-14.9,23.8-13c12.2,2.1,11.4,17.1,3.8,23.6C125.7,102.9,121.3,105,116.4,106.2z"/>
				<path class="st6" d="M101.9,106.7c-0.1,1.4-0.8,2.7-2,3.8c-1.1,0.9-2.5,1.7-4.2,2.1c-6.7,1.9-15.3-4.2-9.5-11.2
					c2.3-2.6,7.3-3.5,11.2-2c1.6,0.6,2.9,1.6,3.6,2.8C101.8,103.7,102.1,105.2,101.9,106.7z"/>
				<path class="st11" d="M239.9,246.2c-3.9,2.7-9.8,8.4-14.8,7.6c-3.5-0.5-6.5-3.4-7.3-6.8c-0.9-3.8,0.7-7.7,2.2-11.3
					c3.7-8.5,7.3-18.4,18-20.3c12.2-2.1,16.5,12.2,11.6,20.9C247.5,240,244.1,243.3,239.9,246.2z"/>
				<path class="st11" d="M197.5,246.8c4.7,0.2,12.9-0.8,16.4,2.8c2.5,3,3.2,6.5,1.7,9.8c-1.5,3.6-5.2,5.8-8.6,7.7
					c-8.1,4.6-16.9,10.4-26.6,5.5c-11-5.6-6-19.6,3.3-23.7C187.8,247.2,192.7,246.5,197.5,246.8z"/>
				<path class="st11" d="M205.7,274.1c1.2-4.6,1.9-12.8,6.1-15.5c2.6-1.7,6.8-1.8,9.4,0c0.2,0.1,0.3,0.2,0.5,0.4
					c3.2,2.3,4.6,6.3,5.8,10c2.8,8.8,6.7,18.7-0.1,27.1c-7.7,9.6-20.4,1.7-22.5-8.1C204.1,283.4,204.4,278.7,205.7,274.1z"/>
				<path class="st11" d="M216.2,231.1c1.8,4.4,6,11.4,4.1,16.1c-1.3,3.3-4.7,5.5-8.3,5.6c-3.9,0-7.4-2.4-10.5-4.7
					c-7.5-5.5-16.4-11.2-15.8-22c0.6-12.3,15.6-13.4,23-6.6C212.2,222.5,214.4,226.7,216.2,231.1z"/>
				<path class="st11" d="M229.7,274.4c-3.4-3.2-10.3-7.8-10.6-12.8c-0.2-3.5,1.9-7,5.1-8.5c3.5-1.7,7.7-1,11.6-0.2
					c9.1,1.8,19.6,3.2,23.7,13.2c4.7,11.4-8.4,18.7-18,15.8C237,280.4,233.2,277.6,229.7,274.4z"/>
				<path class="st6" d="M221.5,262.4c-1.2,0.6-2.9,0.7-4.3,0.4c-1.6-0.6-3-1.4-4-2.4c-5.1-4.6-4.6-15.2,4.4-14
					c5.2,0.7,9.4,8.3,7.2,13C224.3,260.6,223.1,261.6,221.5,262.4z"/>
				<path class="st11" d="M595.8,479.2c-3.2,2.2-8.1,7-12.3,6.3c-2.9-0.4-5.4-2.8-6-5.7c-0.7-3.2,0.6-6.4,1.9-9.4
					c3-7.1,6-15.3,14.9-16.9c10.1-1.8,13.7,10.1,9.6,17.4C602.1,474.1,599.3,476.9,595.8,479.2z"/>
				<path class="st11" d="M560.5,479.7c3.9,0.1,10.7-0.7,13.6,2.3c2.1,2.5,2.7,5.4,1.5,8.1c-1.3,3-4.3,4.8-7.1,6.4
					c-6.7,3.9-14,8.6-22,4.6c-9.2-4.6-4.9-16.3,2.7-19.7C552.6,480.1,556.6,479.5,560.5,479.7z"/>
				<path class="st11" d="M567.4,502.4c1-3.8,1.5-10.6,5.1-12.9c2.2-1.4,5.7-1.4,7.8,0c0.1,0.1,0.3,0.2,0.4,0.3
					c2.7,1.9,3.8,5.2,4.8,8.3c2.4,7.3,5.5,15.5-0.1,22.5c-6.4,8-17,1.4-18.7-6.7C566,510.1,566.3,506.2,567.4,502.4z"/>
				<path class="st11" d="M576.1,466.7c1.5,3.7,5,9.5,3.4,13.4c-1.1,2.7-3.9,4.6-6.9,4.6c-3.2,0-6.1-2-8.7-3.9
					c-6.2-4.5-13.6-9.3-13.1-18.3c0.5-10.2,12.9-11.1,19.1-5.5C572.8,459.9,574.9,463.2,576.1,466.7z"/>
				<path class="st11" d="M587.3,502.6c-2.9-2.7-8.5-6.5-8.8-10.6c-0.2-2.9,1.6-5.8,4.3-7.1c3-1.4,6.4-0.8,9.6-0.2
					c7.5,1.5,16.3,2.7,19.7,11c3.9,9.5-7,15.6-14.9,13.1C593.4,507.6,590.2,505.3,587.3,502.6z"/>
				<path class="st6" d="M580.5,492.7c-1,0.5-2.4,0.6-3.6,0.3c-1.3-0.5-2.5-1.2-3.3-2c-4.3-3.9-3.8-12.6,3.6-11.6
					c4.3,0.6,7.8,6.9,6,10.8C582.8,491.2,581.8,492.1,580.5,492.7z"/>
				<path class="st11" d="M715.7,115.6c-4.5,1.7-11.5,5.7-16.2,3.8c-3.3-1.4-5.4-4.8-5.4-8.4c0-3.9,2.6-7.3,4.9-10.4
					c5.6-7.4,11.6-16.1,22.4-15.3c12.3,0.9,13.1,15.8,6.2,23.1C724.6,111.4,720.5,113.9,715.7,115.6z"/>
				<path class="st11" d="M674.4,105.9c4.5,1.3,12.7,2.3,15.2,6.7c1.7,3.2,1.5,6.8-0.7,9.9c-2.4,3.1-6.4,4.3-10.2,5.4
					c-9,2.5-18.9,6-27.1-1.1c-9.3-8.1-1-20.5,8.9-22.2C665.2,103.8,669.9,104.6,674.4,105.9z"/>
				<path class="st11" d="M675.7,134.4c2.3-4.2,4.9-11.9,9.7-13.5c3.3-1.1,7.3,0.1,9.6,2.8c2.5,3,2.9,7.2,3.2,11.1
					c0.6,9.3,1.9,19.8-6.7,26.3c-9.8,7.4-20.3-3.3-19.8-13.3C671.9,143.1,673.3,138.6,675.7,134.4z"/>
				<path class="st11" d="M696.4,95.2c0.6,4.7,3,12.5,0.1,16.6c-2.1,2.9-6,4.2-9.4,3.4c-3.8-0.9-6.6-4.1-9.1-7.1
					c-5.9-7.1-13.1-14.9-10-25.2c3.6-11.8,18.3-9.2,23.9-0.8C694.5,86.2,696,90.6,696.4,95.2z"/>
				<path class="st11" d="M699,140.5c-2.6-4-8.1-10.1-7.1-15c0.6-3.5,3.6-6.3,7-7c3.8-0.8,7.7,0.9,11.3,2.6
					c8.4,3.9,18.2,7.9,19.8,18.6c1.8,12.2-12.7,16.1-21.3,10.9C704.6,148.1,701.5,144.4,699,140.5z"/>
				<path class="st6" d="M694,126.8c-1.5,0.3-3.1,0-4.3-0.7c-1.4-0.9-2.5-2.1-3.3-3.3c-3.9-5.8-0.8-15.9,7.6-12.5
					c4.8,1.9,7.1,10.3,3.8,14.3C697.1,125.7,695.7,126.5,694,126.8z"/>
				<path class="st4" d="M57.8,174.6c5.7,0,5.7-6,0-6S52,174.6,57.8,174.6z"/>
				<path class="st4" d="M68,172.8c5.7,0,5.7-6,0-6S62.2,172.8,68,172.8z"/>
				<path class="st4" d="M64.6,183.5c5.8,0,5.8-6,0-6S58.9,183.5,64.6,183.5z"/>
				<path class="st4" d="M163.1,205.6c5.7,0,5.8-5.9,0-5.9C157.3,199.7,157.3,205.6,163.1,205.6z"/>
				<path class="st4" d="M161.9,215.9c5.7,0,5.7-6,0-6S156.1,215.9,161.9,215.9z"/>
				<path class="st4" d="M152.6,209.7c5.7,0,5.8-5.9,0-5.9S146.8,209.7,152.6,209.7z"/>
				<path class="st4" d="M368.2,368.6c5.7,0,5.8-6,0-6C362.4,362.6,362.4,368.6,368.2,368.6z"/>
				<path class="st4" d="M378.1,371.6c5.7,0,5.8-6,0-6C372.3,365.6,372.3,371.6,378.1,371.6z"/>
				<path class="st4" d="M370.3,379.6c5.7,0,5.7-6,0-6C364.6,373.6,364.5,379.6,370.3,379.6z"/>
				<path class="st4" d="M337.1,551.5c5.7,0,5.7-6,0-6C331.3,545.5,331.3,551.5,337.1,551.5z"/>
				<path class="st4" d="M346.1,546.5c5.7,0,5.8-6,0-6C340.4,540.5,340.4,546.5,346.1,546.5z"/>
				<path class="st4" d="M346.5,557.6c5.7,0,5.8-6,0-6C340.7,551.6,340.7,557.6,346.5,557.6z"/>
				<path class="st4" d="M232.4,351.9c5.7,0,5.8-6,0-6S226.6,351.9,232.4,351.9z"/>
				<path class="st4" d="M222,351.3c5.7,0,5.8-6,0-6C216.2,345.3,216.2,351.3,222,351.3z"/>
				<path class="st4" d="M227.7,341.6c5.7,0,5.8-6,0-6S222,341.6,227.7,341.6z"/>
				<path class="st4" d="M436.3,211.7c5.7,0,5.7-6,0-6C430.5,205.7,430.5,211.7,436.3,211.7z"/>
				<path class="st4" d="M429.2,204.1c5.7,0,5.8-5.9,0-5.9C423.5,198.2,423.5,204.1,429.2,204.1z"/>
				<path class="st4" d="M440,201.1c5.7,0,5.7-5.9,0-5.9C434.3,195.2,434.3,201.1,440,201.1z"/>
				<path class="st4" d="M515.4,439.1c5.7,0,5.8-6,0-6C509.7,433.1,509.7,439.1,515.4,439.1z"/>
				<path class="st4" d="M519.2,429.4c5.7,0,5.8-6,0-6C513.4,423.4,513.5,429.4,519.2,429.4z"/>
				<path class="st4" d="M526.6,437.8c5.7,0,5.7-6,0-6S520.8,437.8,526.6,437.8z"/>
				<path class="st4" d="M649.9,546.9c5.7,0,5.8-6,0-6C644.1,540.9,644.1,546.9,649.9,546.9z"/>
				<path class="st4" d="M657.2,539.5c5.7,0,5.8-6,0-6C651.4,533.5,651.4,539.5,657.2,539.5z"/>
				<path class="st4" d="M660.7,550.2c5.7,0,5.7-6,0-6C654.9,544.2,654.9,550.2,660.7,550.2z"/>
				<path class="st4" d="M294.2,461.3c5.7,0,5.7-6,0-6C288.5,455.3,288.5,461.3,294.2,461.3z"/>
				<path class="st4" d="M304.4,463c5.7,0,5.8-6,0-6C298.7,457,298.7,463,304.4,463z"/>
				<path class="st4" d="M297.8,471.9c5.7,0,5.8-6,0-6C292,466,292,471.9,297.8,471.9z"/>
				<path class="st4" d="M177.4,528.8c5.7,0,5.7-6,0-6S171.6,528.8,177.4,528.8z"/>
				<path class="st4" d="M170.4,521.2c5.7,0,5.8-6,0-6S164.6,521.2,170.4,521.2z"/>
				<path class="st4" d="M181.1,518.2c5.7,0,5.7-6,0-6S175.4,518.2,181.1,518.2z"/>
				<path class="st4" d="M87.9,493.7c5.7,0,5.8-6,0-6C82.2,487.8,82.2,493.7,87.9,493.7z"/>
				<path class="st4" d="M89.3,483.5c5.7,0,5.7-6,0-6C83.6,477.5,83.6,483.5,89.3,483.5z"/>
				<path class="st4" d="M98.5,489.8c5.7,0,5.7-6,0-6C92.8,483.9,92.8,489.8,98.5,489.8z"/>
				<path class="st4" d="M51.9,347.7c5.7,0,5.7-6,0-6S46.2,347.7,51.9,347.7z"/>
				<path class="st4" d="M61.3,343.2c5.7,0,5.7-6,0-6S55.5,343.2,61.3,343.2z"/>
				<path class="st4" d="M60.9,354.4c5.7,0,5.8-6,0-6S55.2,354.4,60.9,354.4z"/>
				<path class="st6" d="M192.7,383.2c5.7,0,5.7-6,0-6S186.9,383.2,192.7,383.2z"/>
				<path class="st6" d="M304.6,301.2c5.8,0,5.8-6,0-6C298.9,295.2,298.9,301.2,304.6,301.2z"/>
				<path class="st6" d="M612.7,570.2c5.7,0,5.7-6,0-6C606.9,564.2,606.9,570.2,612.7,570.2z"/>
				<path class="st6" d="M550.6,546.2c5.8,0,5.8-6,0-6C544.9,540.2,544.9,546.2,550.6,546.2z"/>
				<path class="st6" d="M636.7,314.2c5.7,0,5.7-6,0-6C630.9,308.2,630.9,314.2,636.7,314.2z"/>
				<path class="st6" d="M510.7,146.2c5.7,0,5.7-5.9,0-5.9S504.9,146.2,510.7,146.2z"/>
				<path class="st6" d="M408.7,338.2c5.7,0,5.7-6,0-6C402.9,332.2,402.9,338.2,408.7,338.2z"/>
				<path class="st6" d="M437.6,253.2c5.7,0,5.8-5.9,0-5.9C431.9,247.2,431.9,253.2,437.6,253.2z"/>
				<path class="st6" d="M528.7,344.2c5.7,0,5.7-6,0-6S522.9,344.2,528.7,344.2z"/>
				<path class="st6" d="M486.7,296.2c5.7,0,5.7-6,0-6C480.9,290.2,480.9,296.2,486.7,296.2z"/>
				<path class="st6" d="M228.7,190.2c5.7,0,5.7-5.9,0-5.9S222.9,190.2,228.7,190.2z"/>
				<path class="st6" d="M132.7,170.2c5.7,0,5.7-5.9,0-5.9C126.9,164.2,126.9,170.2,132.7,170.2z"/>
				<path class="st6" d="M-7.4,176.2c5.8,0,5.8-5.9,0-5.9S-13.1,176.2-7.4,176.2z"/>
				<path class="st6" d="M120.7,233.2c5.7,0,5.7-5.9,0-5.9S114.9,233.2,120.7,233.2z"/>
				<path class="st6" d="M69.7,303.2c5.7,0,5.7-6,0-6S63.9,303.2,69.7,303.2z"/>
				<path class="st6" d="M6.7,358.2c5.7,0,5.7-6,0-6S0.9,358.2,6.7,358.2z"/>
				<path class="st6" d="M-20.3,427.2c5.7,0,5.7-6,0-6S-26.1,427.2-20.3,427.2z"/>
				<path class="st6" d="M56.6,471.2c5.7,0,5.8-6,0-6S50.9,471.2,56.6,471.2z"/>
				<path class="st6" d="M102.7,416.2c5.7,0,5.7-6,0-6S96.9,416.2,102.7,416.2z"/>
				<path class="st6" d="M139.6,546.2c5.8,0,5.8-6,0-6S133.9,546.2,139.6,546.2z"/>
				<path class="st6" d="M225.7,552.2c5.7,0,5.7-6,0-6S219.9,552.2,225.7,552.2z"/>
				<path class="st6" d="M413.6,529.2c5.7,0,5.8-6,0-6C407.9,523.2,407.9,529.2,413.6,529.2z"/>
				<path class="st6" d="M451.6,603.2c5.8,0,5.8-6,0-6C445.9,597.2,445.9,603.2,451.6,603.2z"/>
				<path class="st6" d="M628.6,424.2c5.8,0,5.8-6,0-6C622.9,418.2,622.9,424.2,628.6,424.2z"/>
				<path class="st6" d="M346.6,426.2c5.8,0,5.8-6,0-6C340.9,420.2,340.9,426.2,346.6,426.2z"/>
				<path class="st6" d="M118.6,609.2c5.8,0,5.8-6,0-6S112.9,609.2,118.6,609.2z"/>
				<path class="st6" d="M-15.4,612.2c5.7,0,5.8-6,0-6S-21.1,612.2-15.4,612.2z"/>
				<path class="st6" d="M229.6,410.2c5.8,0,5.8-6,0-6S223.9,410.2,229.6,410.2z"/>
				<path class="st6" d="M168.7,479.2c5.7,0,5.7-6,0-6S162.9,479.2,168.7,479.2z"/>
				<path class="st6" d="M271.6,258.2c5.8,0,5.8-6,0-6C265.9,252.2,265.9,258.2,271.6,258.2z"/>
				<path class="st6" d="M182.6,292.2c5.7,0,5.8-6,0-6S176.9,292.2,182.6,292.2z"/>
				<path class="st6" d="M376.6,200.2c5.8,0,5.8-5.9,0-5.9C370.9,194.2,370.9,200.2,376.6,200.2z"/>
				<path class="st6" d="M606.2,177.8c5.7,0,5.7-5.9,0-5.9C600.5,171.8,600.5,177.8,606.2,177.8z"/>
			</g>
		</g>
	</g>
</g>
</svg>
